M48
; #@! TF.GenerationSoftware,LibrePCB,LibrePCB,2.0.1
; #@! TF.CreationDate,2026-06-02T08:27:26
; #@! TF.ProjectId,PGDI,eecefd22-67af-4534-92f1-4d94143f8d19,v1
; #@! TF.Part,Single
; #@! TF.SameCoordinates
; #@! TF.FileFunction,Plated,1,2,PTH
FMAT,2
METRIC,TZ
; #@! TA.AperFunction,ViaDrill
T1C0.5
; #@! TA.AperFunction,ComponentDrill
T2C1.0
; #@! TA.AperFunction,ComponentDrill
T3C1.016
; #@! TA.AperFunction,ComponentDrill
T4C2.0
%
G90
G05
M71
T1
X59.69Y17.145
X60.325Y10.16
X53.34Y38.1
X67.945Y34.29
X22.225Y27.94
X18.415Y18.415
X69.215Y19.685
X43.18Y6.985
X36.195Y50.8
X55.88Y2.54
X54.61Y7.62
X48.895Y50.8
X36.195Y26.035
X34.925Y23.495
X22.225Y13.335
X69.215Y15.24
X24.13Y17.145
X48.895Y8.89
X39.37Y25.4
X33.02Y40.005
X61.595Y55.245
X51.435Y52.705
X29.845Y20.32
X28.575Y27.94
X87.63Y47.625
X87.63Y24.765
X85.725Y59.055
X87.63Y36.195
X24.765Y24.765
X26.035Y27.94
X27.94Y41.91
X41.91Y41.91
X9.525Y29.21
X53.975Y32.385
X66.675Y29.21
X53.34Y36.83
X53.34Y39.37
X67.945Y39.37
X3.81Y8.255
X38.1Y38.1
X73.505Y15.875
X78.74Y15.875
X43.815Y26.035
X71.755Y17.78
X46.355Y34.29
X13.97Y34.29
X5.08Y10.795
X41.275Y35.56
X54.61Y15.24
X57.785Y15.24
T2
X1.905Y26.67
X1.905Y21.59
X1.905Y24.13
X1.905Y19.05
X17.145Y76.835
X24.765Y76.835
X19.685Y76.835
X14.605Y76.835
X22.225Y76.835
X27.305Y76.835
X12.065Y76.835
X46.99Y73.66
X72.39Y73.66
X44.45Y73.66
X39.37Y73.66
X41.91Y73.66
X62.23Y73.66
X34.29Y73.66
X69.85Y73.66
X52.07Y73.66
X64.77Y73.66
X54.61Y73.66
X59.69Y73.66
X36.83Y73.66
X67.31Y73.66
X57.15Y73.66
X49.53Y73.66
X74.93Y73.66
X70.485Y29.21
X70.485Y31.75
X70.485Y41.91
X70.485Y39.37
X70.485Y36.83
X70.485Y34.29
X1.905Y15.875
X1.905Y10.795
X1.905Y13.335
X1.905Y8.255
X28.575Y48.895
X43.815Y48.895
X8.255Y48.895
X15.875Y48.895
X26.035Y31.115
X41.275Y31.115
X53.975Y48.895
X5.715Y48.895
X20.955Y31.115
X35.545Y34.3409
X31.115Y48.895
X41.275Y48.895
X8.255Y31.115
X13.335Y31.115
X31.115Y31.115
X51.435Y31.115
X36.195Y31.115
X36.195Y48.895
X33.655Y48.895
X35.545Y36.881
X35.545Y39.421
X20.955Y48.895
X38.735Y31.115
X18.415Y31.115
X33.655Y31.115
X15.875Y31.115
X10.795Y31.115
X46.355Y31.115
X18.415Y48.895
X48.895Y31.115
X53.975Y31.115
X28.575Y31.115
X51.435Y48.895
X13.335Y48.895
X26.035Y48.895
X10.795Y48.895
X23.495Y31.115
X5.715Y31.115
X23.495Y48.895
X46.355Y48.895
X43.815Y31.115
X38.735Y48.895
X48.895Y48.895
X32.385Y10.16
X24.765Y10.16
X14.605Y10.16
X29.845Y10.16
X17.145Y10.16
X27.305Y10.16
X22.225Y10.16
X19.685Y10.16
X46.99Y76.835
X72.39Y76.835
X44.45Y76.835
X39.37Y76.835
X41.91Y76.835
X62.23Y76.835
X34.29Y76.835
X69.85Y76.835
X52.07Y76.835
X64.77Y76.835
X54.61Y76.835
X59.69Y76.835
X36.83Y76.835
X67.31Y76.835
X57.15Y76.835
X49.53Y76.835
X74.93Y76.835
T3
X82.55Y53.975
X82.55Y56.515
X82.55Y59.055
X82.55Y42.545
X82.55Y45.085
X82.55Y47.625
X82.55Y19.685
X82.55Y22.225
X82.55Y24.765
X82.55Y31.115
X82.55Y33.655
X82.55Y36.195
T4
X40.17Y85.535
X30.17Y85.535
X60.17Y85.535
X90.17Y85.535
X50.17Y85.535
X70.17Y85.535
X80.17Y85.535
X20.17Y85.535
X12.255Y95.25
X12.255Y85.25
T0
M30
