G04 --- HEADER BEGIN --- *
G04 #@! TF.GenerationSoftware,LibrePCB,LibrePCB,2.0.1*
G04 #@! TF.CreationDate,2026-06-02T08:27:26*
G04 #@! TF.ProjectId,PGDI,eecefd22-67af-4534-92f1-4d94143f8d19,v1*
G04 #@! TF.Part,Single*
G04 #@! TF.SameCoordinates*
G04 #@! TF.FileFunction,Copper,L1,Top*
G04 #@! TF.FilePolarity,Positive*
%FSLAX66Y66*%
%MOMM*%
G01*
G75*
G04 --- HEADER END --- *
G04 --- APERTURE LIST BEGIN --- *
G04 #@! TA.AperFunction,SMDPad,CuDef*
%ADD10R,1.6X1.05*%
%ADD11R,1.05X1.6*%
%AMROUNDEDRECT12*20,1,0.5,-0.225,0.0,0.225,0.0,90.0*20,1,0.25,-0.35,0.0,0.35,0.0,90.0*1,1,0.25,-0.125,-0.225*1,1,0.25,-0.125,0.225*1,1,0.25,0.125,0.225*1,1,0.25,0.125,-0.225*%
%ADD12ROUNDEDRECT12*%
%ADD13R,1.23X1.8*%
G04 #@! TA.AperFunction,ComponentPad*
%ADD14O,3.5X1.9*%
%ADD15R,3.5X1.9*%
%ADD16R,1.587X2.19*%
%ADD17O,1.587X2.19*%
%ADD18C,3.0*%
G04 #@! TA.AperFunction,SMDPad,CuDef*
%ADD19R,2.37X2.43*%
G04 #@! TA.AperFunction,ComponentPad*
%ADD20R,1.7X1.7*%
%ADD21C,1.7*%
G04 #@! TA.AperFunction,SMDPad,CuDef*
%ADD22R,0.2794X1.3335*%
G04 #@! TA.AperFunction,ComponentPad*
%ADD23O,2.19X1.587*%
%ADD24R,2.19X1.587*%
G04 #@! TA.AperFunction,SMDPad,CuDef*
%ADD25R,1.25X0.75*%
%ADD26R,2.3114X0.5588*%
%ADD27R,1.4732X0.3556*%
G04 #@! TA.AperFunction,Conductor*
%ADD28C,0.5*%
G04 #@! TA.AperFunction,ViaPad*
%ADD29C,1.0*%
G04 #@! TA.AperFunction,Conductor*
%ADD30C,0.4*%
%ADD31C,2.0*%
%ADD32C,2.5*%
%ADD33C,3.0*%
G04 #@! TD*
G04 --- APERTURE LIST END --- *
G04 --- BOARD BEGIN --- *
D10*
G04 #@! TO.N,N65*
G04 #@! TO.C,R47*
G04 #@! TO.P,R47,2,2*
X41910000Y23975000D03*
G04 #@! TO.N,N109*
G04 #@! TO.P,R47,1,1*
X41910000Y26825000D03*
G04 #@! TO.N,N65*
G04 #@! TO.C,R59*
G04 #@! TO.P,R59,2,2*
X71755000Y13815000D03*
G04 #@! TO.N,N115*
G04 #@! TO.P,R59,1,1*
X71755000Y16665000D03*
D11*
G04 #@! TO.N,N66*
G04 #@! TO.C,C13*
G04 #@! TO.P,C13,2,2*
X36040000Y8255000D03*
G04 #@! TO.N,N65*
G04 #@! TO.P,C13,1,1*
X38890000Y8255000D03*
G04 #@! TO.N,N43*
G04 #@! TO.C,R45*
G04 #@! TO.P,R45,2,2*
X33500000Y20955000D03*
G04 #@! TO.N,N107*
G04 #@! TO.P,R45,1,1*
X36350000Y20955000D03*
D12*
G04 #@! TO.N,N115*
G04 #@! TO.C,?12*
G04 #@! TO.P,?12,REF,1*
X68215000Y12380000D03*
G04 #@! TO.N,N113*
G04 #@! TO.P,?12,Cathode,2*
X68215000Y10480000D03*
G04 #@! TO.N,N66*
G04 #@! TO.P,?12,Anode,3*
X70215000Y11430000D03*
D13*
G04 #@! TO.C,C3*
G04 #@! TO.P,C3,+,+*
X22860000Y20360000D03*
G04 #@! TO.P,C3,-,-*
X22860000Y17740000D03*
D14*
G04 #@! TO.N,N19*
G04 #@! TO.C,Q2*
G04 #@! TO.P,Q2,3,S*
X82550000Y36195000D03*
G04 #@! TO.N,N50*
G04 #@! TO.P,Q2,2,D*
X82550000Y33655000D03*
D15*
G04 #@! TO.N,N9*
G04 #@! TO.P,Q2,1,G*
X82550000Y31115000D03*
D16*
G04 #@! TO.N,N11*
G04 #@! TO.C,J5*
G04 #@! TO.P,J5,1,1*
X74930000Y76835000D03*
D17*
G04 #@! TO.P,J5,11,11*
X49530000Y76835000D03*
G04 #@! TO.P,J5,8,8*
X57150000Y76835000D03*
G04 #@! TO.P,J5,4,4*
X67310000Y76835000D03*
G04 #@! TO.P,J5,16,16*
X36830000Y76835000D03*
G04 #@! TO.P,J5,7,7*
X59690000Y76835000D03*
G04 #@! TO.P,J5,9,9*
X54610000Y76835000D03*
G04 #@! TO.P,J5,5,5*
X64770000Y76835000D03*
G04 #@! TO.P,J5,10,10*
X52070000Y76835000D03*
G04 #@! TO.P,J5,3,3*
X69850000Y76835000D03*
G04 #@! TO.P,J5,17,17*
X34290000Y76835000D03*
G04 #@! TO.P,J5,6,6*
X62230000Y76835000D03*
G04 #@! TO.P,J5,14,14*
X41910000Y76835000D03*
G04 #@! TO.P,J5,15,15*
X39370000Y76835000D03*
G04 #@! TO.P,J5,13,13*
X44450000Y76835000D03*
G04 #@! TO.P,J5,2,2*
X72390000Y76835000D03*
G04 #@! TO.P,J5,12,12*
X46990000Y76835000D03*
D10*
G04 #@! TO.N,N9*
G04 #@! TO.C,R15*
G04 #@! TO.P,R15,2,2*
X78105000Y30635000D03*
G04 #@! TO.N,N42*
G04 #@! TO.P,R15,1,1*
X78105000Y27785000D03*
D18*
G04 #@! TD.P*
G04 #@! TO.N,N/C*
G04 #@! TO.C,J9*
X12255000Y85250000D03*
X12255000Y95250000D03*
D13*
G04 #@! TO.N,N66*
G04 #@! TO.C,C6*
G04 #@! TO.P,C6,+,+*
X53340000Y10835000D03*
G04 #@! TO.P,C6,-,-*
X53340000Y8215000D03*
D19*
G04 #@! TO.C,C5*
G04 #@! TO.P,C5,-,-*
X38045000Y17145000D03*
G04 #@! TO.N,N43*
G04 #@! TO.P,C5,+,+*
X31805000Y17145000D03*
D10*
G04 #@! TO.N,N19*
G04 #@! TO.C,R37*
G04 #@! TO.P,R37,2,2*
X78105000Y46510000D03*
G04 #@! TO.N,N15*
G04 #@! TO.P,R37,1,1*
X78105000Y43660000D03*
D17*
G04 #@! TO.N,N55*
G04 #@! TO.C,J1*
G04 #@! TO.P,J1,3,3*
X19685000Y10160000D03*
G04 #@! TO.N,N66*
G04 #@! TO.P,J1,4,4*
X22225000Y10160000D03*
G04 #@! TO.P,J1,6,6*
X27305000Y10160000D03*
G04 #@! TO.P,J1,2,2*
X17145000Y10160000D03*
G04 #@! TO.N,N98*
G04 #@! TO.P,J1,7,7*
X29845000Y10160000D03*
D16*
G04 #@! TO.N,N16*
G04 #@! TO.P,J1,1,1*
X14605000Y10160000D03*
D17*
G04 #@! TO.N,N72*
G04 #@! TO.P,J1,5,5*
X24765000Y10160000D03*
G04 #@! TO.N,N66*
G04 #@! TO.P,J1,8,8*
X32385000Y10160000D03*
D10*
G04 #@! TO.N,N113*
G04 #@! TO.C,R58*
G04 #@! TO.P,R58,2,2*
X73025000Y9370000D03*
G04 #@! TO.N,N65*
G04 #@! TO.P,R58,1,1*
X73025000Y12220000D03*
G04 #@! TO.N,N115*
G04 #@! TO.C,R60*
G04 #@! TO.P,R60,2,2*
X69215000Y16665000D03*
G04 #@! TO.N,N66*
G04 #@! TO.P,R60,1,1*
X69215000Y13815000D03*
D20*
G04 #@! TO.C,U1*
G04 #@! TO.P,U1,18,GND*
X48895000Y48895000D03*
D21*
G04 #@! TO.N,N30*
G04 #@! TO.P,U1,14,GPIO10*
X38735000Y48895000D03*
G04 #@! TO.N,N/C*
G04 #@! TO.P,U1,25,GPIO19*
X43815000Y31115000D03*
G04 #@! TO.N,N4*
G04 #@! TO.P,U1,17,GPIO13*
X46355000Y48895000D03*
D20*
G04 #@! TO.N,N66*
G04 #@! TO.P,U1,8,GND*
X23495000Y48895000D03*
D21*
G04 #@! TO.N,N/C*
G04 #@! TO.P,U1,40,VBUS_OUT*
X5715000Y31115000D03*
D20*
G04 #@! TO.N,N66*
G04 #@! TO.P,U1,33,GND*
X23495000Y31115000D03*
G04 #@! TO.P,U1,3,GND*
X10795000Y48895000D03*
D21*
G04 #@! TO.N,N7*
G04 #@! TO.P,U1,9,GPIO6*
X26035000Y48895000D03*
G04 #@! TO.N,N3*
G04 #@! TO.P,U1,4,GPIO2*
X13335000Y48895000D03*
G04 #@! TO.N,N70*
G04 #@! TO.P,U1,19,GPIO14*
X51435000Y48895000D03*
G04 #@! TO.N,N43*
G04 #@! TO.P,U1,31,GPIO26*
X28575000Y31115000D03*
G04 #@! TO.N,N60*
G04 #@! TO.P,U1,21,GPIO16*
X53975000Y31115000D03*
D20*
G04 #@! TO.N,N66*
G04 #@! TO.P,U1,23,GND*
X48895000Y31115000D03*
D21*
G04 #@! TO.N,N69*
G04 #@! TO.P,U1,6,GPIO4*
X18415000Y48895000D03*
G04 #@! TO.N,N51*
G04 #@! TO.P,U1,24,GPIO18*
X46355000Y31115000D03*
D20*
G04 #@! TO.N,N66*
G04 #@! TO.P,U1,38,GND*
X10795000Y31115000D03*
D21*
G04 #@! TO.N,N65*
G04 #@! TO.P,U1,36,3V3_OUT*
X15875000Y31115000D03*
G04 #@! TO.N,N67*
G04 #@! TO.P,U1,29,GPIO22*
X33655000Y31115000D03*
G04 #@! TO.N,N/C*
G04 #@! TO.P,U1,35,ADC_VREF*
X18415000Y31115000D03*
G04 #@! TO.N,N25*
G04 #@! TO.P,U1,27,GPIO21*
X38735000Y31115000D03*
G04 #@! TO.N,N21*
G04 #@! TO.P,U1,7,GPIO5*
X20955000Y48895000D03*
G04 #@! TO.N,N/C*
G04 #@! TO.P,U1,D1,SWCLK*
X35545000Y39421000D03*
D20*
G04 #@! TO.N,N66*
G04 #@! TO.P,U1,D2,GND*
X35545000Y36881000D03*
D21*
G04 #@! TO.N,N22*
G04 #@! TO.P,U1,12,GPIO9*
X33655000Y48895000D03*
D20*
G04 #@! TO.N,N66*
G04 #@! TO.P,U1,13,GND*
X36195000Y48895000D03*
G04 #@! TO.P,U1,28,GND*
X36195000Y31115000D03*
D21*
G04 #@! TO.N,N/C*
G04 #@! TO.P,U1,22,GPIO17*
X51435000Y31115000D03*
G04 #@! TO.P,U1,30,RUN*
X31115000Y31115000D03*
G04 #@! TO.P,U1,37,3V3_EN*
X13335000Y31115000D03*
G04 #@! TO.P,U1,39,VSYS*
X8255000Y31115000D03*
G04 #@! TO.N,N59*
G04 #@! TO.P,U1,15,GPIO11*
X41275000Y48895000D03*
G04 #@! TO.N,N23*
G04 #@! TO.P,U1,11,GPIO8*
X31115000Y48895000D03*
G04 #@! TO.N,N/C*
G04 #@! TO.P,U1,D3,SWDIO*
X35545000Y34340900D03*
G04 #@! TO.P,U1,34,GPIO28*
X20955000Y31115000D03*
G04 #@! TO.N,N71*
G04 #@! TO.P,U1,1,GPIO0*
X5715000Y48895000D03*
G04 #@! TO.N,N32*
G04 #@! TO.P,U1,20,GPIO15*
X53975000Y48895000D03*
G04 #@! TO.N,N14*
G04 #@! TO.P,U1,26,GPIO20*
X41275000Y31115000D03*
G04 #@! TO.N,N39*
G04 #@! TO.P,U1,32,GPIO27*
X26035000Y31115000D03*
G04 #@! TO.N,N42*
G04 #@! TO.P,U1,5,GPIO3*
X15875000Y48895000D03*
G04 #@! TO.N,N1*
G04 #@! TO.P,U1,2,GPIO1*
X8255000Y48895000D03*
G04 #@! TO.N,N44*
G04 #@! TO.P,U1,16,GPIO12*
X43815000Y48895000D03*
G04 #@! TO.N,N58*
G04 #@! TO.P,U1,10,GPIO7*
X28575000Y48895000D03*
D11*
G04 #@! TO.N,N39*
G04 #@! TO.C,R43*
G04 #@! TO.P,R43,2,2*
X19840000Y20955000D03*
G04 #@! TO.N,N108*
G04 #@! TO.P,R43,1,1*
X16990000Y20955000D03*
D22*
G04 #@! TO.N,N66*
G04 #@! TO.C,U7*
G04 #@! TO.P,U7,6,AIN2*
X59420252Y22536150D03*
G04 #@! TO.N,N25*
G04 #@! TO.P,U7,10,SCL*
X57419748Y22536150D03*
G04 #@! TO.N,N/C*
G04 #@! TO.P,U7,2,ALERT/RDY*
X57919874Y18103850D03*
G04 #@! TO.N,N66*
G04 #@! TO.P,U7,3,GND*
X58420000Y18103850D03*
G04 #@! TO.N,N45*
G04 #@! TO.P,U7,4,AIN0*
X58920126Y18103850D03*
G04 #@! TO.N,N66*
G04 #@! TO.P,U7,1,ADDR*
X57419748Y18103850D03*
G04 #@! TO.N,N65*
G04 #@! TO.P,U7,8,VDD*
X58420000Y22536150D03*
G04 #@! TO.N,N66*
G04 #@! TO.P,U7,7,AIN3*
X58920126Y22536150D03*
G04 #@! TO.N,N14*
G04 #@! TO.P,U7,9,SDA*
X57919874Y22536150D03*
G04 #@! TO.N,N57*
G04 #@! TO.P,U7,5,AIN1*
X59420252Y18103850D03*
D10*
G04 #@! TO.N,N19*
G04 #@! TO.C,R36*
G04 #@! TO.P,R36,2,2*
X78105000Y35080000D03*
G04 #@! TO.N,N9*
G04 #@! TO.P,R36,1,1*
X78105000Y32230000D03*
D23*
G04 #@! TO.N,N25*
G04 #@! TO.C,J6*
G04 #@! TO.P,J6,4,4*
X1905000Y8255000D03*
G04 #@! TO.N,N65*
G04 #@! TO.P,J6,2,2*
X1905000Y13335000D03*
G04 #@! TO.N,N14*
G04 #@! TO.P,J6,3,3*
X1905000Y10795000D03*
D24*
G04 #@! TO.N,N66*
G04 #@! TO.P,J6,1,1*
X1905000Y15875000D03*
D10*
G04 #@! TO.N,N60*
G04 #@! TO.C,R35*
G04 #@! TO.P,R35,2,2*
X8255000Y28095000D03*
G04 #@! TO.N,N66*
G04 #@! TO.P,R35,1,1*
X8255000Y25245000D03*
D12*
G04 #@! TO.N,N109*
G04 #@! TO.C,?9*
G04 #@! TO.P,?9,REF,1*
X38370000Y22540000D03*
G04 #@! TO.N,N104*
G04 #@! TO.P,?9,Cathode,2*
X38370000Y20640000D03*
G04 #@! TO.N,N66*
G04 #@! TO.P,?9,Anode,3*
X40370000Y21590000D03*
D19*
G04 #@! TO.C,C11*
G04 #@! TO.P,C11,-,-*
X44505000Y15240000D03*
G04 #@! TO.N,N45*
G04 #@! TO.P,C11,+,+*
X50745000Y15240000D03*
D25*
G04 #@! TO.N,N72*
G04 #@! TO.C,R61*
G04 #@! TO.P,R61,2,2*
X70485000Y7280000D03*
G04 #@! TO.N,N113*
G04 #@! TO.P,R61,1,1*
X70485000Y9230000D03*
D19*
G04 #@! TO.N,N66*
G04 #@! TO.C,C12*
G04 #@! TO.P,C12,-,-*
X67890000Y6985000D03*
G04 #@! TO.N,N57*
G04 #@! TO.P,C12,+,+*
X61650000Y6985000D03*
D12*
G04 #@! TO.N,N100*
G04 #@! TO.C,?7*
G04 #@! TO.P,?7,REF,1*
X13700000Y19370000D03*
G04 #@! TO.N,N95*
G04 #@! TO.P,?7,Cathode,2*
X13700000Y21270000D03*
G04 #@! TO.N,N66*
G04 #@! TO.P,?7,Anode,3*
X11700000Y20320000D03*
D26*
G04 #@! TO.N,N84*
G04 #@! TO.C,U2*
G04 #@! TO.P,U2,23,I8*
X50088800Y56515000D03*
G04 #@! TO.N,N110*
G04 #@! TO.P,U2,9,I0*
X59131200Y65405000D03*
G04 #@! TO.N,N53*
G04 #@! TO.P,U2,3,I6*
X59131200Y57785000D03*
G04 #@! TO.N,N10*
G04 #@! TO.P,U2,2,I7*
X59131200Y56515000D03*
G04 #@! TO.N,N66*
G04 #@! TO.P,U2,12,GND*
X59131200Y69215000D03*
G04 #@! TO.N,N65*
G04 #@! TO.P,U2,24,VCC*
X50088800Y55245000D03*
G04 #@! TO.N,N96*
G04 #@! TO.P,U2,16,I15*
X50088800Y65405000D03*
G04 #@! TO.N,N111*
G04 #@! TO.P,U2,4,I5*
X59131200Y59055000D03*
G04 #@! TO.N,N66*
G04 #@! TO.P,U2,15,E*
X50088800Y66675000D03*
G04 #@! TO.N,N23*
G04 #@! TO.P,U2,13,S3*
X50088800Y69215000D03*
G04 #@! TO.N,N7*
G04 #@! TO.P,U2,10,S0*
X59131200Y66675000D03*
G04 #@! TO.N,N102*
G04 #@! TO.P,U2,6,I3*
X59131200Y61595000D03*
G04 #@! TO.N,N85*
G04 #@! TO.P,U2,21,I10*
X50088800Y59055000D03*
G04 #@! TO.N,N48*
G04 #@! TO.P,U2,20,I11*
X50088800Y60325000D03*
G04 #@! TO.N,N18*
G04 #@! TO.P,U2,19,I12*
X50088800Y61595000D03*
G04 #@! TO.N,N12*
G04 #@! TO.P,U2,17,I14*
X50088800Y64135000D03*
G04 #@! TO.N,N58*
G04 #@! TO.P,U2,11,S1*
X59131200Y67945000D03*
G04 #@! TO.N,N81*
G04 #@! TO.P,U2,18,I13*
X50088800Y62865000D03*
G04 #@! TO.N,N52*
G04 #@! TO.P,U2,8,I1*
X59131200Y64135000D03*
G04 #@! TO.N,N22*
G04 #@! TO.P,U2,14,S2*
X50088800Y67945000D03*
G04 #@! TO.N,N20*
G04 #@! TO.P,U2,5,I4*
X59131200Y60325000D03*
G04 #@! TO.N,N17*
G04 #@! TO.P,U2,7,I2*
X59131200Y62865000D03*
G04 #@! TO.N,N70*
G04 #@! TO.P,U2,1,COMMONINPUT/OUTPUT*
X59131200Y55245000D03*
G04 #@! TO.N,N46*
G04 #@! TO.P,U2,22,I9*
X50088800Y57785000D03*
D10*
G04 #@! TO.N,N13*
G04 #@! TO.C,R34*
G04 #@! TO.P,R34,2,2*
X5715000Y25245000D03*
G04 #@! TO.N,N60*
G04 #@! TO.P,R34,1,1*
X5715000Y28095000D03*
D11*
G04 #@! TO.N,N106*
G04 #@! TO.C,R54*
G04 #@! TO.P,R54,2,2*
X47470000Y8890000D03*
G04 #@! TO.N,N66*
G04 #@! TO.P,R54,1,1*
X50320000Y8890000D03*
D10*
G04 #@! TO.N,N104*
G04 #@! TO.C,R46*
G04 #@! TO.P,R46,2,2*
X43180000Y19530000D03*
G04 #@! TO.N,N65*
G04 #@! TO.P,R46,1,1*
X43180000Y22380000D03*
D11*
G04 #@! TO.N,N116*
G04 #@! TO.C,R56*
G04 #@! TO.P,R56,2,2*
X66195000Y13335000D03*
G04 #@! TO.N,N66*
G04 #@! TO.P,R56,1,1*
X63345000Y13335000D03*
D10*
G04 #@! TO.N,N118*
G04 #@! TO.C,R52*
G04 #@! TO.P,R52,2,2*
X43180000Y5560000D03*
G04 #@! TO.N,N66*
G04 #@! TO.P,R52,1,1*
X43180000Y8410000D03*
D23*
G04 #@! TO.N,N71*
G04 #@! TO.C,J2*
G04 #@! TO.P,J2,4,4*
X70485000Y34290000D03*
G04 #@! TO.N,N66*
G04 #@! TO.P,J2,3,3*
X70485000Y36830000D03*
G04 #@! TO.N,N1*
G04 #@! TO.P,J2,2,2*
X70485000Y39370000D03*
D24*
G04 #@! TO.N,N66*
G04 #@! TO.P,J2,1,1*
X70485000Y41910000D03*
D23*
G04 #@! TO.P,J2,5,5*
X70485000Y31750000D03*
G04 #@! TO.N,N67*
G04 #@! TO.P,J2,6,6*
X70485000Y29210000D03*
D10*
G04 #@! TO.N,N66*
G04 #@! TO.C,C10*
G04 #@! TO.P,C10,2,2*
X45720000Y22380000D03*
G04 #@! TO.N,N104*
G04 #@! TO.P,C10,1,1*
X45720000Y19530000D03*
G04 #@! TO.N,N66*
G04 #@! TO.C,C9*
G04 #@! TO.P,C9,2,2*
X6350000Y19530000D03*
G04 #@! TO.N,N95*
G04 #@! TO.P,C9,1,1*
X6350000Y22380000D03*
G04 #@! TO.C,R13*
G04 #@! TO.P,R13,2,2*
X8890000Y22380000D03*
G04 #@! TO.N,N65*
G04 #@! TO.P,R13,1,1*
X8890000Y19530000D03*
G04 #@! TO.C,R18*
G04 #@! TO.P,R18,2,2*
X10160000Y17935000D03*
G04 #@! TO.N,N100*
G04 #@! TO.P,R18,1,1*
X10160000Y15085000D03*
D12*
G04 #@! TO.N,N118*
G04 #@! TO.C,?10*
G04 #@! TO.P,?10,REF,1*
X44180000Y9845000D03*
G04 #@! TO.N,N56*
G04 #@! TO.P,?10,Cathode,2*
X44180000Y11745000D03*
G04 #@! TO.N,N66*
G04 #@! TO.P,?10,Anode,3*
X42180000Y10795000D03*
D14*
G04 #@! TO.N,N65*
G04 #@! TO.C,Q1*
G04 #@! TO.P,Q1,3,S*
X82550000Y24765000D03*
G04 #@! TO.N,N75*
G04 #@! TO.P,Q1,2,D*
X82550000Y22225000D03*
D15*
G04 #@! TO.N,N2*
G04 #@! TO.P,Q1,1,G*
X82550000Y19685000D03*
D11*
G04 #@! TO.N,N66*
G04 #@! TO.C,C7*
G04 #@! TO.P,C7,2,2*
X5560000Y17780000D03*
G04 #@! TO.N,N65*
G04 #@! TO.P,C7,1,1*
X8410000Y17780000D03*
D10*
G04 #@! TO.N,N109*
G04 #@! TO.C,R48*
G04 #@! TO.P,R48,2,2*
X39370000Y26825000D03*
G04 #@! TO.N,N66*
G04 #@! TO.P,R48,1,1*
X39370000Y23975000D03*
D14*
G04 #@! TO.N,N19*
G04 #@! TO.C,Q3*
G04 #@! TO.P,Q3,3,S*
X82550000Y47625000D03*
G04 #@! TO.N,N54*
G04 #@! TO.P,Q3,2,D*
X82550000Y45085000D03*
D15*
G04 #@! TO.N,N15*
G04 #@! TO.P,Q3,1,G*
X82550000Y42545000D03*
D10*
G04 #@! TO.N,N66*
G04 #@! TO.C,C16*
G04 #@! TO.P,C16,2,2*
X75565000Y12220000D03*
G04 #@! TO.N,N113*
G04 #@! TO.P,C16,1,1*
X75565000Y9370000D03*
G04 #@! TO.N,N100*
G04 #@! TO.C,R39*
G04 #@! TO.P,R39,2,2*
X12700000Y15085000D03*
G04 #@! TO.N,N66*
G04 #@! TO.P,R39,1,1*
X12700000Y17935000D03*
D27*
G04 #@! TO.C,U4*
G04 #@! TO.P,U4,4,GND*
X24384000Y21250001D03*
G04 #@! TO.N,N39*
G04 #@! TO.P,U4,1,1OUT*
X24384000Y23199999D03*
G04 #@! TO.N,N55*
G04 #@! TO.P,U4,5,2IN+*
X30226000Y21250001D03*
G04 #@! TO.N,N43*
G04 #@! TO.P,U4,7,2OUT*
X30226000Y22550001D03*
G04 #@! TO.N,N108*
G04 #@! TO.P,U4,2,1IN-*
X24384000Y22550001D03*
G04 #@! TO.N,N101*
G04 #@! TO.P,U4,8,VCC*
X30226000Y23199999D03*
G04 #@! TO.N,N16*
G04 #@! TO.P,U4,3,1IN+*
X24384000Y21899999D03*
G04 #@! TO.N,N107*
G04 #@! TO.P,U4,6,2IN-*
X30226000Y21899999D03*
G04 #@! TO.N,N66*
G04 #@! TO.C,U6*
G04 #@! TO.P,U6,4,GND*
X54864000Y11725001D03*
G04 #@! TO.N,N45*
G04 #@! TO.P,U6,1,1OUT*
X54864000Y13674999D03*
G04 #@! TO.N,N72*
G04 #@! TO.P,U6,5,2IN+*
X60706000Y11725001D03*
G04 #@! TO.N,N57*
G04 #@! TO.P,U6,7,2OUT*
X60706000Y13025001D03*
G04 #@! TO.N,N106*
G04 #@! TO.P,U6,2,1IN-*
X54864000Y13025001D03*
G04 #@! TO.N,N120*
G04 #@! TO.P,U6,8,VCC*
X60706000Y13674999D03*
G04 #@! TO.N,N98*
G04 #@! TO.P,U6,3,1IN+*
X54864000Y12374999D03*
G04 #@! TO.N,N116*
G04 #@! TO.P,U6,6,2IN-*
X60706000Y12374999D03*
D10*
G04 #@! TO.N,N66*
G04 #@! TO.C,C17*
G04 #@! TO.P,C17,2,2*
X53975000Y18895000D03*
G04 #@! TO.N,N65*
G04 #@! TO.P,C17,1,1*
X53975000Y21745000D03*
D25*
G04 #@! TO.N,N55*
G04 #@! TO.C,R49*
G04 #@! TO.P,R49,2,2*
X40640000Y17440000D03*
G04 #@! TO.N,N104*
G04 #@! TO.P,R49,1,1*
X40640000Y19390000D03*
D14*
G04 #@! TO.N,N19*
G04 #@! TO.C,Q4*
G04 #@! TO.P,Q4,3,S*
X82550000Y59055000D03*
G04 #@! TO.N,N93*
G04 #@! TO.P,Q4,2,D*
X82550000Y56515000D03*
D15*
G04 #@! TO.N,N8*
G04 #@! TO.P,Q4,1,G*
X82550000Y53975000D03*
D10*
G04 #@! TO.N,N65*
G04 #@! TO.C,R51*
G04 #@! TO.P,R51,2,2*
X40640000Y8410000D03*
G04 #@! TO.N,N118*
G04 #@! TO.P,R51,1,1*
X40640000Y5560000D03*
D11*
G04 #@! TO.N,N45*
G04 #@! TO.C,R55*
G04 #@! TO.P,R55,2,2*
X50320000Y11430000D03*
G04 #@! TO.N,N106*
G04 #@! TO.P,R55,1,1*
X47470000Y11430000D03*
G04 #@! TO.N,N66*
G04 #@! TO.C,C14*
G04 #@! TO.P,C14,2,2*
X76355000Y13970000D03*
G04 #@! TO.N,N65*
G04 #@! TO.P,C14,1,1*
X73505000Y13970000D03*
D10*
G04 #@! TO.N,N56*
G04 #@! TO.C,R50*
G04 #@! TO.P,R50,2,2*
X39370000Y12855000D03*
G04 #@! TO.N,N65*
G04 #@! TO.P,R50,1,1*
X39370000Y10005000D03*
D25*
G04 #@! TO.N,N98*
G04 #@! TO.C,R53*
G04 #@! TO.P,R53,2,2*
X41910000Y14945000D03*
G04 #@! TO.N,N56*
G04 #@! TO.P,R53,1,1*
X41910000Y12995000D03*
D10*
G04 #@! TO.N,N66*
G04 #@! TO.C,C2*
G04 #@! TO.P,C2,2,2*
X31115000Y26825000D03*
G04 #@! TO.N,N101*
G04 #@! TO.P,C2,1,1*
X31115000Y23975000D03*
D18*
G04 #@! TD.P*
G04 #@! TO.N,N/C*
G04 #@! TO.C,?8*
X20170000Y85535000D03*
X80170000Y85535000D03*
X70170000Y85535000D03*
X50170000Y85535000D03*
X90170000Y85535000D03*
X60170000Y85535000D03*
X30170000Y85535000D03*
X40170000Y85535000D03*
D10*
G04 #@! TO.N,N2*
G04 #@! TO.C,R2*
G04 #@! TO.P,R2,2,2*
X78105000Y21110000D03*
G04 #@! TO.N,N3*
G04 #@! TO.P,R2,1,1*
X78105000Y18260000D03*
G04 #@! TO.N,N15*
G04 #@! TO.C,R16*
G04 #@! TO.P,R16,2,2*
X78105000Y42065000D03*
G04 #@! TO.N,N69*
G04 #@! TO.P,R16,1,1*
X78105000Y39215000D03*
D16*
G04 #@! TO.N,N66*
G04 #@! TO.C,J4*
G04 #@! TO.P,J4,1,1*
X74930000Y73660000D03*
D17*
G04 #@! TO.N,N12*
G04 #@! TO.P,J4,11,11*
X49530000Y73660000D03*
G04 #@! TO.N,N52*
G04 #@! TO.P,J4,8,8*
X57150000Y73660000D03*
G04 #@! TO.N,N111*
G04 #@! TO.P,J4,4,4*
X67310000Y73660000D03*
G04 #@! TO.N,N46*
G04 #@! TO.P,J4,16,16*
X36830000Y73660000D03*
G04 #@! TO.N,N17*
G04 #@! TO.P,J4,7,7*
X59690000Y73660000D03*
G04 #@! TO.N,N110*
G04 #@! TO.P,J4,9,9*
X54610000Y73660000D03*
G04 #@! TO.N,N20*
G04 #@! TO.P,J4,5,5*
X64770000Y73660000D03*
G04 #@! TO.N,N96*
G04 #@! TO.P,J4,10,10*
X52070000Y73660000D03*
G04 #@! TO.N,N53*
G04 #@! TO.P,J4,3,3*
X69850000Y73660000D03*
G04 #@! TO.N,N84*
G04 #@! TO.P,J4,17,17*
X34290000Y73660000D03*
G04 #@! TO.N,N102*
G04 #@! TO.P,J4,6,6*
X62230000Y73660000D03*
G04 #@! TO.N,N48*
G04 #@! TO.P,J4,14,14*
X41910000Y73660000D03*
G04 #@! TO.N,N85*
G04 #@! TO.P,J4,15,15*
X39370000Y73660000D03*
G04 #@! TO.N,N18*
G04 #@! TO.P,J4,13,13*
X44450000Y73660000D03*
G04 #@! TO.N,N10*
G04 #@! TO.P,J4,2,2*
X72390000Y73660000D03*
G04 #@! TO.N,N81*
G04 #@! TO.P,J4,12,12*
X46990000Y73660000D03*
D11*
G04 #@! TO.N,N108*
G04 #@! TO.C,R42*
G04 #@! TO.P,R42,2,2*
X16990000Y18415000D03*
G04 #@! TO.N,N66*
G04 #@! TO.P,R42,1,1*
X19840000Y18415000D03*
D10*
G04 #@! TO.N,N8*
G04 #@! TO.C,R17*
G04 #@! TO.P,R17,2,2*
X78105000Y53495000D03*
G04 #@! TO.N,N21*
G04 #@! TO.P,R17,1,1*
X78105000Y50645000D03*
G04 #@! TO.N,N19*
G04 #@! TO.C,R40*
G04 #@! TO.P,R40,2,2*
X78105000Y25555000D03*
G04 #@! TO.N,N2*
G04 #@! TO.P,R40,1,1*
X78105000Y22705000D03*
G04 #@! TO.N,N66*
G04 #@! TO.C,C15*
G04 #@! TO.P,C15,2,2*
X36830000Y10005000D03*
G04 #@! TO.N,N56*
G04 #@! TO.P,C15,1,1*
X36830000Y12855000D03*
G04 #@! TO.N,N19*
G04 #@! TO.C,R38*
G04 #@! TO.P,R38,2,2*
X78105000Y57940000D03*
G04 #@! TO.N,N8*
G04 #@! TO.P,R38,1,1*
X78105000Y55090000D03*
D25*
G04 #@! TO.N,N16*
G04 #@! TO.C,R41*
G04 #@! TO.P,R41,2,2*
X11430000Y24470000D03*
G04 #@! TO.N,N95*
G04 #@! TO.P,R41,1,1*
X11430000Y22520000D03*
D11*
G04 #@! TO.N,N57*
G04 #@! TO.C,R57*
G04 #@! TO.P,R57,2,2*
X63345000Y10795000D03*
G04 #@! TO.N,N116*
G04 #@! TO.P,R57,1,1*
X66195000Y10795000D03*
G04 #@! TO.N,N107*
G04 #@! TO.C,R44*
G04 #@! TO.P,R44,2,2*
X36350000Y23495000D03*
G04 #@! TO.N,N66*
G04 #@! TO.P,R44,1,1*
X33500000Y23495000D03*
D16*
G04 #@! TO.N,N32*
G04 #@! TO.C,J3*
G04 #@! TO.P,J3,1,1*
X12065000Y76835000D03*
D17*
G04 #@! TO.N,N65*
G04 #@! TO.P,J3,7,7*
X27305000Y76835000D03*
G04 #@! TO.N,N4*
G04 #@! TO.P,J3,5,5*
X22225000Y76835000D03*
G04 #@! TO.N,N30*
G04 #@! TO.P,J3,2,2*
X14605000Y76835000D03*
G04 #@! TO.N,N44*
G04 #@! TO.P,J3,4,4*
X19685000Y76835000D03*
G04 #@! TO.N,N66*
G04 #@! TO.P,J3,6,6*
X24765000Y76835000D03*
G04 #@! TO.N,N59*
G04 #@! TO.P,J3,3,3*
X17145000Y76835000D03*
D23*
G04 #@! TO.N,N66*
G04 #@! TO.C,J7*
G04 #@! TO.P,J7,4,4*
X1905000Y19050000D03*
G04 #@! TO.N,N51*
G04 #@! TO.P,J7,2,2*
X1905000Y24130000D03*
G04 #@! TO.N,N13*
G04 #@! TO.P,J7,3,3*
X1905000Y21590000D03*
D24*
G04 #@! TO.N,N65*
G04 #@! TO.P,J7,1,1*
X1905000Y26670000D03*
D19*
G04 #@! TO.N,N66*
G04 #@! TO.C,C4*
G04 #@! TO.P,C4,-,-*
X14025000Y24765000D03*
G04 #@! TO.N,N39*
G04 #@! TO.P,C4,+,+*
X20265000Y24765000D03*
D10*
G04 #@! TO.N,N66*
G04 #@! TO.C,C1*
G04 #@! TO.P,C1,2,2*
X61595000Y17300000D03*
G04 #@! TO.N,N120*
G04 #@! TO.P,C1,1,1*
X61595000Y14450000D03*
D11*
G04 #@! TO.N,N66*
G04 #@! TO.C,C8*
G04 #@! TO.P,C8,2,2*
X46510000Y24130000D03*
G04 #@! TO.N,N65*
G04 #@! TO.P,C8,1,1*
X43660000Y24130000D03*
D28*
G04 #@! TD.C*
G04 #@! TD.P*
G04 #@! TO.N,N15*
X78105000Y42065000D02*
X78105000Y42545000D01*
X78105000Y43660000D02*
X78105000Y42545000D01*
X82550000Y42545000D02*
X78105000Y42545000D01*
G04 #@! TO.N,N2*
X80010000Y21590000D02*
X78105000Y21590000D01*
X80010000Y21590000D02*
X80010000Y19685000D01*
X82550000Y19685000D02*
X80010000Y19685000D01*
X78105000Y22705000D02*
X78105000Y21590000D01*
X78105000Y21110000D02*
X78105000Y21590000D01*
D29*
G04 #@! TO.N,N45*
X57785000Y15240000D03*
X54610000Y15240000D03*
D28*
X54864000Y13674999D02*
X54610000Y13674999D01*
X58920126Y16510000D02*
X57785000Y16510000D01*
D30*
X58920126Y18103850D02*
X58920126Y16510000D01*
D28*
X52705000Y13674999D02*
X54610000Y13674999D01*
X52705000Y15240000D02*
X52705000Y13674999D01*
X57785000Y15240000D02*
X57785000Y16510000D01*
X50745000Y15240000D02*
X52705000Y15240000D01*
X50745000Y15240000D02*
X50320000Y15240000D01*
X54610000Y15240000D02*
X54610000Y13674999D01*
X50320000Y11430000D02*
X50320000Y15240000D01*
G04 #@! TO.N,N95*
X11430000Y22520000D02*
X11430000Y21590000D01*
X13700000Y21270000D02*
X13700000Y21590000D01*
X13700000Y21590000D02*
X11430000Y21590000D01*
X8890000Y22380000D02*
X11430000Y22520000D01*
X6350000Y22380000D02*
X8890000Y22380000D01*
G04 #@! TO.N,N101*
X30226000Y23199999D02*
X30480000Y23199999D01*
X31115000Y23975000D02*
X31115000Y23199999D01*
X31115000Y23199999D02*
X30480000Y23199999D01*
X30480000Y23975000D02*
X30480000Y23199999D01*
X31115000Y23975000D02*
X30480000Y23975000D01*
D31*
G04 #@! TO.N,N19*
X82550000Y67945000D02*
X81280000Y67945000D01*
D28*
X82550000Y59055000D02*
X80010000Y59055000D01*
X78105000Y35080000D02*
X79375000Y34925000D01*
X76835000Y40640000D02*
X79375000Y40640000D01*
X79375000Y36195000D02*
X79375000Y34925000D01*
X78105000Y57940000D02*
X78105000Y57785000D01*
X79375000Y25555000D02*
X79375000Y29210000D01*
X80010000Y57785000D02*
X78105000Y57785000D01*
X82550000Y36195000D02*
X79375000Y36195000D01*
X78105000Y25555000D02*
X79375000Y25555000D01*
X78105000Y46510000D02*
X78105000Y47625000D01*
X80010000Y57785000D02*
X80010000Y59055000D01*
X78105000Y46510000D02*
X76835000Y46510000D01*
X79375000Y52070000D02*
X79375000Y49530000D01*
X76835000Y57785000D02*
X78105000Y57785000D01*
X79375000Y36195000D02*
X79375000Y40640000D01*
X78105000Y47625000D02*
X78105000Y49530000D01*
X76835000Y34925000D02*
X76835000Y29210000D01*
X76835000Y52070000D02*
X79375000Y52070000D01*
X79375000Y29210000D02*
X76835000Y29210000D01*
X76835000Y34925000D02*
X78105000Y34925000D01*
X82550000Y59055000D02*
X82550000Y67945000D01*
X82550000Y47625000D02*
X78105000Y47625000D01*
X79375000Y49530000D02*
X78105000Y49530000D01*
X76835000Y52070000D02*
X76835000Y57785000D01*
X78105000Y35080000D02*
X78105000Y34925000D01*
X76835000Y40640000D02*
X76835000Y46510000D01*
G04 #@! TO.N,N44*
X19685000Y76835000D02*
X19685000Y54610000D01*
X43815000Y48895000D02*
X43815000Y54610000D01*
X43815000Y54610000D02*
X19685000Y54610000D01*
G04 #@! TO.N,N22*
X56515000Y46990000D02*
X33655000Y46990000D01*
X52705000Y67945000D02*
X52705000Y51435000D01*
X33655000Y48895000D02*
X33655000Y46990000D01*
X52705000Y51435000D02*
X56515000Y51435000D01*
X50088800Y67945000D02*
X52705000Y67945000D01*
X56515000Y46990000D02*
X56515000Y51435000D01*
G04 #@! TO.N,N46*
X50088800Y57785000D02*
X36830000Y57785000D01*
X36830000Y73660000D02*
X36830000Y57785000D01*
G04 #@! TO.N,N111*
X59131200Y59055000D02*
X67310000Y59055000D01*
X67310000Y73660000D02*
X67310000Y59055000D01*
G04 #@! TO.N,N110*
X61595000Y70485000D02*
X61595000Y65405000D01*
X59131200Y65405000D02*
X61595000Y65405000D01*
X61595000Y70485000D02*
X54610000Y70485000D01*
X54610000Y73660000D02*
X54610000Y70485000D01*
D29*
G04 #@! TO.N,N14*
X41275000Y35560000D03*
X5080000Y10795000D03*
D28*
X41275000Y29210000D02*
X45720000Y29210000D01*
X1905000Y10795000D02*
X5080000Y10795000D01*
D30*
X57919874Y22536150D02*
X57919874Y26670000D01*
D28*
X45720000Y26670000D02*
X57919874Y26670000D01*
X45720000Y26670000D02*
X45720000Y29210000D01*
X41275000Y31115000D02*
X41275000Y29210000D01*
X41275000Y31115000D02*
X41275000Y35560000D01*
G04 #@! TO.N,N85*
X50088800Y59055000D02*
X39370000Y59055000D01*
X39370000Y73660000D02*
X39370000Y73025000D01*
X39370000Y59055000D02*
X39370000Y73025000D01*
G04 #@! TO.N,N113*
X68215000Y10480000D02*
X68215000Y10160000D01*
X75565000Y9370000D02*
X75565000Y9525000D01*
X70485000Y9230000D02*
X70485000Y10160000D01*
X68215000Y10160000D02*
X70485000Y10160000D01*
X73025000Y9370000D02*
X73025000Y9525000D01*
X73025000Y9525000D02*
X75565000Y9525000D01*
X70485000Y9230000D02*
X73025000Y9230000D01*
X73025000Y9370000D02*
X73025000Y9230000D01*
G04 #@! TO.N,N115*
X68215000Y12380000D02*
X67945000Y12380000D01*
X69215000Y16665000D02*
X70485000Y16665000D01*
X70485000Y17780000D02*
X67945000Y17780000D01*
X71755000Y16665000D02*
X70485000Y16665000D01*
X67945000Y17780000D02*
X67945000Y12380000D01*
X70485000Y16665000D02*
X70485000Y17780000D01*
G04 #@! TO.N,N102*
X62230000Y73660000D02*
X63500000Y73660000D01*
X63500000Y61595000D02*
X63500000Y73660000D01*
X59131200Y61595000D02*
X63500000Y61595000D01*
D31*
G04 #@! TO.N,N54*
X93345000Y45085000D02*
X93345000Y88900000D01*
X93345000Y88900000D02*
X80010000Y88900000D01*
X82550000Y45085000D02*
X93345000Y45085000D01*
X80010000Y85725000D02*
X80010000Y88900000D01*
D28*
G04 #@! TO.N,N23*
X57150000Y46355000D02*
X57150000Y52070000D01*
X31115000Y46355000D02*
X57150000Y46355000D01*
X53340000Y52070000D02*
X57150000Y52070000D01*
X31115000Y48895000D02*
X31115000Y46355000D01*
X53340000Y52070000D02*
X53340000Y69215000D01*
X50088800Y69215000D02*
X53340000Y69215000D01*
D29*
G04 #@! TO.N,N51*
X13970000Y34290000D03*
X46355000Y34290000D03*
D28*
X1905000Y24130000D02*
X1905000Y25400000D01*
X1905000Y25400000D02*
X3810000Y25400000D01*
X13970000Y34290000D02*
X3810000Y34290000D01*
X3810000Y25400000D02*
X3810000Y34290000D01*
X46355000Y31115000D02*
X46355000Y34290000D01*
D31*
G04 #@! TO.N,N50*
X82550000Y33655000D02*
X95885000Y33655000D01*
X70485000Y85725000D02*
X70485000Y91440000D01*
X95885000Y91440000D02*
X95885000Y33655000D01*
X95885000Y91440000D02*
X70485000Y91440000D01*
D28*
G04 #@! TO.N,N66*
X74930000Y76200000D02*
X74930000Y76835000D01*
D31*
G04 #@! TO.N,N/C*
X78105000Y79375000D02*
X46990000Y79375000D01*
X78105000Y79375000D02*
X78105000Y67945000D01*
X8255000Y95885000D02*
X12255000Y95885000D01*
D28*
X12255000Y95250000D02*
X12255000Y95885000D01*
D31*
X8255000Y81915000D02*
X8255000Y95885000D01*
X8255000Y81915000D02*
X46990000Y81915000D01*
X46990000Y81915000D02*
X46990000Y79375000D01*
X81725000Y67945000D02*
X78105000Y67945000D01*
D28*
G04 #@! TO.N,N108*
X20955000Y17145000D02*
X20955000Y22550001D01*
X16990000Y20955000D02*
X16990000Y19685000D01*
X16990000Y19685000D02*
X15875000Y19685000D01*
X15875000Y19685000D02*
X15875000Y17145000D01*
X15875000Y17145000D02*
X20955000Y17145000D01*
X16990000Y18415000D02*
X16990000Y19685000D01*
X24384000Y22550001D02*
X20955000Y22550001D01*
G04 #@! TO.N,N11*
X74930000Y76835000D02*
X74930000Y73660000D01*
X54610000Y76835000D02*
X52070000Y76835000D01*
X41910000Y76835000D02*
X39370000Y76835000D01*
X67310000Y76835000D02*
X64770000Y76835000D01*
X49530000Y76835000D02*
X46990000Y76835000D01*
X57150000Y76835000D02*
X59690000Y76835000D01*
X36830000Y76835000D02*
X34290000Y76835000D01*
X64770000Y76835000D02*
X62230000Y76835000D01*
X74930000Y76835000D02*
X72390000Y76835000D01*
X49530000Y76835000D02*
X52070000Y76835000D01*
X41910000Y76835000D02*
X44450000Y76835000D01*
X36830000Y76835000D02*
X39370000Y76835000D01*
X67310000Y76835000D02*
X69850000Y76835000D01*
X69850000Y76835000D02*
X72390000Y76835000D01*
X57150000Y76835000D02*
X54610000Y76835000D01*
X59690000Y76835000D02*
X62230000Y76835000D01*
X44450000Y76835000D02*
X46990000Y76835000D01*
G04 #@! TO.N,N17*
X62865000Y71755000D02*
X59690000Y71755000D01*
X59131200Y62865000D02*
X62865000Y62865000D01*
X59690000Y73660000D02*
X59690000Y71755000D01*
X62865000Y71755000D02*
X62865000Y62865000D01*
D29*
G04 #@! TO.N,N65*
X71755000Y17780000D03*
X43815000Y26035000D03*
X78740000Y15875000D03*
X73505000Y15875000D03*
D28*
X6985000Y79375000D02*
X27305000Y79375000D01*
X1905000Y26670000D02*
X1905000Y39370000D01*
X1905000Y13335000D02*
X8255000Y13335000D01*
X53975000Y20955000D02*
X58420000Y20955000D01*
X50088800Y55245000D02*
X48260000Y55245000D01*
X73505000Y13970000D02*
X73505000Y12220000D01*
X8410000Y17780000D02*
X8890000Y17935000D01*
X1905000Y26670000D02*
X0Y26670000D01*
X1905000Y39370000D02*
X15875000Y39370000D01*
X73505000Y13970000D02*
X71755000Y13970000D01*
X41910000Y23975000D02*
X43660000Y24130000D01*
X30480000Y79375000D02*
X27305000Y79375000D01*
X6985000Y75565000D02*
X1905000Y75565000D01*
X43815000Y25400000D02*
X53975000Y25400000D01*
X0Y2540000D02*
X54610000Y2540000D01*
X10160000Y17935000D02*
X8890000Y17935000D01*
X15875000Y31115000D02*
X15875000Y39370000D01*
X43660000Y24130000D02*
X43180000Y23975000D01*
X1905000Y39370000D02*
X1905000Y75565000D01*
X8890000Y19530000D02*
X8410000Y17780000D01*
X6985000Y79375000D02*
X6985000Y75565000D01*
X78740000Y15875000D02*
X78740000Y3810000D01*
X53975000Y21745000D02*
X53975000Y25400000D01*
X1905000Y13335000D02*
X0Y13335000D01*
X73505000Y15875000D02*
X73505000Y17780000D01*
X43660000Y24130000D02*
X43815000Y24130000D01*
X71755000Y13815000D02*
X71755000Y13970000D01*
X43815000Y24130000D02*
X43815000Y25400000D01*
X71755000Y17780000D02*
X73505000Y17780000D01*
X78740000Y3810000D02*
X54610000Y3810000D01*
X48260000Y55880000D02*
X30480000Y55880000D01*
X0Y13335000D02*
X0Y26670000D01*
X73505000Y13970000D02*
X73505000Y15875000D01*
X43180000Y22380000D02*
X43180000Y23975000D01*
X15875000Y31115000D02*
X16510000Y31115000D01*
X43815000Y26035000D02*
X43815000Y25400000D01*
X0Y2540000D02*
X0Y13335000D01*
X27305000Y76835000D02*
X27305000Y79375000D01*
X73025000Y12220000D02*
X73505000Y12220000D01*
X30480000Y79375000D02*
X30480000Y55880000D01*
X48260000Y55880000D02*
X48260000Y55245000D01*
X53975000Y21745000D02*
X53975000Y20955000D01*
X8255000Y13335000D02*
X8255000Y17780000D01*
X54610000Y2540000D02*
X54610000Y3810000D01*
X58420000Y22536150D02*
X58420000Y20955000D01*
X8410000Y17780000D02*
X8255000Y17780000D01*
G04 #@! TO.N,N52*
X62230000Y71120000D02*
X62230000Y64135000D01*
X57150000Y73660000D02*
X57150000Y71120000D01*
X59131200Y64135000D02*
X62230000Y64135000D01*
X62230000Y71120000D02*
X57150000Y71120000D01*
G04 #@! TO.N,N84*
X50088800Y56515000D02*
X34290000Y56515000D01*
X34290000Y73660000D02*
X34290000Y56515000D01*
D29*
G04 #@! TO.N,N25*
X38100000Y38100000D03*
X3810000Y8255000D03*
D28*
X1905000Y8255000D02*
X3810000Y8255000D01*
X45085000Y26035000D02*
X57419748Y26035000D01*
D30*
X57419748Y22536150D02*
X57419748Y26035000D01*
D28*
X38100000Y38100000D02*
X38735000Y38100000D01*
X38735000Y31115000D02*
X38735000Y28575000D01*
X38735000Y31115000D02*
X38735000Y38100000D01*
X45085000Y26035000D02*
X45085000Y28575000D01*
X45085000Y28575000D02*
X38735000Y28575000D01*
D29*
G04 #@! TO.N,N1*
X67945000Y39370000D03*
X53340000Y39370000D03*
D28*
X7620000Y40640000D02*
X7620000Y48895000D01*
X53340000Y39370000D02*
X40640000Y39370000D01*
X40640000Y42545000D02*
X40640000Y39370000D01*
X29210000Y40640000D02*
X29210000Y42545000D01*
X40640000Y42545000D02*
X29210000Y42545000D01*
X8255000Y48895000D02*
X7620000Y48895000D01*
X29210000Y40640000D02*
X7620000Y40640000D01*
X70485000Y39370000D02*
X67945000Y39370000D01*
D29*
G04 #@! TO.N,N67*
X53340000Y36830000D03*
X66675000Y29210000D03*
D28*
X70485000Y29210000D02*
X66675000Y29210000D01*
X53340000Y36830000D02*
X39370000Y36830000D01*
X39370000Y41275000D02*
X30480000Y41275000D01*
X33655000Y31115000D02*
X33655000Y33020000D01*
X30480000Y33020000D02*
X33655000Y33020000D01*
X30480000Y33020000D02*
X30480000Y41275000D01*
X39370000Y41275000D02*
X39370000Y36830000D01*
G04 #@! TO.N,N116*
X59055000Y12374999D02*
X59055000Y15875000D01*
X60706000Y12374999D02*
X59055000Y12374999D01*
X66195000Y13335000D02*
X66195000Y10795000D01*
X59055000Y15875000D02*
X66195000Y15875000D01*
X66195000Y13335000D02*
X66195000Y15875000D01*
G04 #@! TO.N,N58*
X57785000Y45720000D02*
X28575000Y45720000D01*
X57785000Y52705000D02*
X56515000Y52705000D01*
X56515000Y67945000D02*
X56515000Y52705000D01*
X57785000Y45720000D02*
X57785000Y52705000D01*
X28575000Y48895000D02*
X28575000Y45720000D01*
X59131200Y67945000D02*
X56515000Y67945000D01*
G04 #@! TO.N,N81*
X46990000Y73660000D02*
X45720000Y73660000D01*
X50088800Y62865000D02*
X45720000Y62865000D01*
X45720000Y62865000D02*
X45720000Y73660000D01*
G04 #@! TO.N,N69*
X18415000Y48895000D02*
X18415000Y43815000D01*
X64135000Y43815000D02*
X18415000Y43815000D01*
X75565000Y46990000D02*
X75565000Y39370000D01*
X75565000Y46990000D02*
X64135000Y46990000D01*
X78105000Y39215000D02*
X78105000Y39370000D01*
X78105000Y39370000D02*
X75565000Y39370000D01*
X64135000Y43815000D02*
X64135000Y46990000D01*
G04 #@! TO.N,N53*
X69850000Y73660000D02*
X69850000Y57785000D01*
X59131200Y57785000D02*
X69850000Y57785000D01*
G04 #@! TO.N,N65*
X38735000Y5080000D02*
X38735000Y6350000D01*
X38890000Y8255000D02*
X39370000Y8255000D01*
X38890000Y8255000D02*
X38735000Y8255000D01*
X38890000Y8255000D02*
X38890000Y6350000D01*
X38890000Y6350000D02*
X38735000Y6350000D01*
X39370000Y8255000D02*
X40640000Y8255000D01*
X40640000Y8410000D02*
X40640000Y8255000D01*
X38735000Y6350000D02*
X38735000Y8255000D01*
X39370000Y10005000D02*
X39370000Y8255000D01*
D31*
G04 #@! TO.N,N93*
X90170000Y56515000D02*
X90170000Y85725000D01*
X90170000Y85725000D02*
X89535000Y85725000D01*
X82550000Y56515000D02*
X90170000Y56515000D01*
D28*
G04 #@! TO.N,N42*
X64770000Y46355000D02*
X74930000Y46355000D01*
X15875000Y48895000D02*
X15875000Y43180000D01*
X78105000Y27940000D02*
X74930000Y27940000D01*
X78105000Y27785000D02*
X78105000Y27940000D01*
X64770000Y43180000D02*
X15875000Y43180000D01*
X64770000Y43180000D02*
X64770000Y46355000D01*
X74930000Y46355000D02*
X74930000Y27940000D01*
G04 #@! TO.N,N4*
X22225000Y76835000D02*
X22225000Y55245000D01*
X46355000Y48895000D02*
X46355000Y55245000D01*
X22225000Y55245000D02*
X46355000Y55245000D01*
G04 #@! TO.N,N9*
X82550000Y31115000D02*
X78105000Y31115000D01*
X78105000Y32230000D02*
X78105000Y31115000D01*
X78105000Y30635000D02*
X78105000Y31115000D01*
G04 #@! TO.N,N106*
X47470000Y11430000D02*
X47470000Y10160000D01*
X47470000Y10160000D02*
X46355000Y10160000D01*
X52705000Y12700000D02*
X52705000Y13025001D01*
X47470000Y8890000D02*
X47470000Y10160000D01*
X46355000Y7620000D02*
X51435000Y7620000D01*
X52705000Y12700000D02*
X51435000Y12700000D01*
X51435000Y7620000D02*
X51435000Y12700000D01*
X54864000Y13025001D02*
X52705000Y13025001D01*
X46355000Y7620000D02*
X46355000Y10160000D01*
G04 #@! TO.N,N109*
X38100000Y22540000D02*
X38100000Y27940000D01*
X39370000Y26825000D02*
X39370000Y27940000D01*
X39370000Y27940000D02*
X41910000Y27940000D01*
X41910000Y26825000D02*
X41910000Y27940000D01*
X38370000Y22540000D02*
X38100000Y22540000D01*
X39370000Y27940000D02*
X38100000Y27940000D01*
G04 #@! TO.N,N55*
X28575000Y15240000D02*
X28575000Y15240000D01*
X19685000Y10160000D02*
X19685000Y15240000D01*
X28575000Y15240000D02*
X40640000Y15240000D01*
X19685000Y15240000D02*
X28575000Y15240000D01*
X28575000Y15240000D02*
X28575000Y21250001D01*
X40640000Y17440000D02*
X40640000Y15240000D01*
X30226000Y21250001D02*
X28575000Y21250001D01*
D29*
G04 #@! TO.N,N60*
X53975000Y32385000D03*
X9525000Y29210000D03*
D28*
X8255000Y28095000D02*
X8255000Y29210000D01*
X9525000Y29210000D02*
X8255000Y29210000D01*
X8255000Y29210000D02*
X5715000Y29210000D01*
X5715000Y28095000D02*
X5715000Y29210000D01*
X53975000Y31115000D02*
X53975000Y32385000D01*
G04 #@! TO.N,N56*
X41910000Y12995000D02*
X39370000Y12700000D01*
X44180000Y12065000D02*
X41910000Y12065000D01*
X41910000Y12995000D02*
X41910000Y12065000D01*
X44180000Y11745000D02*
X44180000Y12065000D01*
X39370000Y12855000D02*
X36830000Y12855000D01*
X39370000Y12855000D02*
X39370000Y12700000D01*
D29*
G04 #@! TO.N,N3*
X41910000Y41910000D03*
X27940000Y41910000D03*
D28*
X27940000Y41910000D02*
X13335000Y41910000D01*
X74295000Y45720000D02*
X65405000Y45720000D01*
X41910000Y41910000D02*
X41910000Y42545000D01*
X13335000Y48895000D02*
X13335000Y41910000D01*
X41910000Y42545000D02*
X65405000Y42545000D01*
X78105000Y18260000D02*
X78105000Y19685000D01*
X74295000Y19685000D02*
X78105000Y19685000D01*
X65405000Y45720000D02*
X65405000Y42545000D01*
X74295000Y19685000D02*
X74295000Y45720000D01*
D29*
G04 #@! TO.N,N39*
X26035000Y27940000D03*
X24765000Y24765000D03*
D28*
X24765000Y24765000D02*
X22225000Y24765000D01*
X26035000Y31115000D02*
X26035000Y27940000D01*
X20265000Y24765000D02*
X19840000Y24765000D01*
X22225000Y23199999D02*
X22225000Y24765000D01*
X20265000Y24765000D02*
X22225000Y24765000D01*
X19840000Y20955000D02*
X19840000Y24765000D01*
X24384000Y23199999D02*
X22225000Y23199999D01*
G04 #@! TO.N,N98*
X56515000Y6350000D02*
X56515000Y12374999D01*
X45085000Y3810000D02*
X45085000Y6350000D01*
X54864000Y12374999D02*
X56515000Y12374999D01*
X41910000Y17145000D02*
X56515000Y17145000D01*
X56515000Y6350000D02*
X45085000Y6350000D01*
X29845000Y3810000D02*
X45085000Y3810000D01*
X29845000Y10160000D02*
X29845000Y3810000D01*
X56515000Y17145000D02*
X56515000Y12374999D01*
X41910000Y14945000D02*
X41910000Y17145000D01*
D29*
G04 #@! TO.N,N65*
X87630000Y36195000D03*
X85725000Y59055000D03*
X87630000Y24765000D03*
X87630000Y47625000D03*
D31*
X85725000Y59055000D02*
X82550000Y59055000D01*
X87630000Y36195000D02*
X82550000Y36195000D01*
X87630000Y47625000D02*
X82550000Y47625000D01*
X85725000Y59055000D02*
X85725000Y67945000D01*
X81915000Y67945000D02*
X85725000Y67945000D01*
X87630000Y24765000D02*
X87630000Y24765000D01*
X82550000Y24765000D02*
X87630000Y24765000D01*
D28*
G04 #@! TO.N,N13*
X5715000Y24765000D02*
X3810000Y24765000D01*
X1905000Y21590000D02*
X3810000Y21590000D01*
X3810000Y21590000D02*
X3810000Y24765000D01*
X5715000Y25245000D02*
X5715000Y24765000D01*
G04 #@! TO.N,N48*
X50088800Y60325000D02*
X41910000Y60325000D01*
X41910000Y73660000D02*
X41910000Y60325000D01*
G04 #@! TO.N,N10*
X59131200Y56515000D02*
X72390000Y56515000D01*
X72390000Y73660000D02*
X72390000Y56515000D01*
G04 #@! TO.N,N21*
X20955000Y48895000D02*
X20955000Y44450000D01*
X63500000Y44450000D02*
X63500000Y47625000D01*
X78105000Y50645000D02*
X78105000Y50800000D01*
X63500000Y44450000D02*
X20955000Y44450000D01*
X78105000Y50800000D02*
X76835000Y50800000D01*
X76835000Y47625000D02*
X76835000Y50800000D01*
X76835000Y47625000D02*
X63500000Y47625000D01*
D29*
G04 #@! TO.N,N43*
X28575000Y27940000D03*
X29845000Y20320000D03*
D28*
X31805000Y22550001D02*
X31805000Y20320000D01*
X31805000Y17145000D02*
X33500000Y17145000D01*
X33500000Y20955000D02*
X33500000Y17145000D01*
X28575000Y31115000D02*
X28575000Y27940000D01*
X30226000Y22550001D02*
X31805000Y22550001D01*
X29845000Y20320000D02*
X31805000Y20320000D01*
X31805000Y17145000D02*
X31805000Y20320000D01*
D31*
G04 #@! TO.N,N75*
X98425000Y93980000D02*
X98425000Y22225000D01*
X60325000Y85725000D02*
X60325000Y93980000D01*
X98425000Y93980000D02*
X60325000Y93980000D01*
X82550000Y22225000D02*
X98425000Y22225000D01*
D28*
G04 #@! TO.N,N16*
X14605000Y10160000D02*
X14605000Y15875000D01*
X26035000Y26670000D02*
X26035000Y21899999D01*
X14605000Y15875000D02*
X26035000Y15875000D01*
X26035000Y15875000D02*
X26035000Y21899999D01*
X11430000Y24470000D02*
X11430000Y26670000D01*
X11430000Y26670000D02*
X26035000Y26670000D01*
X24384000Y21899999D02*
X26035000Y21899999D01*
G04 #@! TO.N,N72*
X70485000Y7280000D02*
X70485000Y5080000D01*
X59055000Y5080000D02*
X59055000Y5715000D01*
X45720000Y5715000D02*
X59055000Y5715000D01*
X24765000Y3175000D02*
X45720000Y3175000D01*
X45720000Y5715000D02*
X45720000Y3175000D01*
X59055000Y11725001D02*
X59055000Y5715000D01*
X24765000Y10160000D02*
X24765000Y3175000D01*
X59055000Y5080000D02*
X70485000Y5080000D01*
X60706000Y11725001D02*
X59055000Y11725001D01*
G04 #@! TO.N,N107*
X30226000Y21899999D02*
X28575000Y21899999D01*
X37465000Y22225000D02*
X37465000Y24765000D01*
X36350000Y23495000D02*
X36350000Y22225000D01*
X28575000Y21899999D02*
X28575000Y25400000D01*
X37465000Y24765000D02*
X33020000Y24765000D01*
X37465000Y22225000D02*
X36350000Y22225000D01*
X33020000Y25400000D02*
X33020000Y24765000D01*
X33020000Y25400000D02*
X28575000Y25400000D01*
X36350000Y20955000D02*
X36350000Y22225000D01*
G04 #@! TO.N,N120*
X60706000Y13674999D02*
X61595000Y13674999D01*
X60706000Y13674999D02*
X60706000Y14450000D01*
X61595000Y14450000D02*
X60706000Y14450000D01*
X61595000Y14450000D02*
X61595000Y13674999D01*
G04 #@! TO.N,N7*
X58420000Y45085000D02*
X58420000Y53340000D01*
X57150000Y53340000D02*
X58420000Y53340000D01*
X26035000Y48895000D02*
X26035000Y45085000D01*
X57150000Y66675000D02*
X57150000Y53340000D01*
X59131200Y66675000D02*
X57150000Y66675000D01*
X26035000Y45085000D02*
X58420000Y45085000D01*
G04 #@! TO.N,N18*
X50088800Y61595000D02*
X44450000Y61595000D01*
X44450000Y73660000D02*
X44450000Y61595000D01*
D29*
G04 #@! TO.N,N70*
X51435000Y52705000D03*
X61595000Y55245000D03*
D28*
X51435000Y48895000D02*
X51435000Y52705000D01*
X59131200Y55245000D02*
X61595000Y55245000D01*
G04 #@! TO.N,N12*
X50088800Y64135000D02*
X46355000Y64135000D01*
X49530000Y73660000D02*
X49530000Y71755000D01*
X46355000Y71755000D02*
X46355000Y64135000D01*
X46355000Y71755000D02*
X49530000Y71755000D01*
G04 #@! TO.N,N32*
X53975000Y48895000D02*
X53975000Y47625000D01*
X37465000Y52705000D02*
X37465000Y47625000D01*
X53975000Y47625000D02*
X37465000Y47625000D01*
X12065000Y76835000D02*
X12065000Y52705000D01*
X12065000Y52705000D02*
X37465000Y52705000D01*
G04 #@! TO.N,N104*
X38370000Y20640000D02*
X38370000Y20320000D01*
X43180000Y19530000D02*
X40640000Y19390000D01*
X43180000Y19530000D02*
X45720000Y19530000D01*
X40640000Y20320000D02*
X38370000Y20320000D01*
X40640000Y19390000D02*
X40640000Y20320000D01*
D29*
G04 #@! TO.N,N66*
X33020000Y40005000D03*
X39370000Y25400000D03*
X48895000Y8890000D03*
X24130000Y17145000D03*
X69215000Y15240000D03*
X22225000Y13335000D03*
X34925000Y23495000D03*
X36195000Y26035000D03*
X48895000Y50800000D03*
X54610000Y7620000D03*
X55880000Y2540000D03*
X36195000Y50800000D03*
X43180000Y6985000D03*
X69215000Y19685000D03*
X18415000Y18415000D03*
X22225000Y27940000D03*
D28*
X43180000Y8410000D02*
X43180000Y10795000D01*
X76200000Y16510000D02*
X76200000Y18415000D01*
X73025000Y18415000D02*
X73025000Y26670000D01*
X12700000Y23495000D02*
X5080000Y23495000D01*
X64770000Y13335000D02*
X64770000Y8890000D01*
X76835000Y10795000D02*
X75565000Y10795000D01*
X35560000Y13970000D02*
X35560000Y11430000D01*
X8255000Y24130000D02*
X9525000Y24130000D01*
X50320000Y8890000D02*
X48895000Y8890000D01*
X15875000Y22860000D02*
X15875000Y24765000D01*
X35560000Y13970000D02*
X44505000Y13970000D01*
X69215000Y19685000D02*
X69215000Y22860000D01*
X9525000Y24130000D02*
X9525000Y27940000D01*
X39370000Y25400000D02*
X39370000Y24130000D01*
X77470000Y16510000D02*
X77470000Y13970000D01*
X22225000Y10160000D02*
X22225000Y13335000D01*
X8255000Y25245000D02*
X8255000Y24130000D01*
X33500000Y23495000D02*
X34925000Y23495000D01*
X15875000Y22860000D02*
X18415000Y22860000D01*
X67310000Y8890000D02*
X67310000Y11430000D01*
X32385000Y10160000D02*
X34925000Y10160000D01*
X14605000Y20320000D02*
X14605000Y22860000D01*
X67890000Y8255000D02*
X76835000Y8255000D01*
X45720000Y20955000D02*
X41910000Y20955000D01*
X48895000Y31115000D02*
X48895000Y36195000D01*
X42180000Y10795000D02*
X43180000Y10795000D01*
X11430000Y52070000D02*
X23495000Y52070000D01*
X53975000Y18895000D02*
X53975000Y19685000D01*
X5560000Y17780000D02*
X6350000Y17780000D01*
X64770000Y36195000D02*
X64770000Y26670000D01*
X75720000Y12220000D02*
X75720000Y13970000D01*
X59420252Y22536150D02*
X59055000Y22536150D01*
X10795000Y31115000D02*
X10795000Y27940000D01*
X48260000Y18415000D02*
X48260000Y24130000D01*
X23495000Y31115000D02*
X23495000Y27940000D01*
X57419748Y18103850D02*
X57419748Y19685000D01*
X9525000Y27940000D02*
X10795000Y27940000D01*
X35545000Y36881000D02*
X35545000Y36830000D01*
X53340000Y69850000D02*
X56515000Y69850000D01*
X77470000Y16510000D02*
X76200000Y16510000D01*
X40370000Y21590000D02*
X37465000Y21590000D01*
X66040000Y8890000D02*
X64770000Y8890000D01*
X53340000Y69850000D02*
X48260000Y69850000D01*
X48260000Y18415000D02*
X53975000Y18415000D01*
X48895000Y36195000D02*
X64770000Y36195000D01*
X10160000Y19050000D02*
X11430000Y19050000D01*
X66040000Y6985000D02*
X66040000Y8890000D01*
X36195000Y31115000D02*
X37465000Y31115000D01*
X53975000Y19685000D02*
X57419748Y19685000D01*
X63345000Y13335000D02*
X64770000Y13335000D01*
X10795000Y52070000D02*
X11430000Y52070000D01*
X46355000Y13335000D02*
X45085000Y13335000D01*
X64770000Y22860000D02*
X64770000Y22536150D01*
X37465000Y21590000D02*
X37465000Y19050000D01*
X50088800Y66675000D02*
X48260000Y66675000D01*
X24384000Y21250001D02*
X24384000Y20360000D01*
X38045000Y18415000D02*
X46990000Y18415000D01*
X50088800Y66675000D02*
X52070000Y66675000D01*
X59420252Y22536150D02*
X59420252Y19685000D01*
X27305000Y10160000D02*
X27305000Y13335000D01*
X58420000Y19685000D02*
X57419748Y19685000D01*
X34925000Y19050000D02*
X36195000Y19050000D01*
X31115000Y26825000D02*
X36195000Y26825000D01*
X36195000Y52070000D02*
X23495000Y52070000D01*
X54864000Y11725001D02*
X54610000Y11725001D01*
X5080000Y20955000D02*
X5080000Y23495000D01*
X48895000Y8890000D02*
X48895000Y13335000D01*
X77470000Y12220000D02*
X75720000Y12220000D01*
X17145000Y10160000D02*
X17145000Y8255000D01*
X24384000Y20360000D02*
X24130000Y20360000D01*
X72390000Y31750000D02*
X72390000Y26670000D01*
X76355000Y13970000D02*
X77470000Y13970000D01*
X22225000Y10160000D02*
X22225000Y8255000D01*
X70485000Y11430000D02*
X70485000Y15240000D01*
X38045000Y17145000D02*
X36195000Y17145000D01*
X54610000Y7620000D02*
X54610000Y8215000D01*
X53340000Y10835000D02*
X53340000Y11725001D01*
X10160000Y19050000D02*
X10160000Y20955000D01*
X36040000Y8255000D02*
X34925000Y8255000D01*
X24130000Y17145000D02*
X24130000Y17740000D01*
X36195000Y26035000D02*
X36195000Y26825000D01*
X6350000Y19530000D02*
X6350000Y20955000D01*
X10160000Y73660000D02*
X10160000Y78740000D01*
X73025000Y18415000D02*
X76200000Y18415000D01*
X5560000Y17780000D02*
X4445000Y17780000D01*
X41910000Y20955000D02*
X41910000Y22860000D01*
X11700000Y20320000D02*
X14605000Y20320000D01*
X48895000Y48895000D02*
X48895000Y50800000D01*
X43180000Y8410000D02*
X43180000Y6985000D01*
X36195000Y50800000D02*
X36195000Y52070000D01*
X24130000Y17740000D02*
X24130000Y20360000D01*
X36040000Y8255000D02*
X36830000Y8255000D01*
X45720000Y22380000D02*
X45720000Y24130000D01*
X58420000Y18103850D02*
X58420000Y19685000D01*
X64770000Y22860000D02*
X64770000Y26670000D01*
X67890000Y6985000D02*
X67890000Y8255000D01*
X22860000Y20360000D02*
X22860000Y21250001D01*
X58920126Y22536150D02*
X59055000Y22536150D01*
X6350000Y20955000D02*
X10160000Y20955000D01*
X61595000Y22536150D02*
X64770000Y22536150D01*
X34925000Y8255000D02*
X34925000Y10160000D01*
X22225000Y13335000D02*
X27305000Y13335000D01*
X19840000Y18415000D02*
X18415000Y18415000D01*
X53340000Y8215000D02*
X54610000Y8215000D01*
X36195000Y31115000D02*
X36195000Y26825000D01*
X44505000Y15240000D02*
X44505000Y13970000D01*
X70485000Y41910000D02*
X72390000Y41910000D01*
X70215000Y11430000D02*
X67310000Y11430000D01*
X14025000Y24765000D02*
X15875000Y24765000D01*
X18415000Y18415000D02*
X18415000Y22860000D01*
X45720000Y20955000D02*
X46990000Y20955000D01*
X61595000Y17300000D02*
X61595000Y22536150D01*
X64770000Y26670000D02*
X72390000Y26670000D01*
X80010000Y17145000D02*
X80010000Y2540000D01*
X43180000Y10795000D02*
X45085000Y10795000D01*
X70485000Y31750000D02*
X72390000Y31750000D01*
X52070000Y53975000D02*
X48895000Y53975000D01*
X4445000Y19050000D02*
X4445000Y24130000D01*
X17145000Y8255000D02*
X22225000Y8255000D01*
X48895000Y50800000D02*
X48895000Y53975000D01*
X67310000Y8890000D02*
X66040000Y8890000D01*
X53975000Y18895000D02*
X53975000Y18415000D01*
X59055000Y19685000D02*
X59055000Y22536150D01*
X53340000Y10835000D02*
X54610000Y10835000D01*
X1905000Y15875000D02*
X4445000Y15875000D01*
X6350000Y19530000D02*
X6350000Y17780000D01*
X10160000Y78740000D02*
X24765000Y78740000D01*
X69215000Y15240000D02*
X70485000Y15240000D01*
X54610000Y11725001D02*
X54610000Y10835000D01*
X22860000Y17740000D02*
X24130000Y17740000D01*
X22860000Y20360000D02*
X24130000Y20360000D01*
X15875000Y22860000D02*
X14605000Y22860000D01*
X4445000Y19050000D02*
X4445000Y17780000D01*
X36195000Y48895000D02*
X36195000Y50800000D01*
X59420252Y22536150D02*
X61595000Y22536150D01*
X46355000Y13335000D02*
X48895000Y13335000D01*
X12700000Y24765000D02*
X12700000Y23495000D01*
X72390000Y41910000D02*
X72390000Y36830000D01*
X76355000Y13970000D02*
X75720000Y13970000D01*
X4445000Y15875000D02*
X4445000Y17780000D01*
X22225000Y27940000D02*
X23495000Y27940000D01*
X46510000Y24130000D02*
X45720000Y24130000D01*
X69215000Y13815000D02*
X69215000Y15240000D01*
X10160000Y73660000D02*
X11430000Y73660000D01*
X36830000Y10005000D02*
X36830000Y11430000D01*
X10795000Y48895000D02*
X10795000Y52070000D01*
X70485000Y36830000D02*
X72390000Y36830000D01*
X11430000Y52070000D02*
X11430000Y73660000D01*
X40640000Y24130000D02*
X40640000Y22860000D01*
X52070000Y53975000D02*
X52070000Y66675000D01*
X24384000Y21250001D02*
X22860000Y21250001D01*
X35545000Y36830000D02*
X37465000Y36830000D01*
X5080000Y20955000D02*
X6350000Y20955000D01*
X46990000Y20955000D02*
X46990000Y18415000D01*
X37465000Y36830000D02*
X37465000Y31115000D01*
X80010000Y17145000D02*
X77470000Y17145000D01*
X32385000Y13335000D02*
X27305000Y13335000D01*
X45085000Y13335000D02*
X45085000Y10795000D01*
X24765000Y76835000D02*
X24765000Y78740000D01*
X46355000Y15240000D02*
X46355000Y13335000D01*
X59131200Y69215000D02*
X56515000Y69215000D01*
X53340000Y11725001D02*
X54610000Y11725001D01*
X14025000Y24765000D02*
X12700000Y24765000D01*
X54610000Y10835000D02*
X54610000Y8215000D01*
X38045000Y17145000D02*
X38045000Y18415000D01*
X75565000Y12220000D02*
X75565000Y10795000D01*
X33020000Y40005000D02*
X33020000Y36881000D01*
X77470000Y16510000D02*
X77470000Y17145000D01*
X69215000Y22860000D02*
X64770000Y22860000D01*
X11430000Y17935000D02*
X11430000Y19050000D01*
X40640000Y24130000D02*
X39370000Y24130000D01*
X36195000Y19050000D02*
X36195000Y17145000D01*
X48260000Y66675000D02*
X48260000Y69850000D01*
X45720000Y22380000D02*
X45720000Y20955000D01*
X36830000Y10005000D02*
X36830000Y8255000D01*
X39370000Y23975000D02*
X39370000Y24130000D01*
X56515000Y69215000D02*
X56515000Y69850000D01*
X46510000Y24130000D02*
X48260000Y24130000D01*
X12700000Y17935000D02*
X11430000Y17935000D01*
X37465000Y19050000D02*
X36195000Y19050000D01*
X1905000Y19050000D02*
X4445000Y19050000D01*
X41910000Y22860000D02*
X40640000Y22860000D01*
X70215000Y11430000D02*
X70485000Y11430000D01*
X8255000Y24130000D02*
X4445000Y24130000D01*
X32385000Y10160000D02*
X32385000Y13335000D01*
X67890000Y6985000D02*
X66040000Y6985000D01*
X23495000Y48895000D02*
X23495000Y52070000D01*
X59055000Y19685000D02*
X58420000Y19685000D01*
X75565000Y12220000D02*
X75720000Y12220000D01*
X72390000Y26670000D02*
X73025000Y26670000D01*
X36830000Y11430000D02*
X35560000Y11430000D01*
X72390000Y31750000D02*
X72390000Y36830000D01*
X77470000Y12220000D02*
X77470000Y13970000D01*
X44505000Y15240000D02*
X46355000Y15240000D01*
X59055000Y19685000D02*
X59420252Y19685000D01*
X53340000Y69850000D02*
X53340000Y76835000D01*
X35545000Y36881000D02*
X33020000Y36881000D01*
X55880000Y2540000D02*
X80010000Y2540000D01*
X76835000Y10795000D02*
X76835000Y8255000D01*
X34925000Y23495000D02*
X34925000Y19050000D01*
G04 #@! TO.N,N20*
X64770000Y73660000D02*
X64770000Y60325000D01*
X59131200Y60325000D02*
X64770000Y60325000D01*
G04 #@! TO.N,N100*
X12700000Y15085000D02*
X12700000Y13970000D01*
X12700000Y13970000D02*
X10160000Y13970000D01*
X10160000Y15085000D02*
X10160000Y13970000D01*
X13700000Y19370000D02*
X13970000Y19370000D01*
X12700000Y13970000D02*
X13970000Y13970000D01*
X13970000Y13970000D02*
X13970000Y19370000D01*
G04 #@! TO.N,N59*
X17145000Y76835000D02*
X17145000Y53975000D01*
X41275000Y53975000D02*
X17145000Y53975000D01*
X41275000Y48895000D02*
X41275000Y53975000D01*
D29*
G04 #@! TO.N,N71*
X67945000Y34290000D03*
X53340000Y38100000D03*
D28*
X29845000Y40005000D02*
X5715000Y40005000D01*
X40005000Y41910000D02*
X29845000Y41910000D01*
X5715000Y48895000D02*
X5715000Y40005000D01*
X29845000Y40005000D02*
X29845000Y41910000D01*
X53340000Y38100000D02*
X40005000Y38100000D01*
X40005000Y38100000D02*
X40005000Y41910000D01*
X70485000Y34290000D02*
X67945000Y34290000D01*
D29*
G04 #@! TO.N,N57*
X60325000Y10160000D03*
X59690000Y17145000D03*
D28*
X63345000Y10795000D02*
X63345000Y6985000D01*
X62230000Y13025001D02*
X62230000Y9525000D01*
X60325000Y10160000D02*
X60325000Y9525000D01*
X60325000Y9525000D02*
X62230000Y9525000D01*
X63345000Y6985000D02*
X62230000Y6985000D01*
D30*
X59420252Y18103850D02*
X59420252Y17145000D01*
D28*
X61650000Y6985000D02*
X61595000Y6985000D01*
X62230000Y9525000D02*
X62230000Y6985000D01*
X59690000Y17145000D02*
X59420252Y17145000D01*
X60706000Y13025001D02*
X62230000Y13025001D01*
X61650000Y6985000D02*
X62230000Y6985000D01*
G04 #@! TO.N,N8*
X78105000Y53495000D02*
X78105000Y53975000D01*
X82550000Y53975000D02*
X78105000Y53975000D01*
X78105000Y55090000D02*
X78105000Y53975000D01*
G04 #@! TO.N,N96*
X46990000Y65405000D02*
X46990000Y71120000D01*
X52070000Y73660000D02*
X52070000Y71120000D01*
X52070000Y71120000D02*
X46990000Y71120000D01*
X50088800Y65405000D02*
X46990000Y65405000D01*
G04 #@! TO.N,N118*
X44450000Y4445000D02*
X43180000Y4445000D01*
X44180000Y9845000D02*
X44450000Y9845000D01*
X40640000Y5560000D02*
X40640000Y4445000D01*
X44450000Y9845000D02*
X44450000Y4445000D01*
X40640000Y4445000D02*
X43180000Y4445000D01*
X43180000Y5560000D02*
X43180000Y4445000D01*
G04 #@! TO.N,N/C*
X12255000Y85250000D02*
X12255000Y85725000D01*
D31*
X20170000Y85725000D02*
X12255000Y85725000D01*
D32*
X50165000Y81915000D02*
X50165000Y85725000D01*
X50165000Y81915000D02*
X81725000Y81915000D01*
D33*
X81725000Y81915000D02*
X81725000Y77945000D01*
X20170000Y85535000D02*
X20170000Y85725000D01*
X20170000Y85725000D02*
X50165000Y85725000D01*
D28*
X23495000Y12065000D02*
X26035000Y12065000D01*
X38735000Y5080000D02*
X31115000Y5080000D01*
X28575000Y7620000D02*
X28575000Y12065000D01*
X31115000Y12065000D02*
X31115000Y5080000D01*
X26035000Y7620000D02*
X26035000Y12065000D01*
X28575000Y12065000D02*
X31115000Y12065000D01*
X23495000Y2540000D02*
X23495000Y12065000D01*
X28575000Y7620000D02*
X26035000Y7620000D01*
G04 #@! TO.N,N30*
X38735000Y53340000D02*
X14605000Y53340000D01*
X38735000Y48895000D02*
X38735000Y53340000D01*
X14605000Y76835000D02*
X14605000Y53340000D01*
G04 --- BOARD END --- *
G04 #@! TF.MD5,e85965858a09359fb4faae88fde0f84c*
M02*
