G04 --- HEADER BEGIN --- *
G04 #@! TF.GenerationSoftware,LibrePCB,LibrePCB,2.0.1*
G04 #@! TF.CreationDate,2026-06-02T08:27:26*
G04 #@! TF.ProjectId,PGDI,eecefd22-67af-4534-92f1-4d94143f8d19,v1*
G04 #@! TF.Part,Single*
G04 #@! TF.SameCoordinates*
G04 #@! TF.FileFunction,Legend,Top*
G04 #@! TF.FilePolarity,Positive*
%FSLAX66Y66*%
%MOMM*%
G01*
G75*
G04 --- HEADER END --- *
G04 --- APERTURE LIST BEGIN --- *
%ADD10C,0.25*%
%ADD11C,0.2*%
%ADD12C,0.1524*%
%ADD13C,0.01*%
%ADD14C,0.15*%
%AMROUNDEDRECT15*20,1,1.25,-0.8,0.0,0.8,0.0,0.0*20,1,1.05,-0.9,0.0,0.9,0.0,0.0*1,1,0.2,-0.8,0.525*1,1,0.2,0.8,0.525*1,1,0.2,0.8,-0.525*1,1,0.2,-0.8,-0.525*%
%ADD15ROUNDEDRECT15*%
%AMROUNDEDRECT16*20,1,1.25,-0.8,0.0,0.8,0.0,90.0*20,1,1.05,-0.9,0.0,0.9,0.0,90.0*1,1,0.2,-0.525,-0.8*1,1,0.2,-0.525,0.8*1,1,0.2,0.525,0.8*1,1,0.2,0.525,-0.8*%
%ADD16ROUNDEDRECT16*%
%AMROUNDEDRECT17*20,1,0.7,-0.225,0.0,0.225,0.0,90.0*20,1,0.25,-0.45,0.0,0.45,0.0,90.0*1,1,0.45,-0.125,-0.225*1,1,0.45,-0.125,0.225*1,1,0.45,0.125,0.225*1,1,0.45,0.125,-0.225*%
%ADD17ROUNDEDRECT17*%
%AMROUNDEDRECT18*20,1,1.43,-0.9,0.0,0.9,0.0,90.0*20,1,1.23,-1.0,0.0,1.0,0.0,90.0*1,1,0.2,-0.615,-0.9*1,1,0.2,-0.615,0.9*1,1,0.2,0.615,0.9*1,1,0.2,0.615,-0.9*%
%ADD18ROUNDEDRECT18*%
%ADD19O,3.7X2.1*%
%AMROUNDEDRECT20*20,1,2.1,-1.75,0.0,1.75,0.0,0.0*20,1,1.9,-1.85,0.0,1.85,0.0,0.0*1,1,0.2,-1.75,0.95*1,1,0.2,1.75,0.95*1,1,0.2,1.75,-0.95*1,1,0.2,-1.75,-0.95*%
%ADD20ROUNDEDRECT20*%
%AMROUNDEDRECT21*20,1,1.787,-1.095,0.0,1.095,0.0,90.0*20,1,1.587,-1.195,0.0,1.195,0.0,90.0*1,1,0.2,-0.7935,-1.095*1,1,0.2,-0.7935,1.095*1,1,0.2,0.7935,1.095*1,1,0.2,0.7935,-1.095*%
%ADD21ROUNDEDRECT21*%
%ADD22O,1.787X2.39*%
%ADD23C,3.2*%
%AMROUNDEDRECT24*20,1,2.57,-1.215,0.0,1.215,0.0,90.0*20,1,2.37,-1.315,0.0,1.315,0.0,90.0*1,1,0.2,-1.185,-1.215*1,1,0.2,-1.185,1.215*1,1,0.2,1.185,1.215*1,1,0.2,1.185,-1.215*%
%ADD24ROUNDEDRECT24*%
%AMROUNDEDRECT25*20,1,1.9,-0.85,0.0,0.85,0.0,0.0*20,1,1.7,-0.95,0.0,0.95,0.0,0.0*1,1,0.2,-0.85,0.85*1,1,0.2,0.85,0.85*1,1,0.2,0.85,-0.85*1,1,0.2,-0.85,-0.85*%
%ADD25ROUNDEDRECT25*%
%ADD26C,1.9*%
%AMROUNDEDRECT27*20,1,0.4794,-0.66675,0.0,0.66675,0.0,90.0*20,1,0.2794,-0.76675,0.0,0.76675,0.0,90.0*1,1,0.2,-0.1397,-0.66675*1,1,0.2,-0.1397,0.66675*1,1,0.2,0.1397,0.66675*1,1,0.2,0.1397,-0.66675*%
%ADD27ROUNDEDRECT27*%
%ADD28O,2.39X1.787*%
%AMROUNDEDRECT29*20,1,1.787,-1.095,0.0,1.095,0.0,0.0*20,1,1.587,-1.195,0.0,1.195,0.0,0.0*1,1,0.2,-1.095,0.7935*1,1,0.2,1.095,0.7935*1,1,0.2,1.095,-0.7935*1,1,0.2,-1.095,-0.7935*%
%ADD29ROUNDEDRECT29*%
%AMROUNDEDRECT30*20,1,0.95,-0.625,0.0,0.625,0.0,0.0*20,1,0.75,-0.725,0.0,0.725,0.0,0.0*1,1,0.2,-0.625,0.375*1,1,0.2,0.625,0.375*1,1,0.2,0.625,-0.375*1,1,0.2,-0.625,-0.375*%
%ADD30ROUNDEDRECT30*%
%AMROUNDEDRECT31*20,1,0.7588,-1.1557,0.0,1.1557,0.0,0.0*20,1,0.5588,-1.2557,0.0,1.2557,0.0,0.0*1,1,0.2,-1.1557,0.2794*1,1,0.2,1.1557,0.2794*1,1,0.2,1.1557,-0.2794*1,1,0.2,-1.1557,-0.2794*%
%ADD31ROUNDEDRECT31*%
%AMROUNDEDRECT32*20,1,0.5556,-0.7366,0.0,0.7366,0.0,0.0*20,1,0.3556,-0.8366,0.0,0.8366,0.0,0.0*1,1,0.2,-0.7366,0.1778*1,1,0.2,0.7366,0.1778*1,1,0.2,0.7366,-0.1778*1,1,0.2,-0.7366,-0.1778*%
%ADD32ROUNDEDRECT32*%
G04 --- APERTURE LIST END --- *
G04 --- BOARD BEGIN --- *
D10*
G04 #@! TO.C,R47*
X42835000Y26025000D02*
X42835000Y24775000D01*
X40985000Y26025000D02*
X40985000Y24775000D01*
G04 #@! TO.C,R59*
X72680000Y15865000D02*
X72680000Y14615000D01*
X70830000Y15865000D02*
X70830000Y14615000D01*
G04 #@! TO.C,C13*
X38090000Y7330000D02*
X36840000Y7330000D01*
X38090000Y9180000D02*
X36840000Y9180000D01*
G04 #@! TO.C,R45*
X35550000Y20030000D02*
X34300000Y20030000D01*
X35550000Y21880000D02*
X34300000Y21880000D01*
D11*
G04 #@! TO.C,?12*
X68615000Y12880000D02*
X69915000Y12880000D01*
X69915000Y9980000D01*
X68615000Y9980000D01*
X68615000Y12880000D01*
D10*
G04 #@! TO.C,C3*
X23785000Y16840000D02*
X23785000Y21535000D01*
X21935000Y21535000D01*
X21935000Y16840000D01*
G04 #@! TO.C,R15*
X77180000Y28585000D02*
X77180000Y29835000D01*
X79030000Y28585000D02*
X79030000Y29835000D01*
G04 #@! TO.C,C6*
X54265000Y7315000D02*
X54265000Y12010000D01*
X52415000Y12010000D01*
X52415000Y7315000D01*
G04 #@! TO.C,C5*
X39230000Y19420000D02*
X30345000Y19420000D01*
X30345000Y14870000D01*
X39230000Y14870000D01*
G04 #@! TO.C,R37*
X77180000Y44460000D02*
X77180000Y45710000D01*
X79030000Y44460000D02*
X79030000Y45710000D01*
G04 #@! TO.C,R58*
X73950000Y11420000D02*
X73950000Y10170000D01*
X72100000Y11420000D02*
X72100000Y10170000D01*
G04 #@! TO.C,R60*
X68290000Y14615000D02*
X68290000Y15865000D01*
X70140000Y14615000D02*
X70140000Y15865000D01*
G04 #@! TO.C,R43*
X17790000Y21880000D02*
X19040000Y21880000D01*
X17790000Y20030000D02*
X19040000Y20030000D01*
D12*
G04 #@! TO.C,U7*
X56743600Y21996400D02*
X56743600Y18643600D01*
X60096400Y18643600D02*
X60096400Y21996400D01*
D13*
G36*
X57229248Y23710900D02*
X57610248Y23710900D01*
X57610248Y23456900D01*
X57229248Y23456900D01*
X57229248Y23710900D01*
G37*
D10*
G04 #@! TO.C,R36*
X77180000Y33030000D02*
X77180000Y34280000D01*
X79030000Y33030000D02*
X79030000Y34280000D01*
G04 #@! TO.C,R35*
X7330000Y26045000D02*
X7330000Y27295000D01*
X9180000Y26045000D02*
X9180000Y27295000D01*
D11*
G04 #@! TO.C,?9*
X38770000Y23040000D02*
X40070000Y23040000D01*
X40070000Y20140000D01*
X38770000Y20140000D01*
X38770000Y23040000D01*
D10*
G04 #@! TO.C,C11*
X43320000Y12965000D02*
X52205000Y12965000D01*
X52205000Y17515000D01*
X43320000Y17515000D01*
G04 #@! TO.C,R61*
X69735000Y8580000D02*
X69735000Y7930000D01*
X71235000Y8580000D02*
X71235000Y7930000D01*
G04 #@! TO.C,C12*
X69075000Y9260000D02*
X60190000Y9260000D01*
X60190000Y4710000D01*
X69075000Y4710000D01*
D11*
G04 #@! TO.C,?7*
X13300000Y18870000D02*
X12000000Y18870000D01*
X12000000Y21770000D01*
X13300000Y21770000D01*
X13300000Y18870000D01*
D13*
G04 #@! TO.C,U2*
G36*
X60794900Y66484500D02*
X60794900Y66865500D01*
X60540900Y66865500D01*
X60540900Y66484500D01*
X60794900Y66484500D01*
G37*
D12*
X58407300Y70027800D02*
X50812700Y70027800D01*
X50812700Y54432200D02*
X58407300Y54432200D01*
X54305200Y54432200D02*
G02*
X54914800Y54432200I304800J0D01*
G01*
D13*
G36*
X48425100Y60134500D02*
X48425100Y60515500D01*
X48679100Y60515500D01*
X48679100Y60134500D01*
X48425100Y60134500D01*
G37*
D14*
X55977778Y62730000D02*
X56311111Y62253333D01*
X56548889Y62730000D02*
X56548889Y61730000D01*
X56167778Y61730000D01*
X56072222Y61777778D01*
X56025556Y61825556D01*
X55977778Y61920000D01*
X55977778Y62063333D01*
X56025556Y62158889D01*
X56072222Y62206667D01*
X56167778Y62253333D01*
X56548889Y62253333D01*
X55627778Y62206667D02*
X55294445Y62206667D01*
X55151111Y62730000D02*
X55627778Y62730000D01*
X55627778Y61730000D01*
X55151111Y61730000D01*
X54467778Y62206667D02*
X54801111Y62206667D01*
X54801111Y62730000D02*
X54801111Y61730000D01*
X54324444Y61730000D01*
X53736666Y61730000D02*
X53736666Y61967778D01*
X53974444Y61873333D02*
X53736666Y61967778D01*
X53497777Y61873333D01*
X53878888Y62158889D02*
X53736666Y61967778D01*
X53593333Y62158889D01*
X52909999Y61730000D02*
X52909999Y61967778D01*
X53147777Y61873333D02*
X52909999Y61967778D01*
X52671110Y61873333D01*
X53052221Y62158889D02*
X52909999Y61967778D01*
X52766666Y62158889D01*
X59384645Y54043200D02*
X59384645Y53805422D01*
X59146867Y53899867D02*
X59384645Y53805422D01*
X59623534Y53899867D01*
X59242423Y53614311D02*
X59384645Y53805422D01*
X59527978Y53614311D01*
X59385755Y53043200D02*
X59385755Y53280978D01*
X59623533Y53186533D02*
X59385755Y53280978D01*
X59146866Y53186533D01*
X59527977Y53472089D02*
X59385755Y53280978D01*
X59242422Y53472089D01*
D10*
G04 #@! TO.C,R34*
X6640000Y27295000D02*
X6640000Y26045000D01*
X4790000Y27295000D02*
X4790000Y26045000D01*
G04 #@! TO.C,R54*
X49520000Y7965000D02*
X48270000Y7965000D01*
X49520000Y9815000D02*
X48270000Y9815000D01*
G04 #@! TO.C,R46*
X44105000Y21580000D02*
X44105000Y20330000D01*
X42255000Y21580000D02*
X42255000Y20330000D01*
G04 #@! TO.C,R56*
X64145000Y14260000D02*
X65395000Y14260000D01*
X64145000Y12410000D02*
X65395000Y12410000D01*
G04 #@! TO.C,R52*
X44105000Y7610000D02*
X44105000Y6360000D01*
X42255000Y7610000D02*
X42255000Y6360000D01*
G04 #@! TO.C,C10*
X44795000Y20330000D02*
X44795000Y21580000D01*
X46645000Y20330000D02*
X46645000Y21580000D01*
G04 #@! TO.C,C9*
X7275000Y21580000D02*
X7275000Y20330000D01*
X5425000Y21580000D02*
X5425000Y20330000D01*
G04 #@! TO.C,R13*
X7965000Y20330000D02*
X7965000Y21580000D01*
X9815000Y20330000D02*
X9815000Y21580000D01*
G04 #@! TO.C,R18*
X9235000Y15885000D02*
X9235000Y17135000D01*
X11085000Y15885000D02*
X11085000Y17135000D01*
D11*
G04 #@! TO.C,?10*
X43780000Y9345000D02*
X42480000Y9345000D01*
X42480000Y12245000D01*
X43780000Y12245000D01*
X43780000Y9345000D01*
D10*
G04 #@! TO.C,C7*
X7610000Y16855000D02*
X6360000Y16855000D01*
X7610000Y18705000D02*
X6360000Y18705000D01*
G04 #@! TO.C,R48*
X38445000Y24775000D02*
X38445000Y26025000D01*
X40295000Y24775000D02*
X40295000Y26025000D01*
G04 #@! TO.C,C16*
X74640000Y10170000D02*
X74640000Y11420000D01*
X76490000Y10170000D02*
X76490000Y11420000D01*
G04 #@! TO.C,R39*
X13625000Y17135000D02*
X13625000Y15885000D01*
X11775000Y17135000D02*
X11775000Y15885000D01*
D12*
G04 #@! TO.C,U4*
X25057100Y20675600D02*
X29552900Y20675600D01*
X27609800Y23774400D02*
G02*
X27000200Y23774400I-304800J0D01*
G01*
X29552900Y23774400D02*
X25057100Y23774400D01*
G04 #@! TO.C,U6*
X55537100Y11150600D02*
X60032900Y11150600D01*
X58089800Y14249400D02*
G02*
X57480200Y14249400I-304800J0D01*
G01*
X60032900Y14249400D02*
X55537100Y14249400D01*
D10*
G04 #@! TO.C,C17*
X54900000Y20945000D02*
X54900000Y19695000D01*
X53050000Y20945000D02*
X53050000Y19695000D01*
G04 #@! TO.C,R49*
X39890000Y18740000D02*
X39890000Y18090000D01*
X41390000Y18740000D02*
X41390000Y18090000D01*
G04 #@! TO.C,R51*
X39715000Y6360000D02*
X39715000Y7610000D01*
X41565000Y6360000D02*
X41565000Y7610000D01*
G04 #@! TO.C,R55*
X48270000Y12355000D02*
X49520000Y12355000D01*
X48270000Y10505000D02*
X49520000Y10505000D01*
G04 #@! TO.C,C14*
X74305000Y14895000D02*
X75555000Y14895000D01*
X74305000Y13045000D02*
X75555000Y13045000D01*
G04 #@! TO.C,R50*
X38445000Y10805000D02*
X38445000Y12055000D01*
X40295000Y10805000D02*
X40295000Y12055000D01*
G04 #@! TO.C,R53*
X42660000Y13645000D02*
X42660000Y14295000D01*
X41160000Y13645000D02*
X41160000Y14295000D01*
G04 #@! TO.C,C2*
X30190000Y24775000D02*
X30190000Y26025000D01*
X32040000Y24775000D02*
X32040000Y26025000D01*
G04 #@! TO.C,R2*
X77180000Y19060000D02*
X77180000Y20310000D01*
X79030000Y19060000D02*
X79030000Y20310000D01*
G04 #@! TO.C,R16*
X77180000Y40015000D02*
X77180000Y41265000D01*
X79030000Y40015000D02*
X79030000Y41265000D01*
G04 #@! TO.C,R42*
X19040000Y17490000D02*
X17790000Y17490000D01*
X19040000Y19340000D02*
X17790000Y19340000D01*
G04 #@! TO.C,R17*
X77180000Y51445000D02*
X77180000Y52695000D01*
X79030000Y51445000D02*
X79030000Y52695000D01*
G04 #@! TO.C,R40*
X77180000Y23505000D02*
X77180000Y24755000D01*
X79030000Y23505000D02*
X79030000Y24755000D01*
G04 #@! TO.C,C15*
X37755000Y12055000D02*
X37755000Y10805000D01*
X35905000Y12055000D02*
X35905000Y10805000D01*
G04 #@! TO.C,R38*
X77180000Y55890000D02*
X77180000Y57140000D01*
X79030000Y55890000D02*
X79030000Y57140000D01*
G04 #@! TO.C,R41*
X12180000Y23170000D02*
X12180000Y23820000D01*
X10680000Y23170000D02*
X10680000Y23820000D01*
G04 #@! TO.C,R57*
X65395000Y9870000D02*
X64145000Y9870000D01*
X65395000Y11720000D02*
X64145000Y11720000D01*
G04 #@! TO.C,R44*
X34300000Y24420000D02*
X35550000Y24420000D01*
X34300000Y22570000D02*
X35550000Y22570000D01*
G04 #@! TO.C,C4*
X12840000Y22490000D02*
X21725000Y22490000D01*
X21725000Y27040000D01*
X12840000Y27040000D01*
G04 #@! TO.C,C1*
X60670000Y15250000D02*
X60670000Y16500000D01*
X62520000Y15250000D02*
X62520000Y16500000D01*
G04 #@! TO.C,C8*
X44460000Y25055000D02*
X45710000Y25055000D01*
X44460000Y23205000D02*
X45710000Y23205000D01*
D11*
G04 #@! TD*
X71755000Y1905000D02*
X71755000Y3405000D01*
X72111667Y3405000D01*
X72326667Y3333333D01*
X72470000Y3190000D01*
X72540000Y3048333D01*
X72611667Y2761667D01*
X72611667Y2548333D01*
X72540000Y2261667D01*
X72470000Y2120000D01*
X72326667Y1976667D01*
X72111667Y1905000D01*
X71755000Y1905000D01*
X73111667Y2690000D02*
X73611667Y2690000D01*
X73826667Y1905000D02*
X73111667Y1905000D01*
X73111667Y3405000D01*
X73826667Y3405000D01*
X74326667Y1976667D02*
X74541667Y1905000D01*
X74898334Y1905000D01*
X75041667Y1976667D01*
X75111667Y2048333D01*
X75183334Y2190000D01*
X75183334Y2333333D01*
X75111667Y2476667D01*
X75041667Y2548333D01*
X74898334Y2620000D01*
X74611667Y2690000D01*
X74470000Y2761667D01*
X74398334Y2833333D01*
X74326667Y2976667D01*
X74326667Y3120000D01*
X74398334Y3261667D01*
X74470000Y3333333D01*
X74611667Y3405000D01*
X74970000Y3405000D01*
X75183334Y3333333D01*
X75683334Y1905000D02*
X75683334Y3405000D01*
X77040001Y3333333D02*
X76898334Y3405000D01*
X76683334Y3405000D01*
X76468334Y3333333D01*
X76326667Y3190000D01*
X76255001Y3048333D01*
X76183334Y2761667D01*
X76183334Y2548333D01*
X76255001Y2261667D01*
X76326667Y2120000D01*
X76468334Y1976667D01*
X76683334Y1905000D01*
X76826667Y1905000D01*
X77040001Y1976667D01*
X77111667Y2048333D01*
X77111667Y2548333D01*
X76826667Y2548333D01*
X77611667Y1905000D02*
X77611667Y3405000D01*
X78468334Y1905000D01*
X78468334Y3405000D01*
X80568333Y2690000D02*
X80783333Y2620000D01*
X80853333Y2548333D01*
X80925000Y2405000D01*
X80925000Y2190000D01*
X80853333Y2048333D01*
X80783333Y1976667D01*
X80640000Y1905000D01*
X80068333Y1905000D01*
X80068333Y3405000D01*
X80568333Y3405000D01*
X80711666Y3333333D01*
X80783333Y3261667D01*
X80853333Y3120000D01*
X80853333Y2976667D01*
X80783333Y2833333D01*
X80711666Y2761667D01*
X80568333Y2690000D01*
X80068333Y2690000D01*
X81925000Y2620000D02*
X81925000Y1905000D01*
X81425000Y3405000D02*
X81925000Y2620000D01*
X82425000Y3405000D01*
X82996667Y2048333D02*
X83068333Y1976667D01*
X82996667Y1905000D01*
X82925000Y1976667D01*
X82996667Y2048333D01*
X82996667Y1905000D01*
X82996667Y2833333D02*
X83068333Y2761667D01*
X82996667Y2690000D01*
X82925000Y2761667D01*
X82996667Y2833333D01*
X82996667Y2690000D01*
X85524999Y3333333D02*
X85383332Y3405000D01*
X85168332Y3405000D01*
X84953332Y3333333D01*
X84811665Y3190000D01*
X84739999Y3048333D01*
X84668332Y2761667D01*
X84668332Y2548333D01*
X84739999Y2261667D01*
X84811665Y2120000D01*
X84953332Y1976667D01*
X85168332Y1905000D01*
X85311665Y1905000D01*
X85524999Y1976667D01*
X85596665Y2048333D01*
X85596665Y2548333D01*
X85311665Y2548333D01*
X86096665Y1905000D02*
X86096665Y3405000D01*
X87453332Y3333333D02*
X87311665Y3405000D01*
X87096665Y3405000D01*
X86881665Y3333333D01*
X86739998Y3190000D01*
X86668332Y3048333D01*
X86596665Y2761667D01*
X86596665Y2548333D01*
X86668332Y2261667D01*
X86739998Y2120000D01*
X86881665Y1976667D01*
X87096665Y1905000D01*
X87239998Y1905000D01*
X87453332Y1976667D01*
X87524998Y2048333D01*
X87524998Y2548333D01*
X87239998Y2548333D01*
X88881665Y1905000D02*
X88381665Y2620000D01*
X88024998Y1905000D02*
X88024998Y3405000D01*
X88596665Y3405000D01*
X88739998Y3333333D01*
X88809998Y3261667D01*
X88881665Y3120000D01*
X88881665Y2905000D01*
X88809998Y2761667D01*
X88739998Y2690000D01*
X88596665Y2620000D01*
X88024998Y2620000D01*
X89738332Y3405000D02*
X90024998Y3405000D01*
X90166665Y3333333D01*
X90309998Y3190000D01*
X90381665Y2905000D01*
X90381665Y2405000D01*
X90309998Y2120000D01*
X90166665Y1976667D01*
X90024998Y1905000D01*
X89738332Y1905000D01*
X89596665Y1976667D01*
X89453332Y2120000D01*
X89381665Y2405000D01*
X89381665Y2905000D01*
X89453332Y3190000D01*
X89596665Y3333333D01*
X89738332Y3405000D01*
X90881665Y1976667D02*
X91096665Y1905000D01*
X91453332Y1905000D01*
X91596665Y1976667D01*
X91666665Y2048333D01*
X91738332Y2190000D01*
X91738332Y2333333D01*
X91666665Y2476667D01*
X91596665Y2548333D01*
X91453332Y2620000D01*
X91166665Y2690000D01*
X91024998Y2761667D01*
X90953332Y2833333D01*
X90881665Y2976667D01*
X90881665Y3120000D01*
X90953332Y3261667D01*
X91024998Y3333333D01*
X91166665Y3405000D01*
X91524998Y3405000D01*
X91738332Y3333333D01*
X92238332Y1976667D02*
X92453332Y1905000D01*
X92809999Y1905000D01*
X92953332Y1976667D01*
X93023332Y2048333D01*
X93094999Y2190000D01*
X93094999Y2333333D01*
X93023332Y2476667D01*
X92953332Y2548333D01*
X92809999Y2620000D01*
X92523332Y2690000D01*
X92381665Y2761667D01*
X92309999Y2833333D01*
X92238332Y2976667D01*
X92238332Y3120000D01*
X92309999Y3261667D01*
X92381665Y3333333D01*
X92523332Y3405000D01*
X92881665Y3405000D01*
X93094999Y3333333D01*
X93951666Y3405000D02*
X94238332Y3405000D01*
X94379999Y3333333D01*
X94523332Y3190000D01*
X94594999Y2905000D01*
X94594999Y2405000D01*
X94523332Y2120000D01*
X94379999Y1976667D01*
X94238332Y1905000D01*
X93951666Y1905000D01*
X93809999Y1976667D01*
X93666666Y2120000D01*
X93594999Y2405000D01*
X93594999Y2905000D01*
X93666666Y3190000D01*
X93809999Y3333333D01*
X93951666Y3405000D01*
G04 #@! TO.C,R47*
X41970000Y28452778D02*
X41493333Y28119445D01*
X41970000Y27881667D02*
X40970000Y27881667D01*
X40970000Y28262778D01*
X41017778Y28358334D01*
X41065556Y28405000D01*
X41160000Y28452778D01*
X41303333Y28452778D01*
X41398889Y28405000D01*
X41446667Y28358334D01*
X41493333Y28262778D01*
X41493333Y27881667D01*
X41303333Y29329445D02*
X41970000Y29329445D01*
X40922222Y29090556D02*
X41636667Y28852778D01*
X41636667Y29471667D01*
X40970000Y29871667D02*
X40970000Y30538334D01*
X41970000Y30109445D01*
G04 #@! TO.C,R59*
X72450000Y18364445D02*
X71973333Y18031112D01*
X72450000Y17793334D02*
X71450000Y17793334D01*
X71450000Y18174445D01*
X71497778Y18270001D01*
X71545556Y18316667D01*
X71640000Y18364445D01*
X71783333Y18364445D01*
X71878889Y18316667D01*
X71926667Y18270001D01*
X71973333Y18174445D01*
X71973333Y17793334D01*
X71450000Y19287778D02*
X71450000Y18812223D01*
X71926667Y18764445D01*
X71878889Y18812223D01*
X71831111Y18907778D01*
X71831111Y19145556D01*
X71878889Y19241112D01*
X71926667Y19287778D01*
X72021111Y19335556D01*
X72260000Y19335556D01*
X72354444Y19287778D01*
X72402222Y19241112D01*
X72450000Y19145556D01*
X72450000Y18907778D01*
X72402222Y18812223D01*
X72354444Y18764445D01*
X72450000Y19831112D02*
X72450000Y20021112D01*
X72402222Y20116667D01*
X72354444Y20164445D01*
X72212222Y20258889D01*
X72021111Y20306667D01*
X71640000Y20306667D01*
X71545556Y20258889D01*
X71497778Y20212223D01*
X71450000Y20116667D01*
X71450000Y19925556D01*
X71497778Y19831112D01*
X71545556Y19783334D01*
X71640000Y19735556D01*
X71878889Y19735556D01*
X71973333Y19783334D01*
X72021111Y19831112D01*
X72068889Y19925556D01*
X72068889Y20116667D01*
X72021111Y20212223D01*
X71973333Y20258889D01*
X71878889Y20306667D01*
G04 #@! TO.C,C13*
X36779445Y5750556D02*
X36731667Y5702778D01*
X36589445Y5655000D01*
X36493889Y5655000D01*
X36350556Y5702778D01*
X36256112Y5798333D01*
X36208334Y5892778D01*
X36160556Y6083889D01*
X36160556Y6226111D01*
X36208334Y6417222D01*
X36256112Y6511667D01*
X36350556Y6607222D01*
X36493889Y6655000D01*
X36589445Y6655000D01*
X36731667Y6607222D01*
X36779445Y6559444D01*
X37750556Y5655000D02*
X37179445Y5655000D01*
X37465001Y5655000D02*
X37465001Y6655000D01*
X37369445Y6511667D01*
X37275001Y6417222D01*
X37179445Y6369444D01*
X38150556Y6655000D02*
X38769445Y6655000D01*
X38436112Y6273889D01*
X38579445Y6273889D01*
X38673889Y6226111D01*
X38721667Y6178333D01*
X38769445Y6083889D01*
X38769445Y5845000D01*
X38721667Y5750556D01*
X38673889Y5702778D01*
X38579445Y5655000D01*
X38293889Y5655000D01*
X38198334Y5702778D01*
X38150556Y5750556D01*
G04 #@! TO.C,R45*
X32385000Y20550556D02*
X31908333Y20217223D01*
X32385000Y19979445D02*
X31385000Y19979445D01*
X31385000Y20360556D01*
X31432778Y20456112D01*
X31480556Y20502778D01*
X31575000Y20550556D01*
X31718333Y20550556D01*
X31813889Y20502778D01*
X31861667Y20456112D01*
X31908333Y20360556D01*
X31908333Y19979445D01*
X31718333Y21427223D02*
X32385000Y21427223D01*
X31337222Y21188334D02*
X32051667Y20950556D01*
X32051667Y21569445D01*
X31385000Y22492778D02*
X31385000Y22017223D01*
X31861667Y21969445D01*
X31813889Y22017223D01*
X31766111Y22112778D01*
X31766111Y22350556D01*
X31813889Y22446112D01*
X31861667Y22492778D01*
X31956111Y22540556D01*
X32195000Y22540556D01*
X32289444Y22492778D01*
X32337222Y22446112D01*
X32385000Y22350556D01*
X32385000Y22112778D01*
X32337222Y22017223D01*
X32289444Y21969445D01*
G04 #@! TO.C,C3*
X21554444Y20755000D02*
X21602222Y20707222D01*
X21650000Y20565000D01*
X21650000Y20469444D01*
X21602222Y20326111D01*
X21506667Y20231667D01*
X21412222Y20183889D01*
X21221111Y20136111D01*
X21078889Y20136111D01*
X20887778Y20183889D01*
X20793333Y20231667D01*
X20697778Y20326111D01*
X20650000Y20469444D01*
X20650000Y20565000D01*
X20697778Y20707222D01*
X20745556Y20755000D01*
X20650000Y21155000D02*
X20650000Y21773889D01*
X21031111Y21440556D01*
X21031111Y21583889D01*
X21078889Y21678333D01*
X21126667Y21726111D01*
X21221111Y21773889D01*
X21460000Y21773889D01*
X21554444Y21726111D01*
X21602222Y21678333D01*
X21650000Y21583889D01*
X21650000Y21298333D01*
X21602222Y21202778D01*
X21554444Y21155000D01*
G04 #@! TO.C,R15*
X76505000Y28524445D02*
X76028333Y28191112D01*
X76505000Y27953334D02*
X75505000Y27953334D01*
X75505000Y28334445D01*
X75552778Y28430001D01*
X75600556Y28476667D01*
X75695000Y28524445D01*
X75838333Y28524445D01*
X75933889Y28476667D01*
X75981667Y28430001D01*
X76028333Y28334445D01*
X76028333Y27953334D01*
X76505000Y29495556D02*
X76505000Y28924445D01*
X76505000Y29210001D02*
X75505000Y29210001D01*
X75648333Y29114445D01*
X75742778Y29020001D01*
X75790556Y28924445D01*
X75505000Y30418889D02*
X75505000Y29943334D01*
X75981667Y29895556D01*
X75933889Y29943334D01*
X75886111Y30038889D01*
X75886111Y30276667D01*
X75933889Y30372223D01*
X75981667Y30418889D01*
X76076111Y30466667D01*
X76315000Y30466667D01*
X76409444Y30418889D01*
X76457222Y30372223D01*
X76505000Y30276667D01*
X76505000Y30038889D01*
X76457222Y29943334D01*
X76409444Y29895556D01*
G04 #@! TO.C,C6*
X52034444Y9983889D02*
X52082222Y9936111D01*
X52130000Y9793889D01*
X52130000Y9698333D01*
X52082222Y9555000D01*
X51986667Y9460556D01*
X51892222Y9412778D01*
X51701111Y9365000D01*
X51558889Y9365000D01*
X51367778Y9412778D01*
X51273333Y9460556D01*
X51177778Y9555000D01*
X51130000Y9698333D01*
X51130000Y9793889D01*
X51177778Y9936111D01*
X51225556Y9983889D01*
X51130000Y10860556D02*
X51130000Y10669445D01*
X51177778Y10573889D01*
X51225556Y10527222D01*
X51367778Y10431667D01*
X51558889Y10383889D01*
X51940000Y10383889D01*
X52034444Y10431667D01*
X52082222Y10479445D01*
X52130000Y10573889D01*
X52130000Y10765000D01*
X52082222Y10860556D01*
X52034444Y10907222D01*
X51940000Y10955000D01*
X51701111Y10955000D01*
X51606667Y10907222D01*
X51558889Y10860556D01*
X51511111Y10765000D01*
X51511111Y10573889D01*
X51558889Y10479445D01*
X51606667Y10431667D01*
X51701111Y10383889D01*
G04 #@! TO.C,C5*
X35194444Y17043889D02*
X35242222Y16996111D01*
X35290000Y16853889D01*
X35290000Y16758333D01*
X35242222Y16615000D01*
X35146667Y16520556D01*
X35052222Y16472778D01*
X34861111Y16425000D01*
X34718889Y16425000D01*
X34527778Y16472778D01*
X34433333Y16520556D01*
X34337778Y16615000D01*
X34290000Y16758333D01*
X34290000Y16853889D01*
X34337778Y16996111D01*
X34385556Y17043889D01*
X34290000Y17967222D02*
X34290000Y17491667D01*
X34766667Y17443889D01*
X34718889Y17491667D01*
X34671111Y17587222D01*
X34671111Y17825000D01*
X34718889Y17920556D01*
X34766667Y17967222D01*
X34861111Y18015000D01*
X35100000Y18015000D01*
X35194444Y17967222D01*
X35242222Y17920556D01*
X35290000Y17825000D01*
X35290000Y17587222D01*
X35242222Y17491667D01*
X35194444Y17443889D01*
G04 #@! TO.C,R37*
X76505000Y44327778D02*
X76028333Y43994445D01*
X76505000Y43756667D02*
X75505000Y43756667D01*
X75505000Y44137778D01*
X75552778Y44233334D01*
X75600556Y44280000D01*
X75695000Y44327778D01*
X75838333Y44327778D01*
X75933889Y44280000D01*
X75981667Y44233334D01*
X76028333Y44137778D01*
X76028333Y43756667D01*
X75505000Y44727778D02*
X75505000Y45346667D01*
X75886111Y45013334D01*
X75886111Y45156667D01*
X75933889Y45251111D01*
X75981667Y45298889D01*
X76076111Y45346667D01*
X76315000Y45346667D01*
X76409444Y45298889D01*
X76457222Y45251111D01*
X76505000Y45156667D01*
X76505000Y44871111D01*
X76457222Y44775556D01*
X76409444Y44727778D01*
X75505000Y45746667D02*
X75505000Y46413334D01*
X76505000Y45984445D01*
G04 #@! TO.C,R58*
X71815000Y10744445D02*
X71338333Y10411112D01*
X71815000Y10173334D02*
X70815000Y10173334D01*
X70815000Y10554445D01*
X70862778Y10650001D01*
X70910556Y10696667D01*
X71005000Y10744445D01*
X71148333Y10744445D01*
X71243889Y10696667D01*
X71291667Y10650001D01*
X71338333Y10554445D01*
X71338333Y10173334D01*
X70815000Y11667778D02*
X70815000Y11192223D01*
X71291667Y11144445D01*
X71243889Y11192223D01*
X71196111Y11287778D01*
X71196111Y11525556D01*
X71243889Y11621112D01*
X71291667Y11667778D01*
X71386111Y11715556D01*
X71625000Y11715556D01*
X71719444Y11667778D01*
X71767222Y11621112D01*
X71815000Y11525556D01*
X71815000Y11287778D01*
X71767222Y11192223D01*
X71719444Y11144445D01*
X71243889Y12305556D02*
X71196111Y12211112D01*
X71148333Y12163334D01*
X71052778Y12115556D01*
X71005000Y12115556D01*
X70910556Y12163334D01*
X70862778Y12211112D01*
X70815000Y12305556D01*
X70815000Y12496667D01*
X70862778Y12592223D01*
X70910556Y12638889D01*
X71005000Y12686667D01*
X71052778Y12686667D01*
X71148333Y12638889D01*
X71196111Y12592223D01*
X71243889Y12496667D01*
X71243889Y12305556D01*
X71291667Y12211112D01*
X71338333Y12163334D01*
X71433889Y12115556D01*
X71625000Y12115556D01*
X71719444Y12163334D01*
X71767222Y12211112D01*
X71815000Y12305556D01*
X71815000Y12496667D01*
X71767222Y12592223D01*
X71719444Y12638889D01*
X71625000Y12686667D01*
X71433889Y12686667D01*
X71338333Y12638889D01*
X71291667Y12592223D01*
X71243889Y12496667D01*
G04 #@! TO.C,R60*
X69520000Y18364445D02*
X69043333Y18031112D01*
X69520000Y17793334D02*
X68520000Y17793334D01*
X68520000Y18174445D01*
X68567778Y18270001D01*
X68615556Y18316667D01*
X68710000Y18364445D01*
X68853333Y18364445D01*
X68948889Y18316667D01*
X68996667Y18270001D01*
X69043333Y18174445D01*
X69043333Y17793334D01*
X68520000Y19241112D02*
X68520000Y19050001D01*
X68567778Y18954445D01*
X68615556Y18907778D01*
X68757778Y18812223D01*
X68948889Y18764445D01*
X69330000Y18764445D01*
X69424444Y18812223D01*
X69472222Y18860001D01*
X69520000Y18954445D01*
X69520000Y19145556D01*
X69472222Y19241112D01*
X69424444Y19287778D01*
X69330000Y19335556D01*
X69091111Y19335556D01*
X68996667Y19287778D01*
X68948889Y19241112D01*
X68901111Y19145556D01*
X68901111Y18954445D01*
X68948889Y18860001D01*
X68996667Y18812223D01*
X69091111Y18764445D01*
X68520000Y19973334D02*
X68520000Y20068889D01*
X68567778Y20164445D01*
X68615556Y20212223D01*
X68710000Y20258889D01*
X68901111Y20306667D01*
X69138889Y20306667D01*
X69330000Y20258889D01*
X69424444Y20212223D01*
X69472222Y20164445D01*
X69520000Y20068889D01*
X69520000Y19973334D01*
X69472222Y19878889D01*
X69424444Y19831112D01*
X69330000Y19783334D01*
X69138889Y19735556D01*
X68901111Y19735556D01*
X68710000Y19783334D01*
X68615556Y19831112D01*
X68567778Y19878889D01*
X68520000Y19973334D01*
G04 #@! TO.C,R43*
X16240000Y20551667D02*
X15763333Y20218334D01*
X16240000Y19980556D02*
X15240000Y19980556D01*
X15240000Y20361667D01*
X15287778Y20457223D01*
X15335556Y20503889D01*
X15430000Y20551667D01*
X15573333Y20551667D01*
X15668889Y20503889D01*
X15716667Y20457223D01*
X15763333Y20361667D01*
X15763333Y19980556D01*
X15573333Y21428334D02*
X16240000Y21428334D01*
X15192222Y21189445D02*
X15906667Y20951667D01*
X15906667Y21570556D01*
X15240000Y21970556D02*
X15240000Y22589445D01*
X15621111Y22256112D01*
X15621111Y22399445D01*
X15668889Y22493889D01*
X15716667Y22541667D01*
X15811111Y22589445D01*
X16050000Y22589445D01*
X16144444Y22541667D01*
X16192222Y22493889D01*
X16240000Y22399445D01*
X16240000Y22113889D01*
X16192222Y22018334D01*
X16144444Y21970556D01*
G04 #@! TO.C,R36*
X76505000Y32945556D02*
X76028333Y32612223D01*
X76505000Y32374445D02*
X75505000Y32374445D01*
X75505000Y32755556D01*
X75552778Y32851112D01*
X75600556Y32897778D01*
X75695000Y32945556D01*
X75838333Y32945556D01*
X75933889Y32897778D01*
X75981667Y32851112D01*
X76028333Y32755556D01*
X76028333Y32374445D01*
X75505000Y33345556D02*
X75505000Y33964445D01*
X75886111Y33631112D01*
X75886111Y33774445D01*
X75933889Y33868889D01*
X75981667Y33916667D01*
X76076111Y33964445D01*
X76315000Y33964445D01*
X76409444Y33916667D01*
X76457222Y33868889D01*
X76505000Y33774445D01*
X76505000Y33488889D01*
X76457222Y33393334D01*
X76409444Y33345556D01*
X75505000Y34841112D02*
X75505000Y34650001D01*
X75552778Y34554445D01*
X75600556Y34507778D01*
X75742778Y34412223D01*
X75933889Y34364445D01*
X76315000Y34364445D01*
X76409444Y34412223D01*
X76457222Y34460001D01*
X76505000Y34554445D01*
X76505000Y34745556D01*
X76457222Y34841112D01*
X76409444Y34887778D01*
X76315000Y34935556D01*
X76076111Y34935556D01*
X75981667Y34887778D01*
X75933889Y34841112D01*
X75886111Y34745556D01*
X75886111Y34554445D01*
X75933889Y34460001D01*
X75981667Y34412223D01*
X76076111Y34364445D01*
G04 #@! TO.C,R35*
X10465000Y25960556D02*
X9988333Y25627223D01*
X10465000Y25389445D02*
X9465000Y25389445D01*
X9465000Y25770556D01*
X9512778Y25866112D01*
X9560556Y25912778D01*
X9655000Y25960556D01*
X9798333Y25960556D01*
X9893889Y25912778D01*
X9941667Y25866112D01*
X9988333Y25770556D01*
X9988333Y25389445D01*
X9465000Y26360556D02*
X9465000Y26979445D01*
X9846111Y26646112D01*
X9846111Y26789445D01*
X9893889Y26883889D01*
X9941667Y26931667D01*
X10036111Y26979445D01*
X10275000Y26979445D01*
X10369444Y26931667D01*
X10417222Y26883889D01*
X10465000Y26789445D01*
X10465000Y26503889D01*
X10417222Y26408334D01*
X10369444Y26360556D01*
X9465000Y27902778D02*
X9465000Y27427223D01*
X9941667Y27379445D01*
X9893889Y27427223D01*
X9846111Y27522778D01*
X9846111Y27760556D01*
X9893889Y27856112D01*
X9941667Y27902778D01*
X10036111Y27950556D01*
X10275000Y27950556D01*
X10369444Y27902778D01*
X10417222Y27856112D01*
X10465000Y27760556D01*
X10465000Y27522778D01*
X10417222Y27427223D01*
X10369444Y27379445D01*
G04 #@! TO.C,C11*
X48164444Y14503334D02*
X48212222Y14455556D01*
X48260000Y14313334D01*
X48260000Y14217778D01*
X48212222Y14074445D01*
X48116667Y13980001D01*
X48022222Y13932223D01*
X47831111Y13884445D01*
X47688889Y13884445D01*
X47497778Y13932223D01*
X47403333Y13980001D01*
X47307778Y14074445D01*
X47260000Y14217778D01*
X47260000Y14313334D01*
X47307778Y14455556D01*
X47355556Y14503334D01*
X48260000Y15474445D02*
X48260000Y14903334D01*
X48260000Y15188890D02*
X47260000Y15188890D01*
X47403333Y15093334D01*
X47497778Y14998890D01*
X47545556Y14903334D01*
X48260000Y16445556D02*
X48260000Y15874445D01*
X48260000Y16160001D02*
X47260000Y16160001D01*
X47403333Y16064445D01*
X47497778Y15970001D01*
X47545556Y15874445D01*
G04 #@! TO.C,R61*
X71005000Y4394445D02*
X70528333Y4061112D01*
X71005000Y3823334D02*
X70005000Y3823334D01*
X70005000Y4204445D01*
X70052778Y4300001D01*
X70100556Y4346667D01*
X70195000Y4394445D01*
X70338333Y4394445D01*
X70433889Y4346667D01*
X70481667Y4300001D01*
X70528333Y4204445D01*
X70528333Y3823334D01*
X70005000Y5271112D02*
X70005000Y5080001D01*
X70052778Y4984445D01*
X70100556Y4937778D01*
X70242778Y4842223D01*
X70433889Y4794445D01*
X70815000Y4794445D01*
X70909444Y4842223D01*
X70957222Y4890001D01*
X71005000Y4984445D01*
X71005000Y5175556D01*
X70957222Y5271112D01*
X70909444Y5317778D01*
X70815000Y5365556D01*
X70576111Y5365556D01*
X70481667Y5317778D01*
X70433889Y5271112D01*
X70386111Y5175556D01*
X70386111Y4984445D01*
X70433889Y4890001D01*
X70481667Y4842223D01*
X70576111Y4794445D01*
X71005000Y6336667D02*
X71005000Y5765556D01*
X71005000Y6051112D02*
X70005000Y6051112D01*
X70148333Y5955556D01*
X70242778Y5861112D01*
X70290556Y5765556D01*
G04 #@! TO.C,C12*
X64674444Y6374445D02*
X64722222Y6326667D01*
X64770000Y6184445D01*
X64770000Y6088889D01*
X64722222Y5945556D01*
X64626667Y5851112D01*
X64532222Y5803334D01*
X64341111Y5755556D01*
X64198889Y5755556D01*
X64007778Y5803334D01*
X63913333Y5851112D01*
X63817778Y5945556D01*
X63770000Y6088889D01*
X63770000Y6184445D01*
X63817778Y6326667D01*
X63865556Y6374445D01*
X64770000Y7345556D02*
X64770000Y6774445D01*
X64770000Y7060001D02*
X63770000Y7060001D01*
X63913333Y6964445D01*
X64007778Y6870001D01*
X64055556Y6774445D01*
X63865556Y7793334D02*
X63817778Y7841112D01*
X63770000Y7935556D01*
X63770000Y8174445D01*
X63817778Y8268889D01*
X63865556Y8316667D01*
X63960000Y8364445D01*
X64055556Y8364445D01*
X64198889Y8316667D01*
X64770000Y7745556D01*
X64770000Y8364445D01*
G04 #@! TO.C,R34*
X4505000Y25936667D02*
X4028333Y25603334D01*
X4505000Y25365556D02*
X3505000Y25365556D01*
X3505000Y25746667D01*
X3552778Y25842223D01*
X3600556Y25888889D01*
X3695000Y25936667D01*
X3838333Y25936667D01*
X3933889Y25888889D01*
X3981667Y25842223D01*
X4028333Y25746667D01*
X4028333Y25365556D01*
X3505000Y26336667D02*
X3505000Y26955556D01*
X3886111Y26622223D01*
X3886111Y26765556D01*
X3933889Y26860000D01*
X3981667Y26907778D01*
X4076111Y26955556D01*
X4315000Y26955556D01*
X4409444Y26907778D01*
X4457222Y26860000D01*
X4505000Y26765556D01*
X4505000Y26480000D01*
X4457222Y26384445D01*
X4409444Y26336667D01*
X3838333Y27832223D02*
X4505000Y27832223D01*
X3457222Y27593334D02*
X4171667Y27355556D01*
X4171667Y27974445D01*
G04 #@! TO.C,R54*
X46720000Y7850556D02*
X46243333Y7517223D01*
X46720000Y7279445D02*
X45720000Y7279445D01*
X45720000Y7660556D01*
X45767778Y7756112D01*
X45815556Y7802778D01*
X45910000Y7850556D01*
X46053333Y7850556D01*
X46148889Y7802778D01*
X46196667Y7756112D01*
X46243333Y7660556D01*
X46243333Y7279445D01*
X45720000Y8773889D02*
X45720000Y8298334D01*
X46196667Y8250556D01*
X46148889Y8298334D01*
X46101111Y8393889D01*
X46101111Y8631667D01*
X46148889Y8727223D01*
X46196667Y8773889D01*
X46291111Y8821667D01*
X46530000Y8821667D01*
X46624444Y8773889D01*
X46672222Y8727223D01*
X46720000Y8631667D01*
X46720000Y8393889D01*
X46672222Y8298334D01*
X46624444Y8250556D01*
X46053333Y9698334D02*
X46720000Y9698334D01*
X45672222Y9459445D02*
X46386667Y9221667D01*
X46386667Y9840556D01*
G04 #@! TO.C,R46*
X41970000Y20880556D02*
X41493333Y20547223D01*
X41970000Y20309445D02*
X40970000Y20309445D01*
X40970000Y20690556D01*
X41017778Y20786112D01*
X41065556Y20832778D01*
X41160000Y20880556D01*
X41303333Y20880556D01*
X41398889Y20832778D01*
X41446667Y20786112D01*
X41493333Y20690556D01*
X41493333Y20309445D01*
X41303333Y21757223D02*
X41970000Y21757223D01*
X40922222Y21518334D02*
X41636667Y21280556D01*
X41636667Y21899445D01*
X40970000Y22776112D02*
X40970000Y22585001D01*
X41017778Y22489445D01*
X41065556Y22442778D01*
X41207778Y22347223D01*
X41398889Y22299445D01*
X41780000Y22299445D01*
X41874444Y22347223D01*
X41922222Y22395001D01*
X41970000Y22489445D01*
X41970000Y22680556D01*
X41922222Y22776112D01*
X41874444Y22822778D01*
X41780000Y22870556D01*
X41541111Y22870556D01*
X41446667Y22822778D01*
X41398889Y22776112D01*
X41351111Y22680556D01*
X41351111Y22489445D01*
X41398889Y22395001D01*
X41446667Y22347223D01*
X41541111Y22299445D01*
G04 #@! TO.C,R56*
X64084445Y14935000D02*
X63751112Y15411667D01*
X63513334Y14935000D02*
X63513334Y15935000D01*
X63894445Y15935000D01*
X63990001Y15887222D01*
X64036667Y15839444D01*
X64084445Y15745000D01*
X64084445Y15601667D01*
X64036667Y15506111D01*
X63990001Y15458333D01*
X63894445Y15411667D01*
X63513334Y15411667D01*
X65007778Y15935000D02*
X64532223Y15935000D01*
X64484445Y15458333D01*
X64532223Y15506111D01*
X64627778Y15553889D01*
X64865556Y15553889D01*
X64961112Y15506111D01*
X65007778Y15458333D01*
X65055556Y15363889D01*
X65055556Y15125000D01*
X65007778Y15030556D01*
X64961112Y14982778D01*
X64865556Y14935000D01*
X64627778Y14935000D01*
X64532223Y14982778D01*
X64484445Y15030556D01*
X65932223Y15935000D02*
X65741112Y15935000D01*
X65645556Y15887222D01*
X65598889Y15839444D01*
X65503334Y15697222D01*
X65455556Y15506111D01*
X65455556Y15125000D01*
X65503334Y15030556D01*
X65551112Y14982778D01*
X65645556Y14935000D01*
X65836667Y14935000D01*
X65932223Y14982778D01*
X65978889Y15030556D01*
X66026667Y15125000D01*
X66026667Y15363889D01*
X65978889Y15458333D01*
X65932223Y15506111D01*
X65836667Y15553889D01*
X65645556Y15553889D01*
X65551112Y15506111D01*
X65503334Y15458333D01*
X65455556Y15363889D01*
G04 #@! TO.C,R52*
X43875000Y2465556D02*
X43398333Y2132223D01*
X43875000Y1894445D02*
X42875000Y1894445D01*
X42875000Y2275556D01*
X42922778Y2371112D01*
X42970556Y2417778D01*
X43065000Y2465556D01*
X43208333Y2465556D01*
X43303889Y2417778D01*
X43351667Y2371112D01*
X43398333Y2275556D01*
X43398333Y1894445D01*
X42875000Y3388889D02*
X42875000Y2913334D01*
X43351667Y2865556D01*
X43303889Y2913334D01*
X43256111Y3008889D01*
X43256111Y3246667D01*
X43303889Y3342223D01*
X43351667Y3388889D01*
X43446111Y3436667D01*
X43685000Y3436667D01*
X43779444Y3388889D01*
X43827222Y3342223D01*
X43875000Y3246667D01*
X43875000Y3008889D01*
X43827222Y2913334D01*
X43779444Y2865556D01*
X42970556Y3884445D02*
X42922778Y3932223D01*
X42875000Y4026667D01*
X42875000Y4265556D01*
X42922778Y4360000D01*
X42970556Y4407778D01*
X43065000Y4455556D01*
X43160556Y4455556D01*
X43303889Y4407778D01*
X43875000Y3836667D01*
X43875000Y4455556D01*
G04 #@! TO.C,C10*
X47834444Y20293334D02*
X47882222Y20245556D01*
X47930000Y20103334D01*
X47930000Y20007778D01*
X47882222Y19864445D01*
X47786667Y19770001D01*
X47692222Y19722223D01*
X47501111Y19674445D01*
X47358889Y19674445D01*
X47167778Y19722223D01*
X47073333Y19770001D01*
X46977778Y19864445D01*
X46930000Y20007778D01*
X46930000Y20103334D01*
X46977778Y20245556D01*
X47025556Y20293334D01*
X47930000Y21264445D02*
X47930000Y20693334D01*
X47930000Y20978890D02*
X46930000Y20978890D01*
X47073333Y20883334D01*
X47167778Y20788890D01*
X47215556Y20693334D01*
X46930000Y21902223D02*
X46930000Y21997778D01*
X46977778Y22093334D01*
X47025556Y22141112D01*
X47120000Y22187778D01*
X47311111Y22235556D01*
X47548889Y22235556D01*
X47740000Y22187778D01*
X47834444Y22141112D01*
X47882222Y22093334D01*
X47930000Y21997778D01*
X47930000Y21902223D01*
X47882222Y21807778D01*
X47834444Y21760001D01*
X47740000Y21712223D01*
X47548889Y21664445D01*
X47311111Y21664445D01*
X47120000Y21712223D01*
X47025556Y21760001D01*
X46977778Y21807778D01*
X46930000Y21902223D01*
G04 #@! TO.C,C9*
X5044444Y20778889D02*
X5092222Y20731111D01*
X5140000Y20588889D01*
X5140000Y20493333D01*
X5092222Y20350000D01*
X4996667Y20255556D01*
X4902222Y20207778D01*
X4711111Y20160000D01*
X4568889Y20160000D01*
X4377778Y20207778D01*
X4283333Y20255556D01*
X4187778Y20350000D01*
X4140000Y20493333D01*
X4140000Y20588889D01*
X4187778Y20731111D01*
X4235556Y20778889D01*
X5140000Y21274445D02*
X5140000Y21464445D01*
X5092222Y21560000D01*
X5044444Y21607778D01*
X4902222Y21702222D01*
X4711111Y21750000D01*
X4330000Y21750000D01*
X4235556Y21702222D01*
X4187778Y21655556D01*
X4140000Y21560000D01*
X4140000Y21368889D01*
X4187778Y21274445D01*
X4235556Y21226667D01*
X4330000Y21178889D01*
X4568889Y21178889D01*
X4663333Y21226667D01*
X4711111Y21274445D01*
X4758889Y21368889D01*
X4758889Y21560000D01*
X4711111Y21655556D01*
X4663333Y21702222D01*
X4568889Y21750000D01*
G04 #@! TO.C,R13*
X11100000Y19610556D02*
X10623333Y19277223D01*
X11100000Y19039445D02*
X10100000Y19039445D01*
X10100000Y19420556D01*
X10147778Y19516112D01*
X10195556Y19562778D01*
X10290000Y19610556D01*
X10433333Y19610556D01*
X10528889Y19562778D01*
X10576667Y19516112D01*
X10623333Y19420556D01*
X10623333Y19039445D01*
X11100000Y20581667D02*
X11100000Y20010556D01*
X11100000Y20296112D02*
X10100000Y20296112D01*
X10243333Y20200556D01*
X10337778Y20106112D01*
X10385556Y20010556D01*
X10100000Y20981667D02*
X10100000Y21600556D01*
X10481111Y21267223D01*
X10481111Y21410556D01*
X10528889Y21505000D01*
X10576667Y21552778D01*
X10671111Y21600556D01*
X10910000Y21600556D01*
X11004444Y21552778D01*
X11052222Y21505000D01*
X11100000Y21410556D01*
X11100000Y21125000D01*
X11052222Y21029445D01*
X11004444Y20981667D01*
G04 #@! TO.C,R18*
X10465000Y12014445D02*
X9988333Y11681112D01*
X10465000Y11443334D02*
X9465000Y11443334D01*
X9465000Y11824445D01*
X9512778Y11920001D01*
X9560556Y11966667D01*
X9655000Y12014445D01*
X9798333Y12014445D01*
X9893889Y11966667D01*
X9941667Y11920001D01*
X9988333Y11824445D01*
X9988333Y11443334D01*
X10465000Y12985556D02*
X10465000Y12414445D01*
X10465000Y12700001D02*
X9465000Y12700001D01*
X9608333Y12604445D01*
X9702778Y12510001D01*
X9750556Y12414445D01*
X9893889Y13575556D02*
X9846111Y13481112D01*
X9798333Y13433334D01*
X9702778Y13385556D01*
X9655000Y13385556D01*
X9560556Y13433334D01*
X9512778Y13481112D01*
X9465000Y13575556D01*
X9465000Y13766667D01*
X9512778Y13862223D01*
X9560556Y13908889D01*
X9655000Y13956667D01*
X9702778Y13956667D01*
X9798333Y13908889D01*
X9846111Y13862223D01*
X9893889Y13766667D01*
X9893889Y13575556D01*
X9941667Y13481112D01*
X9988333Y13433334D01*
X10083889Y13385556D01*
X10275000Y13385556D01*
X10369444Y13433334D01*
X10417222Y13481112D01*
X10465000Y13575556D01*
X10465000Y13766667D01*
X10417222Y13862223D01*
X10369444Y13908889D01*
X10275000Y13956667D01*
X10083889Y13956667D01*
X9988333Y13908889D01*
X9941667Y13862223D01*
X9893889Y13766667D01*
G04 #@! TO.C,C7*
X7396111Y15275556D02*
X7348333Y15227778D01*
X7206111Y15180000D01*
X7110555Y15180000D01*
X6967222Y15227778D01*
X6872778Y15323333D01*
X6825000Y15417778D01*
X6777222Y15608889D01*
X6777222Y15751111D01*
X6825000Y15942222D01*
X6872778Y16036667D01*
X6967222Y16132222D01*
X7110555Y16180000D01*
X7206111Y16180000D01*
X7348333Y16132222D01*
X7396111Y16084444D01*
X7796111Y16180000D02*
X8462778Y16180000D01*
X8033889Y15180000D01*
G04 #@! TO.C,R48*
X39675000Y28500556D02*
X39198333Y28167223D01*
X39675000Y27929445D02*
X38675000Y27929445D01*
X38675000Y28310556D01*
X38722778Y28406112D01*
X38770556Y28452778D01*
X38865000Y28500556D01*
X39008333Y28500556D01*
X39103889Y28452778D01*
X39151667Y28406112D01*
X39198333Y28310556D01*
X39198333Y27929445D01*
X39008333Y29377223D02*
X39675000Y29377223D01*
X38627222Y29138334D02*
X39341667Y28900556D01*
X39341667Y29519445D01*
X39103889Y30109445D02*
X39056111Y30015001D01*
X39008333Y29967223D01*
X38912778Y29919445D01*
X38865000Y29919445D01*
X38770556Y29967223D01*
X38722778Y30015001D01*
X38675000Y30109445D01*
X38675000Y30300556D01*
X38722778Y30396112D01*
X38770556Y30442778D01*
X38865000Y30490556D01*
X38912778Y30490556D01*
X39008333Y30442778D01*
X39056111Y30396112D01*
X39103889Y30300556D01*
X39103889Y30109445D01*
X39151667Y30015001D01*
X39198333Y29967223D01*
X39293889Y29919445D01*
X39485000Y29919445D01*
X39579444Y29967223D01*
X39627222Y30015001D01*
X39675000Y30109445D01*
X39675000Y30300556D01*
X39627222Y30396112D01*
X39579444Y30442778D01*
X39485000Y30490556D01*
X39293889Y30490556D01*
X39198333Y30442778D01*
X39151667Y30396112D01*
X39103889Y30300556D01*
G04 #@! TO.C,C16*
X77679444Y10133334D02*
X77727222Y10085556D01*
X77775000Y9943334D01*
X77775000Y9847778D01*
X77727222Y9704445D01*
X77631667Y9610001D01*
X77537222Y9562223D01*
X77346111Y9514445D01*
X77203889Y9514445D01*
X77012778Y9562223D01*
X76918333Y9610001D01*
X76822778Y9704445D01*
X76775000Y9847778D01*
X76775000Y9943334D01*
X76822778Y10085556D01*
X76870556Y10133334D01*
X77775000Y11104445D02*
X77775000Y10533334D01*
X77775000Y10818890D02*
X76775000Y10818890D01*
X76918333Y10723334D01*
X77012778Y10628890D01*
X77060556Y10533334D01*
X76775000Y11981112D02*
X76775000Y11790001D01*
X76822778Y11694445D01*
X76870556Y11647778D01*
X77012778Y11552223D01*
X77203889Y11504445D01*
X77585000Y11504445D01*
X77679444Y11552223D01*
X77727222Y11600001D01*
X77775000Y11694445D01*
X77775000Y11885556D01*
X77727222Y11981112D01*
X77679444Y12027778D01*
X77585000Y12075556D01*
X77346111Y12075556D01*
X77251667Y12027778D01*
X77203889Y11981112D01*
X77156111Y11885556D01*
X77156111Y11694445D01*
X77203889Y11600001D01*
X77251667Y11552223D01*
X77346111Y11504445D01*
G04 #@! TO.C,R39*
X13395000Y11990556D02*
X12918333Y11657223D01*
X13395000Y11419445D02*
X12395000Y11419445D01*
X12395000Y11800556D01*
X12442778Y11896112D01*
X12490556Y11942778D01*
X12585000Y11990556D01*
X12728333Y11990556D01*
X12823889Y11942778D01*
X12871667Y11896112D01*
X12918333Y11800556D01*
X12918333Y11419445D01*
X12395000Y12390556D02*
X12395000Y13009445D01*
X12776111Y12676112D01*
X12776111Y12819445D01*
X12823889Y12913889D01*
X12871667Y12961667D01*
X12966111Y13009445D01*
X13205000Y13009445D01*
X13299444Y12961667D01*
X13347222Y12913889D01*
X13395000Y12819445D01*
X13395000Y12533889D01*
X13347222Y12438334D01*
X13299444Y12390556D01*
X13395000Y13505001D02*
X13395000Y13695001D01*
X13347222Y13790556D01*
X13299444Y13838334D01*
X13157222Y13932778D01*
X12966111Y13980556D01*
X12585000Y13980556D01*
X12490556Y13932778D01*
X12442778Y13886112D01*
X12395000Y13790556D01*
X12395000Y13599445D01*
X12442778Y13505001D01*
X12490556Y13457223D01*
X12585000Y13409445D01*
X12823889Y13409445D01*
X12918333Y13457223D01*
X12966111Y13505001D01*
X13013889Y13599445D01*
X13013889Y13790556D01*
X12966111Y13886112D01*
X12918333Y13932778D01*
X12823889Y13980556D01*
G04 #@! TO.C,C17*
X56479444Y19610556D02*
X56527222Y19562778D01*
X56575000Y19420556D01*
X56575000Y19325000D01*
X56527222Y19181667D01*
X56431667Y19087223D01*
X56337222Y19039445D01*
X56146111Y18991667D01*
X56003889Y18991667D01*
X55812778Y19039445D01*
X55718333Y19087223D01*
X55622778Y19181667D01*
X55575000Y19325000D01*
X55575000Y19420556D01*
X55622778Y19562778D01*
X55670556Y19610556D01*
X56575000Y20581667D02*
X56575000Y20010556D01*
X56575000Y20296112D02*
X55575000Y20296112D01*
X55718333Y20200556D01*
X55812778Y20106112D01*
X55860556Y20010556D01*
X55575000Y20981667D02*
X55575000Y21648334D01*
X56575000Y21219445D01*
G04 #@! TO.C,R49*
X41160000Y14530556D02*
X40683333Y14197223D01*
X41160000Y13959445D02*
X40160000Y13959445D01*
X40160000Y14340556D01*
X40207778Y14436112D01*
X40255556Y14482778D01*
X40350000Y14530556D01*
X40493333Y14530556D01*
X40588889Y14482778D01*
X40636667Y14436112D01*
X40683333Y14340556D01*
X40683333Y13959445D01*
X40493333Y15407223D02*
X41160000Y15407223D01*
X40112222Y15168334D02*
X40826667Y14930556D01*
X40826667Y15549445D01*
X41160000Y16045001D02*
X41160000Y16235001D01*
X41112222Y16330556D01*
X41064444Y16378334D01*
X40922222Y16472778D01*
X40731111Y16520556D01*
X40350000Y16520556D01*
X40255556Y16472778D01*
X40207778Y16426112D01*
X40160000Y16330556D01*
X40160000Y16139445D01*
X40207778Y16045001D01*
X40255556Y15997223D01*
X40350000Y15949445D01*
X40588889Y15949445D01*
X40683333Y15997223D01*
X40731111Y16045001D01*
X40778889Y16139445D01*
X40778889Y16330556D01*
X40731111Y16426112D01*
X40683333Y16472778D01*
X40588889Y16520556D01*
G04 #@! TO.C,R51*
X40945000Y2489445D02*
X40468333Y2156112D01*
X40945000Y1918334D02*
X39945000Y1918334D01*
X39945000Y2299445D01*
X39992778Y2395001D01*
X40040556Y2441667D01*
X40135000Y2489445D01*
X40278333Y2489445D01*
X40373889Y2441667D01*
X40421667Y2395001D01*
X40468333Y2299445D01*
X40468333Y1918334D01*
X39945000Y3412778D02*
X39945000Y2937223D01*
X40421667Y2889445D01*
X40373889Y2937223D01*
X40326111Y3032778D01*
X40326111Y3270556D01*
X40373889Y3366112D01*
X40421667Y3412778D01*
X40516111Y3460556D01*
X40755000Y3460556D01*
X40849444Y3412778D01*
X40897222Y3366112D01*
X40945000Y3270556D01*
X40945000Y3032778D01*
X40897222Y2937223D01*
X40849444Y2889445D01*
X40945000Y4431667D02*
X40945000Y3860556D01*
X40945000Y4146112D02*
X39945000Y4146112D01*
X40088333Y4050556D01*
X40182778Y3956112D01*
X40230556Y3860556D01*
G04 #@! TO.C,R55*
X46720000Y11074445D02*
X46243333Y10741112D01*
X46720000Y10503334D02*
X45720000Y10503334D01*
X45720000Y10884445D01*
X45767778Y10980001D01*
X45815556Y11026667D01*
X45910000Y11074445D01*
X46053333Y11074445D01*
X46148889Y11026667D01*
X46196667Y10980001D01*
X46243333Y10884445D01*
X46243333Y10503334D01*
X45720000Y11997778D02*
X45720000Y11522223D01*
X46196667Y11474445D01*
X46148889Y11522223D01*
X46101111Y11617778D01*
X46101111Y11855556D01*
X46148889Y11951112D01*
X46196667Y11997778D01*
X46291111Y12045556D01*
X46530000Y12045556D01*
X46624444Y11997778D01*
X46672222Y11951112D01*
X46720000Y11855556D01*
X46720000Y11617778D01*
X46672222Y11522223D01*
X46624444Y11474445D01*
X45720000Y12968889D02*
X45720000Y12493334D01*
X46196667Y12445556D01*
X46148889Y12493334D01*
X46101111Y12588889D01*
X46101111Y12826667D01*
X46148889Y12922223D01*
X46196667Y12968889D01*
X46291111Y13016667D01*
X46530000Y13016667D01*
X46624444Y12968889D01*
X46672222Y12922223D01*
X46720000Y12826667D01*
X46720000Y12588889D01*
X46672222Y12493334D01*
X46624444Y12445556D01*
G04 #@! TO.C,C14*
X73609445Y15665556D02*
X73561667Y15617778D01*
X73419445Y15570000D01*
X73323889Y15570000D01*
X73180556Y15617778D01*
X73086112Y15713333D01*
X73038334Y15807778D01*
X72990556Y15998889D01*
X72990556Y16141111D01*
X73038334Y16332222D01*
X73086112Y16426667D01*
X73180556Y16522222D01*
X73323889Y16570000D01*
X73419445Y16570000D01*
X73561667Y16522222D01*
X73609445Y16474444D01*
X74580556Y15570000D02*
X74009445Y15570000D01*
X74295001Y15570000D02*
X74295001Y16570000D01*
X74199445Y16426667D01*
X74105001Y16332222D01*
X74009445Y16284444D01*
X75457223Y16236667D02*
X75457223Y15570000D01*
X75218334Y16617778D02*
X74980556Y15903333D01*
X75599445Y15903333D01*
G04 #@! TO.C,R50*
X41580000Y10109445D02*
X41103333Y9776112D01*
X41580000Y9538334D02*
X40580000Y9538334D01*
X40580000Y9919445D01*
X40627778Y10015001D01*
X40675556Y10061667D01*
X40770000Y10109445D01*
X40913333Y10109445D01*
X41008889Y10061667D01*
X41056667Y10015001D01*
X41103333Y9919445D01*
X41103333Y9538334D01*
X40580000Y11032778D02*
X40580000Y10557223D01*
X41056667Y10509445D01*
X41008889Y10557223D01*
X40961111Y10652778D01*
X40961111Y10890556D01*
X41008889Y10986112D01*
X41056667Y11032778D01*
X41151111Y11080556D01*
X41390000Y11080556D01*
X41484444Y11032778D01*
X41532222Y10986112D01*
X41580000Y10890556D01*
X41580000Y10652778D01*
X41532222Y10557223D01*
X41484444Y10509445D01*
X40580000Y11718334D02*
X40580000Y11813889D01*
X40627778Y11909445D01*
X40675556Y11957223D01*
X40770000Y12003889D01*
X40961111Y12051667D01*
X41198889Y12051667D01*
X41390000Y12003889D01*
X41484444Y11957223D01*
X41532222Y11909445D01*
X41580000Y11813889D01*
X41580000Y11718334D01*
X41532222Y11623889D01*
X41484444Y11576112D01*
X41390000Y11528334D01*
X41198889Y11480556D01*
X40961111Y11480556D01*
X40770000Y11528334D01*
X40675556Y11576112D01*
X40627778Y11623889D01*
X40580000Y11718334D01*
G04 #@! TO.C,R53*
X42390000Y16435556D02*
X41913333Y16102223D01*
X42390000Y15864445D02*
X41390000Y15864445D01*
X41390000Y16245556D01*
X41437778Y16341112D01*
X41485556Y16387778D01*
X41580000Y16435556D01*
X41723333Y16435556D01*
X41818889Y16387778D01*
X41866667Y16341112D01*
X41913333Y16245556D01*
X41913333Y15864445D01*
X41390000Y17358889D02*
X41390000Y16883334D01*
X41866667Y16835556D01*
X41818889Y16883334D01*
X41771111Y16978889D01*
X41771111Y17216667D01*
X41818889Y17312223D01*
X41866667Y17358889D01*
X41961111Y17406667D01*
X42200000Y17406667D01*
X42294444Y17358889D01*
X42342222Y17312223D01*
X42390000Y17216667D01*
X42390000Y16978889D01*
X42342222Y16883334D01*
X42294444Y16835556D01*
X41390000Y17806667D02*
X41390000Y18425556D01*
X41771111Y18092223D01*
X41771111Y18235556D01*
X41818889Y18330000D01*
X41866667Y18377778D01*
X41961111Y18425556D01*
X42200000Y18425556D01*
X42294444Y18377778D01*
X42342222Y18330000D01*
X42390000Y18235556D01*
X42390000Y17950000D01*
X42342222Y17854445D01*
X42294444Y17806667D01*
G04 #@! TO.C,C2*
X30585000Y28035556D02*
X30537222Y27987778D01*
X30395000Y27940000D01*
X30299444Y27940000D01*
X30156111Y27987778D01*
X30061667Y28083333D01*
X30013889Y28177778D01*
X29966111Y28368889D01*
X29966111Y28511111D01*
X30013889Y28702222D01*
X30061667Y28796667D01*
X30156111Y28892222D01*
X30299444Y28940000D01*
X30395000Y28940000D01*
X30537222Y28892222D01*
X30585000Y28844444D01*
X31032778Y28844444D02*
X31080556Y28892222D01*
X31175000Y28940000D01*
X31413889Y28940000D01*
X31508333Y28892222D01*
X31556111Y28844444D01*
X31603889Y28750000D01*
X31603889Y28654444D01*
X31556111Y28511111D01*
X30985000Y27940000D01*
X31603889Y27940000D01*
G04 #@! TO.C,R2*
X76505000Y19461111D02*
X76028333Y19127778D01*
X76505000Y18890000D02*
X75505000Y18890000D01*
X75505000Y19271111D01*
X75552778Y19366667D01*
X75600556Y19413333D01*
X75695000Y19461111D01*
X75838333Y19461111D01*
X75933889Y19413333D01*
X75981667Y19366667D01*
X76028333Y19271111D01*
X76028333Y18890000D01*
X75600556Y19908889D02*
X75552778Y19956667D01*
X75505000Y20051111D01*
X75505000Y20290000D01*
X75552778Y20384444D01*
X75600556Y20432222D01*
X75695000Y20480000D01*
X75790556Y20480000D01*
X75933889Y20432222D01*
X76505000Y19861111D01*
X76505000Y20480000D01*
G04 #@! TO.C,R16*
X76505000Y39954445D02*
X76028333Y39621112D01*
X76505000Y39383334D02*
X75505000Y39383334D01*
X75505000Y39764445D01*
X75552778Y39860001D01*
X75600556Y39906667D01*
X75695000Y39954445D01*
X75838333Y39954445D01*
X75933889Y39906667D01*
X75981667Y39860001D01*
X76028333Y39764445D01*
X76028333Y39383334D01*
X76505000Y40925556D02*
X76505000Y40354445D01*
X76505000Y40640001D02*
X75505000Y40640001D01*
X75648333Y40544445D01*
X75742778Y40450001D01*
X75790556Y40354445D01*
X75505000Y41802223D02*
X75505000Y41611112D01*
X75552778Y41515556D01*
X75600556Y41468889D01*
X75742778Y41373334D01*
X75933889Y41325556D01*
X76315000Y41325556D01*
X76409444Y41373334D01*
X76457222Y41421112D01*
X76505000Y41515556D01*
X76505000Y41706667D01*
X76457222Y41802223D01*
X76409444Y41848889D01*
X76315000Y41896667D01*
X76076111Y41896667D01*
X75981667Y41848889D01*
X75933889Y41802223D01*
X75886111Y41706667D01*
X75886111Y41515556D01*
X75933889Y41421112D01*
X75981667Y41373334D01*
X76076111Y41325556D01*
G04 #@! TO.C,R42*
X16240000Y17351667D02*
X15763333Y17018334D01*
X16240000Y16780556D02*
X15240000Y16780556D01*
X15240000Y17161667D01*
X15287778Y17257223D01*
X15335556Y17303889D01*
X15430000Y17351667D01*
X15573333Y17351667D01*
X15668889Y17303889D01*
X15716667Y17257223D01*
X15763333Y17161667D01*
X15763333Y16780556D01*
X15573333Y18228334D02*
X16240000Y18228334D01*
X15192222Y17989445D02*
X15906667Y17751667D01*
X15906667Y18370556D01*
X15335556Y18818334D02*
X15287778Y18866112D01*
X15240000Y18960556D01*
X15240000Y19199445D01*
X15287778Y19293889D01*
X15335556Y19341667D01*
X15430000Y19389445D01*
X15525556Y19389445D01*
X15668889Y19341667D01*
X16240000Y18770556D01*
X16240000Y19389445D01*
G04 #@! TO.C,R17*
X76505000Y51336667D02*
X76028333Y51003334D01*
X76505000Y50765556D02*
X75505000Y50765556D01*
X75505000Y51146667D01*
X75552778Y51242223D01*
X75600556Y51288889D01*
X75695000Y51336667D01*
X75838333Y51336667D01*
X75933889Y51288889D01*
X75981667Y51242223D01*
X76028333Y51146667D01*
X76028333Y50765556D01*
X76505000Y52307778D02*
X76505000Y51736667D01*
X76505000Y52022223D02*
X75505000Y52022223D01*
X75648333Y51926667D01*
X75742778Y51832223D01*
X75790556Y51736667D01*
X75505000Y52707778D02*
X75505000Y53374445D01*
X76505000Y52945556D01*
G04 #@! TO.C,R40*
X76505000Y23420556D02*
X76028333Y23087223D01*
X76505000Y22849445D02*
X75505000Y22849445D01*
X75505000Y23230556D01*
X75552778Y23326112D01*
X75600556Y23372778D01*
X75695000Y23420556D01*
X75838333Y23420556D01*
X75933889Y23372778D01*
X75981667Y23326112D01*
X76028333Y23230556D01*
X76028333Y22849445D01*
X75838333Y24297223D02*
X76505000Y24297223D01*
X75457222Y24058334D02*
X76171667Y23820556D01*
X76171667Y24439445D01*
X75505000Y25077223D02*
X75505000Y25172778D01*
X75552778Y25268334D01*
X75600556Y25316112D01*
X75695000Y25362778D01*
X75886111Y25410556D01*
X76123889Y25410556D01*
X76315000Y25362778D01*
X76409444Y25316112D01*
X76457222Y25268334D01*
X76505000Y25172778D01*
X76505000Y25077223D01*
X76457222Y24982778D01*
X76409444Y24935001D01*
X76315000Y24887223D01*
X76123889Y24839445D01*
X75886111Y24839445D01*
X75695000Y24887223D01*
X75600556Y24935001D01*
X75552778Y24982778D01*
X75505000Y25077223D01*
G04 #@! TO.C,C15*
X35524444Y10768334D02*
X35572222Y10720556D01*
X35620000Y10578334D01*
X35620000Y10482778D01*
X35572222Y10339445D01*
X35476667Y10245001D01*
X35382222Y10197223D01*
X35191111Y10149445D01*
X35048889Y10149445D01*
X34857778Y10197223D01*
X34763333Y10245001D01*
X34667778Y10339445D01*
X34620000Y10482778D01*
X34620000Y10578334D01*
X34667778Y10720556D01*
X34715556Y10768334D01*
X35620000Y11739445D02*
X35620000Y11168334D01*
X35620000Y11453890D02*
X34620000Y11453890D01*
X34763333Y11358334D01*
X34857778Y11263890D01*
X34905556Y11168334D01*
X34620000Y12662778D02*
X34620000Y12187223D01*
X35096667Y12139445D01*
X35048889Y12187223D01*
X35001111Y12282778D01*
X35001111Y12520556D01*
X35048889Y12616112D01*
X35096667Y12662778D01*
X35191111Y12710556D01*
X35430000Y12710556D01*
X35524444Y12662778D01*
X35572222Y12616112D01*
X35620000Y12520556D01*
X35620000Y12282778D01*
X35572222Y12187223D01*
X35524444Y12139445D01*
G04 #@! TO.C,R38*
X76505000Y55805556D02*
X76028333Y55472223D01*
X76505000Y55234445D02*
X75505000Y55234445D01*
X75505000Y55615556D01*
X75552778Y55711112D01*
X75600556Y55757778D01*
X75695000Y55805556D01*
X75838333Y55805556D01*
X75933889Y55757778D01*
X75981667Y55711112D01*
X76028333Y55615556D01*
X76028333Y55234445D01*
X75505000Y56205556D02*
X75505000Y56824445D01*
X75886111Y56491112D01*
X75886111Y56634445D01*
X75933889Y56728889D01*
X75981667Y56776667D01*
X76076111Y56824445D01*
X76315000Y56824445D01*
X76409444Y56776667D01*
X76457222Y56728889D01*
X76505000Y56634445D01*
X76505000Y56348889D01*
X76457222Y56253334D01*
X76409444Y56205556D01*
X75933889Y57414445D02*
X75886111Y57320001D01*
X75838333Y57272223D01*
X75742778Y57224445D01*
X75695000Y57224445D01*
X75600556Y57272223D01*
X75552778Y57320001D01*
X75505000Y57414445D01*
X75505000Y57605556D01*
X75552778Y57701112D01*
X75600556Y57747778D01*
X75695000Y57795556D01*
X75742778Y57795556D01*
X75838333Y57747778D01*
X75886111Y57701112D01*
X75933889Y57605556D01*
X75933889Y57414445D01*
X75981667Y57320001D01*
X76028333Y57272223D01*
X76123889Y57224445D01*
X76315000Y57224445D01*
X76409444Y57272223D01*
X76457222Y57320001D01*
X76505000Y57414445D01*
X76505000Y57605556D01*
X76457222Y57701112D01*
X76409444Y57747778D01*
X76315000Y57795556D01*
X76123889Y57795556D01*
X76028333Y57747778D01*
X75981667Y57701112D01*
X75933889Y57605556D01*
G04 #@! TO.C,R41*
X11910000Y25960556D02*
X11433333Y25627223D01*
X11910000Y25389445D02*
X10910000Y25389445D01*
X10910000Y25770556D01*
X10957778Y25866112D01*
X11005556Y25912778D01*
X11100000Y25960556D01*
X11243333Y25960556D01*
X11338889Y25912778D01*
X11386667Y25866112D01*
X11433333Y25770556D01*
X11433333Y25389445D01*
X11243333Y26837223D02*
X11910000Y26837223D01*
X10862222Y26598334D02*
X11576667Y26360556D01*
X11576667Y26979445D01*
X11910000Y27950556D02*
X11910000Y27379445D01*
X11910000Y27665001D02*
X10910000Y27665001D01*
X11053333Y27569445D01*
X11147778Y27475001D01*
X11195556Y27379445D01*
G04 #@! TO.C,R57*
X62230000Y9731667D02*
X61753333Y9398334D01*
X62230000Y9160556D02*
X61230000Y9160556D01*
X61230000Y9541667D01*
X61277778Y9637223D01*
X61325556Y9683889D01*
X61420000Y9731667D01*
X61563333Y9731667D01*
X61658889Y9683889D01*
X61706667Y9637223D01*
X61753333Y9541667D01*
X61753333Y9160556D01*
X61230000Y10655000D02*
X61230000Y10179445D01*
X61706667Y10131667D01*
X61658889Y10179445D01*
X61611111Y10275000D01*
X61611111Y10512778D01*
X61658889Y10608334D01*
X61706667Y10655000D01*
X61801111Y10702778D01*
X62040000Y10702778D01*
X62134444Y10655000D01*
X62182222Y10608334D01*
X62230000Y10512778D01*
X62230000Y10275000D01*
X62182222Y10179445D01*
X62134444Y10131667D01*
X61230000Y11102778D02*
X61230000Y11769445D01*
X62230000Y11340556D01*
G04 #@! TO.C,R44*
X34191667Y25095000D02*
X33858334Y25571667D01*
X33620556Y25095000D02*
X33620556Y26095000D01*
X34001667Y26095000D01*
X34097223Y26047222D01*
X34143889Y25999444D01*
X34191667Y25905000D01*
X34191667Y25761667D01*
X34143889Y25666111D01*
X34097223Y25618333D01*
X34001667Y25571667D01*
X33620556Y25571667D01*
X35068334Y25761667D02*
X35068334Y25095000D01*
X34829445Y26142778D02*
X34591667Y25428333D01*
X35210556Y25428333D01*
X36087223Y25761667D02*
X36087223Y25095000D01*
X35848334Y26142778D02*
X35610556Y25428333D01*
X36229445Y25428333D01*
G04 #@! TO.C,C4*
X17684444Y24490000D02*
X17732222Y24442222D01*
X17780000Y24300000D01*
X17780000Y24204444D01*
X17732222Y24061111D01*
X17636667Y23966667D01*
X17542222Y23918889D01*
X17351111Y23871111D01*
X17208889Y23871111D01*
X17017778Y23918889D01*
X16923333Y23966667D01*
X16827778Y24061111D01*
X16780000Y24204444D01*
X16780000Y24300000D01*
X16827778Y24442222D01*
X16875556Y24490000D01*
X17113333Y25366667D02*
X17780000Y25366667D01*
X16732222Y25127778D02*
X17446667Y24890000D01*
X17446667Y25508889D01*
G04 #@! TO.C,C1*
X59899444Y15698889D02*
X59947222Y15651111D01*
X59995000Y15508889D01*
X59995000Y15413333D01*
X59947222Y15270000D01*
X59851667Y15175556D01*
X59757222Y15127778D01*
X59566111Y15080000D01*
X59423889Y15080000D01*
X59232778Y15127778D01*
X59138333Y15175556D01*
X59042778Y15270000D01*
X58995000Y15413333D01*
X58995000Y15508889D01*
X59042778Y15651111D01*
X59090556Y15698889D01*
X59995000Y16670000D02*
X59995000Y16098889D01*
X59995000Y16384445D02*
X58995000Y16384445D01*
X59138333Y16288889D01*
X59232778Y16194445D01*
X59280556Y16098889D01*
G04 #@! TO.C,C8*
X44273889Y25825556D02*
X44226111Y25777778D01*
X44083889Y25730000D01*
X43988333Y25730000D01*
X43845000Y25777778D01*
X43750556Y25873333D01*
X43702778Y25967778D01*
X43655000Y26158889D01*
X43655000Y26301111D01*
X43702778Y26492222D01*
X43750556Y26586667D01*
X43845000Y26682222D01*
X43988333Y26730000D01*
X44083889Y26730000D01*
X44226111Y26682222D01*
X44273889Y26634444D01*
X44863889Y26301111D02*
X44769445Y26348889D01*
X44721667Y26396667D01*
X44673889Y26492222D01*
X44673889Y26540000D01*
X44721667Y26634444D01*
X44769445Y26682222D01*
X44863889Y26730000D01*
X45055000Y26730000D01*
X45150556Y26682222D01*
X45197222Y26634444D01*
X45245000Y26540000D01*
X45245000Y26492222D01*
X45197222Y26396667D01*
X45150556Y26348889D01*
X45055000Y26301111D01*
X44863889Y26301111D01*
X44769445Y26253333D01*
X44721667Y26206667D01*
X44673889Y26111111D01*
X44673889Y25920000D01*
X44721667Y25825556D01*
X44769445Y25777778D01*
X44863889Y25730000D01*
X45055000Y25730000D01*
X45150556Y25777778D01*
X45197222Y25825556D01*
X45245000Y25920000D01*
X45245000Y26111111D01*
X45197222Y26206667D01*
X45150556Y26253333D01*
X45055000Y26301111D01*
%LPC*%
D15*
G04 #@! TO.C,R47*
X41910000Y23975000D03*
X41910000Y26825000D03*
G04 #@! TO.C,R59*
X71755000Y13815000D03*
X71755000Y16665000D03*
D16*
G04 #@! TO.C,C13*
X36040000Y8255000D03*
X38890000Y8255000D03*
G04 #@! TO.C,R45*
X33500000Y20955000D03*
X36350000Y20955000D03*
D17*
G04 #@! TO.C,?12*
X68215000Y12380000D03*
X68215000Y10480000D03*
X70215000Y11430000D03*
D18*
G04 #@! TO.C,C3*
X22860000Y20360000D03*
X22860000Y17740000D03*
D19*
G04 #@! TO.C,Q2*
X82550000Y36195000D03*
X82550000Y33655000D03*
D20*
X82550000Y31115000D03*
D21*
G04 #@! TO.C,J5*
X74930000Y76835000D03*
D22*
X49530000Y76835000D03*
X57150000Y76835000D03*
X67310000Y76835000D03*
X36830000Y76835000D03*
X59690000Y76835000D03*
X54610000Y76835000D03*
X64770000Y76835000D03*
X52070000Y76835000D03*
X69850000Y76835000D03*
X34290000Y76835000D03*
X62230000Y76835000D03*
X41910000Y76835000D03*
X39370000Y76835000D03*
X44450000Y76835000D03*
X72390000Y76835000D03*
X46990000Y76835000D03*
D15*
G04 #@! TO.C,R15*
X78105000Y30635000D03*
X78105000Y27785000D03*
D23*
G04 #@! TO.C,J9*
X12255000Y85250000D03*
X12255000Y95250000D03*
D18*
G04 #@! TO.C,C6*
X53340000Y10835000D03*
X53340000Y8215000D03*
D24*
G04 #@! TO.C,C5*
X38045000Y17145000D03*
X31805000Y17145000D03*
D15*
G04 #@! TO.C,R37*
X78105000Y46510000D03*
X78105000Y43660000D03*
D22*
G04 #@! TO.C,J1*
X19685000Y10160000D03*
X22225000Y10160000D03*
X27305000Y10160000D03*
X17145000Y10160000D03*
X29845000Y10160000D03*
D21*
X14605000Y10160000D03*
D22*
X24765000Y10160000D03*
X32385000Y10160000D03*
D15*
G04 #@! TO.C,R58*
X73025000Y9370000D03*
X73025000Y12220000D03*
G04 #@! TO.C,R60*
X69215000Y16665000D03*
X69215000Y13815000D03*
D25*
G04 #@! TO.C,U1*
X48895000Y48895000D03*
D26*
X38735000Y48895000D03*
X43815000Y31115000D03*
X46355000Y48895000D03*
D25*
X23495000Y48895000D03*
D26*
X5715000Y31115000D03*
D25*
X23495000Y31115000D03*
X10795000Y48895000D03*
D26*
X26035000Y48895000D03*
X13335000Y48895000D03*
X51435000Y48895000D03*
X28575000Y31115000D03*
X53975000Y31115000D03*
D25*
X48895000Y31115000D03*
D26*
X18415000Y48895000D03*
X46355000Y31115000D03*
D25*
X10795000Y31115000D03*
D26*
X15875000Y31115000D03*
X33655000Y31115000D03*
X18415000Y31115000D03*
X38735000Y31115000D03*
X20955000Y48895000D03*
X35545000Y39421000D03*
D25*
X35545000Y36881000D03*
D26*
X33655000Y48895000D03*
D25*
X36195000Y48895000D03*
X36195000Y31115000D03*
D26*
X51435000Y31115000D03*
X31115000Y31115000D03*
X13335000Y31115000D03*
X8255000Y31115000D03*
X41275000Y48895000D03*
X31115000Y48895000D03*
X35545000Y34340900D03*
X20955000Y31115000D03*
X5715000Y48895000D03*
X53975000Y48895000D03*
X41275000Y31115000D03*
X26035000Y31115000D03*
X15875000Y48895000D03*
X8255000Y48895000D03*
X43815000Y48895000D03*
X28575000Y48895000D03*
D16*
G04 #@! TO.C,R43*
X19840000Y20955000D03*
X16990000Y20955000D03*
D27*
G04 #@! TO.C,U7*
X59420252Y22536150D03*
X57419748Y22536150D03*
X57919874Y18103850D03*
X58420000Y18103850D03*
X58920126Y18103850D03*
X57419748Y18103850D03*
X58420000Y22536150D03*
X58920126Y22536150D03*
X57919874Y22536150D03*
X59420252Y18103850D03*
D15*
G04 #@! TO.C,R36*
X78105000Y35080000D03*
X78105000Y32230000D03*
D28*
G04 #@! TO.C,J6*
X1905000Y8255000D03*
X1905000Y13335000D03*
X1905000Y10795000D03*
D29*
X1905000Y15875000D03*
D15*
G04 #@! TO.C,R35*
X8255000Y28095000D03*
X8255000Y25245000D03*
D17*
G04 #@! TO.C,?9*
X38370000Y22540000D03*
X38370000Y20640000D03*
X40370000Y21590000D03*
D24*
G04 #@! TO.C,C11*
X44505000Y15240000D03*
X50745000Y15240000D03*
D30*
G04 #@! TO.C,R61*
X70485000Y7280000D03*
X70485000Y9230000D03*
D24*
G04 #@! TO.C,C12*
X67890000Y6985000D03*
X61650000Y6985000D03*
D17*
G04 #@! TO.C,?7*
X13700000Y19370000D03*
X13700000Y21270000D03*
X11700000Y20320000D03*
D31*
G04 #@! TO.C,U2*
X50088800Y56515000D03*
X59131200Y65405000D03*
X59131200Y57785000D03*
X59131200Y56515000D03*
X59131200Y69215000D03*
X50088800Y55245000D03*
X50088800Y65405000D03*
X59131200Y59055000D03*
X50088800Y66675000D03*
X50088800Y69215000D03*
X59131200Y66675000D03*
X59131200Y61595000D03*
X50088800Y59055000D03*
X50088800Y60325000D03*
X50088800Y61595000D03*
X50088800Y64135000D03*
X59131200Y67945000D03*
X50088800Y62865000D03*
X59131200Y64135000D03*
X50088800Y67945000D03*
X59131200Y60325000D03*
X59131200Y62865000D03*
X59131200Y55245000D03*
X50088800Y57785000D03*
D15*
G04 #@! TO.C,R34*
X5715000Y25245000D03*
X5715000Y28095000D03*
D16*
G04 #@! TO.C,R54*
X47470000Y8890000D03*
X50320000Y8890000D03*
D15*
G04 #@! TO.C,R46*
X43180000Y19530000D03*
X43180000Y22380000D03*
D16*
G04 #@! TO.C,R56*
X66195000Y13335000D03*
X63345000Y13335000D03*
D15*
G04 #@! TO.C,R52*
X43180000Y5560000D03*
X43180000Y8410000D03*
D28*
G04 #@! TO.C,J2*
X70485000Y34290000D03*
X70485000Y36830000D03*
X70485000Y39370000D03*
D29*
X70485000Y41910000D03*
D28*
X70485000Y31750000D03*
X70485000Y29210000D03*
D15*
G04 #@! TO.C,C10*
X45720000Y22380000D03*
X45720000Y19530000D03*
G04 #@! TO.C,C9*
X6350000Y19530000D03*
X6350000Y22380000D03*
G04 #@! TO.C,R13*
X8890000Y22380000D03*
X8890000Y19530000D03*
G04 #@! TO.C,R18*
X10160000Y17935000D03*
X10160000Y15085000D03*
D17*
G04 #@! TO.C,?10*
X44180000Y9845000D03*
X44180000Y11745000D03*
X42180000Y10795000D03*
D19*
G04 #@! TO.C,Q1*
X82550000Y24765000D03*
X82550000Y22225000D03*
D20*
X82550000Y19685000D03*
D16*
G04 #@! TO.C,C7*
X5560000Y17780000D03*
X8410000Y17780000D03*
D15*
G04 #@! TO.C,R48*
X39370000Y26825000D03*
X39370000Y23975000D03*
D19*
G04 #@! TO.C,Q3*
X82550000Y47625000D03*
X82550000Y45085000D03*
D20*
X82550000Y42545000D03*
D15*
G04 #@! TO.C,C16*
X75565000Y12220000D03*
X75565000Y9370000D03*
G04 #@! TO.C,R39*
X12700000Y15085000D03*
X12700000Y17935000D03*
D32*
G04 #@! TO.C,U4*
X24384000Y21250001D03*
X24384000Y23199999D03*
X30226000Y21250001D03*
X30226000Y22550001D03*
X24384000Y22550001D03*
X30226000Y23199999D03*
X24384000Y21899999D03*
X30226000Y21899999D03*
G04 #@! TO.C,U6*
X54864000Y11725001D03*
X54864000Y13674999D03*
X60706000Y11725001D03*
X60706000Y13025001D03*
X54864000Y13025001D03*
X60706000Y13674999D03*
X54864000Y12374999D03*
X60706000Y12374999D03*
D15*
G04 #@! TO.C,C17*
X53975000Y18895000D03*
X53975000Y21745000D03*
D30*
G04 #@! TO.C,R49*
X40640000Y17440000D03*
X40640000Y19390000D03*
D19*
G04 #@! TO.C,Q4*
X82550000Y59055000D03*
X82550000Y56515000D03*
D20*
X82550000Y53975000D03*
D15*
G04 #@! TO.C,R51*
X40640000Y8410000D03*
X40640000Y5560000D03*
D16*
G04 #@! TO.C,R55*
X50320000Y11430000D03*
X47470000Y11430000D03*
G04 #@! TO.C,C14*
X76355000Y13970000D03*
X73505000Y13970000D03*
D15*
G04 #@! TO.C,R50*
X39370000Y12855000D03*
X39370000Y10005000D03*
D30*
G04 #@! TO.C,R53*
X41910000Y14945000D03*
X41910000Y12995000D03*
D15*
G04 #@! TO.C,C2*
X31115000Y26825000D03*
X31115000Y23975000D03*
D23*
G04 #@! TO.C,?8*
X20170000Y85535000D03*
X80170000Y85535000D03*
X70170000Y85535000D03*
X50170000Y85535000D03*
X90170000Y85535000D03*
X60170000Y85535000D03*
X30170000Y85535000D03*
X40170000Y85535000D03*
D15*
G04 #@! TO.C,R2*
X78105000Y21110000D03*
X78105000Y18260000D03*
G04 #@! TO.C,R16*
X78105000Y42065000D03*
X78105000Y39215000D03*
D21*
G04 #@! TO.C,J4*
X74930000Y73660000D03*
D22*
X49530000Y73660000D03*
X57150000Y73660000D03*
X67310000Y73660000D03*
X36830000Y73660000D03*
X59690000Y73660000D03*
X54610000Y73660000D03*
X64770000Y73660000D03*
X52070000Y73660000D03*
X69850000Y73660000D03*
X34290000Y73660000D03*
X62230000Y73660000D03*
X41910000Y73660000D03*
X39370000Y73660000D03*
X44450000Y73660000D03*
X72390000Y73660000D03*
X46990000Y73660000D03*
D16*
G04 #@! TO.C,R42*
X16990000Y18415000D03*
X19840000Y18415000D03*
D15*
G04 #@! TO.C,R17*
X78105000Y53495000D03*
X78105000Y50645000D03*
G04 #@! TO.C,R40*
X78105000Y25555000D03*
X78105000Y22705000D03*
G04 #@! TO.C,C15*
X36830000Y10005000D03*
X36830000Y12855000D03*
G04 #@! TO.C,R38*
X78105000Y57940000D03*
X78105000Y55090000D03*
D30*
G04 #@! TO.C,R41*
X11430000Y24470000D03*
X11430000Y22520000D03*
D16*
G04 #@! TO.C,R57*
X63345000Y10795000D03*
X66195000Y10795000D03*
G04 #@! TO.C,R44*
X36350000Y23495000D03*
X33500000Y23495000D03*
D21*
G04 #@! TO.C,J3*
X12065000Y76835000D03*
D22*
X27305000Y76835000D03*
X22225000Y76835000D03*
X14605000Y76835000D03*
X19685000Y76835000D03*
X24765000Y76835000D03*
X17145000Y76835000D03*
D28*
G04 #@! TO.C,J7*
X1905000Y19050000D03*
X1905000Y24130000D03*
X1905000Y21590000D03*
D29*
X1905000Y26670000D03*
D24*
G04 #@! TO.C,C4*
X14025000Y24765000D03*
X20265000Y24765000D03*
D15*
G04 #@! TO.C,C1*
X61595000Y17300000D03*
X61595000Y14450000D03*
D16*
G04 #@! TO.C,C8*
X46510000Y24130000D03*
X43660000Y24130000D03*
D23*
G04 #@! TD*
X63500000Y50800000D03*
X97155000Y3810000D03*
X4445000Y4445000D03*
X97790000Y97155000D03*
X4445000Y78105000D03*
G04 --- BOARD END --- *
G04 #@! TF.MD5,c61b86b102c4f67a75c7591dfae00fb2*
M02*
