G04 --- HEADER BEGIN --- *
G04 #@! TF.GenerationSoftware,LibrePCB,LibrePCB,2.0.1*
G04 #@! TF.CreationDate,2026-06-02T08:27:26*
G04 #@! TF.ProjectId,PGDI,eecefd22-67af-4534-92f1-4d94143f8d19,v1*
G04 #@! TF.Part,Single*
G04 #@! TF.SameCoordinates*
G04 #@! TF.FileFunction,Copper,L2,Bot*
G04 #@! TF.FilePolarity,Positive*
%FSLAX66Y66*%
%MOMM*%
G01*
G75*
G04 --- HEADER END --- *
G04 --- APERTURE LIST BEGIN --- *
G04 #@! TA.AperFunction,ComponentPad*
%ADD10O,3.5X1.9*%
%ADD11R,3.5X1.9*%
%ADD12R,1.587X2.19*%
%ADD13O,1.587X2.19*%
%ADD14C,3.0*%
%ADD15R,1.7X1.7*%
%ADD16C,1.7*%
%ADD17O,2.19X1.587*%
%ADD18R,2.19X1.587*%
G04 #@! TA.AperFunction,ViaPad*
%ADD19C,1.0*%
G04 #@! TA.AperFunction,Conductor*
%ADD20C,0.5*%
%ADD21C,2.0*%
G04 #@! TD*
G04 --- APERTURE LIST END --- *
G04 --- BOARD BEGIN --- *
D10*
G04 #@! TO.N,N19*
G04 #@! TO.C,Q2*
G04 #@! TO.P,Q2,3,S*
X82550000Y36195000D03*
G04 #@! TO.N,N50*
G04 #@! TO.P,Q2,2,D*
X82550000Y33655000D03*
D11*
G04 #@! TO.N,N9*
G04 #@! TO.P,Q2,1,G*
X82550000Y31115000D03*
D12*
G04 #@! TO.N,N11*
G04 #@! TO.C,J5*
G04 #@! TO.P,J5,1,1*
X74930000Y76835000D03*
D13*
G04 #@! TO.P,J5,11,11*
X49530000Y76835000D03*
G04 #@! TO.P,J5,8,8*
X57150000Y76835000D03*
G04 #@! TO.P,J5,4,4*
X67310000Y76835000D03*
G04 #@! TO.P,J5,16,16*
X36830000Y76835000D03*
G04 #@! TO.P,J5,7,7*
X59690000Y76835000D03*
G04 #@! TO.P,J5,9,9*
X54610000Y76835000D03*
G04 #@! TO.P,J5,5,5*
X64770000Y76835000D03*
G04 #@! TO.P,J5,10,10*
X52070000Y76835000D03*
G04 #@! TO.P,J5,3,3*
X69850000Y76835000D03*
G04 #@! TO.P,J5,17,17*
X34290000Y76835000D03*
G04 #@! TO.P,J5,6,6*
X62230000Y76835000D03*
G04 #@! TO.P,J5,14,14*
X41910000Y76835000D03*
G04 #@! TO.P,J5,15,15*
X39370000Y76835000D03*
G04 #@! TO.P,J5,13,13*
X44450000Y76835000D03*
G04 #@! TO.P,J5,2,2*
X72390000Y76835000D03*
G04 #@! TO.P,J5,12,12*
X46990000Y76835000D03*
D14*
G04 #@! TD.P*
G04 #@! TO.N,N/C*
G04 #@! TO.C,J9*
X12255000Y85250000D03*
X12255000Y95250000D03*
D13*
G04 #@! TO.N,N55*
G04 #@! TO.C,J1*
G04 #@! TO.P,J1,3,3*
X19685000Y10160000D03*
G04 #@! TO.N,N66*
G04 #@! TO.P,J1,4,4*
X22225000Y10160000D03*
G04 #@! TO.P,J1,6,6*
X27305000Y10160000D03*
G04 #@! TO.P,J1,2,2*
X17145000Y10160000D03*
G04 #@! TO.N,N98*
G04 #@! TO.P,J1,7,7*
X29845000Y10160000D03*
D12*
G04 #@! TO.N,N16*
G04 #@! TO.P,J1,1,1*
X14605000Y10160000D03*
D13*
G04 #@! TO.N,N72*
G04 #@! TO.P,J1,5,5*
X24765000Y10160000D03*
G04 #@! TO.N,N66*
G04 #@! TO.P,J1,8,8*
X32385000Y10160000D03*
D15*
G04 #@! TO.C,U1*
G04 #@! TO.P,U1,18,GND*
X48895000Y48895000D03*
D16*
G04 #@! TO.N,N30*
G04 #@! TO.P,U1,14,GPIO10*
X38735000Y48895000D03*
G04 #@! TO.N,N/C*
G04 #@! TO.P,U1,25,GPIO19*
X43815000Y31115000D03*
G04 #@! TO.N,N4*
G04 #@! TO.P,U1,17,GPIO13*
X46355000Y48895000D03*
D15*
G04 #@! TO.N,N66*
G04 #@! TO.P,U1,8,GND*
X23495000Y48895000D03*
D16*
G04 #@! TO.N,N/C*
G04 #@! TO.P,U1,40,VBUS_OUT*
X5715000Y31115000D03*
D15*
G04 #@! TO.N,N66*
G04 #@! TO.P,U1,33,GND*
X23495000Y31115000D03*
G04 #@! TO.P,U1,3,GND*
X10795000Y48895000D03*
D16*
G04 #@! TO.N,N7*
G04 #@! TO.P,U1,9,GPIO6*
X26035000Y48895000D03*
G04 #@! TO.N,N3*
G04 #@! TO.P,U1,4,GPIO2*
X13335000Y48895000D03*
G04 #@! TO.N,N70*
G04 #@! TO.P,U1,19,GPIO14*
X51435000Y48895000D03*
G04 #@! TO.N,N43*
G04 #@! TO.P,U1,31,GPIO26*
X28575000Y31115000D03*
G04 #@! TO.N,N60*
G04 #@! TO.P,U1,21,GPIO16*
X53975000Y31115000D03*
D15*
G04 #@! TO.N,N66*
G04 #@! TO.P,U1,23,GND*
X48895000Y31115000D03*
D16*
G04 #@! TO.N,N69*
G04 #@! TO.P,U1,6,GPIO4*
X18415000Y48895000D03*
G04 #@! TO.N,N51*
G04 #@! TO.P,U1,24,GPIO18*
X46355000Y31115000D03*
D15*
G04 #@! TO.N,N66*
G04 #@! TO.P,U1,38,GND*
X10795000Y31115000D03*
D16*
G04 #@! TO.N,N65*
G04 #@! TO.P,U1,36,3V3_OUT*
X15875000Y31115000D03*
G04 #@! TO.N,N67*
G04 #@! TO.P,U1,29,GPIO22*
X33655000Y31115000D03*
G04 #@! TO.N,N/C*
G04 #@! TO.P,U1,35,ADC_VREF*
X18415000Y31115000D03*
G04 #@! TO.N,N25*
G04 #@! TO.P,U1,27,GPIO21*
X38735000Y31115000D03*
G04 #@! TO.N,N21*
G04 #@! TO.P,U1,7,GPIO5*
X20955000Y48895000D03*
G04 #@! TO.N,N/C*
G04 #@! TO.P,U1,D1,SWCLK*
X35545000Y39421000D03*
D15*
G04 #@! TO.N,N66*
G04 #@! TO.P,U1,D2,GND*
X35545000Y36881000D03*
D16*
G04 #@! TO.N,N22*
G04 #@! TO.P,U1,12,GPIO9*
X33655000Y48895000D03*
D15*
G04 #@! TO.N,N66*
G04 #@! TO.P,U1,13,GND*
X36195000Y48895000D03*
G04 #@! TO.P,U1,28,GND*
X36195000Y31115000D03*
D16*
G04 #@! TO.N,N/C*
G04 #@! TO.P,U1,22,GPIO17*
X51435000Y31115000D03*
G04 #@! TO.P,U1,30,RUN*
X31115000Y31115000D03*
G04 #@! TO.P,U1,37,3V3_EN*
X13335000Y31115000D03*
G04 #@! TO.P,U1,39,VSYS*
X8255000Y31115000D03*
G04 #@! TO.N,N59*
G04 #@! TO.P,U1,15,GPIO11*
X41275000Y48895000D03*
G04 #@! TO.N,N23*
G04 #@! TO.P,U1,11,GPIO8*
X31115000Y48895000D03*
G04 #@! TO.N,N/C*
G04 #@! TO.P,U1,D3,SWDIO*
X35545000Y34340900D03*
G04 #@! TO.P,U1,34,GPIO28*
X20955000Y31115000D03*
G04 #@! TO.N,N71*
G04 #@! TO.P,U1,1,GPIO0*
X5715000Y48895000D03*
G04 #@! TO.N,N32*
G04 #@! TO.P,U1,20,GPIO15*
X53975000Y48895000D03*
G04 #@! TO.N,N14*
G04 #@! TO.P,U1,26,GPIO20*
X41275000Y31115000D03*
G04 #@! TO.N,N39*
G04 #@! TO.P,U1,32,GPIO27*
X26035000Y31115000D03*
G04 #@! TO.N,N42*
G04 #@! TO.P,U1,5,GPIO3*
X15875000Y48895000D03*
G04 #@! TO.N,N1*
G04 #@! TO.P,U1,2,GPIO1*
X8255000Y48895000D03*
G04 #@! TO.N,N44*
G04 #@! TO.P,U1,16,GPIO12*
X43815000Y48895000D03*
G04 #@! TO.N,N58*
G04 #@! TO.P,U1,10,GPIO7*
X28575000Y48895000D03*
D17*
G04 #@! TO.N,N25*
G04 #@! TO.C,J6*
G04 #@! TO.P,J6,4,4*
X1905000Y8255000D03*
G04 #@! TO.N,N65*
G04 #@! TO.P,J6,2,2*
X1905000Y13335000D03*
G04 #@! TO.N,N14*
G04 #@! TO.P,J6,3,3*
X1905000Y10795000D03*
D18*
G04 #@! TO.N,N66*
G04 #@! TO.P,J6,1,1*
X1905000Y15875000D03*
D17*
G04 #@! TO.N,N71*
G04 #@! TO.C,J2*
G04 #@! TO.P,J2,4,4*
X70485000Y34290000D03*
G04 #@! TO.N,N66*
G04 #@! TO.P,J2,3,3*
X70485000Y36830000D03*
G04 #@! TO.N,N1*
G04 #@! TO.P,J2,2,2*
X70485000Y39370000D03*
D18*
G04 #@! TO.N,N66*
G04 #@! TO.P,J2,1,1*
X70485000Y41910000D03*
D17*
G04 #@! TO.P,J2,5,5*
X70485000Y31750000D03*
G04 #@! TO.N,N67*
G04 #@! TO.P,J2,6,6*
X70485000Y29210000D03*
D10*
G04 #@! TO.N,N65*
G04 #@! TO.C,Q1*
G04 #@! TO.P,Q1,3,S*
X82550000Y24765000D03*
G04 #@! TO.N,N75*
G04 #@! TO.P,Q1,2,D*
X82550000Y22225000D03*
D11*
G04 #@! TO.N,N2*
G04 #@! TO.P,Q1,1,G*
X82550000Y19685000D03*
D10*
G04 #@! TO.N,N19*
G04 #@! TO.C,Q3*
G04 #@! TO.P,Q3,3,S*
X82550000Y47625000D03*
G04 #@! TO.N,N54*
G04 #@! TO.P,Q3,2,D*
X82550000Y45085000D03*
D11*
G04 #@! TO.N,N15*
G04 #@! TO.P,Q3,1,G*
X82550000Y42545000D03*
D10*
G04 #@! TO.N,N19*
G04 #@! TO.C,Q4*
G04 #@! TO.P,Q4,3,S*
X82550000Y59055000D03*
G04 #@! TO.N,N93*
G04 #@! TO.P,Q4,2,D*
X82550000Y56515000D03*
D11*
G04 #@! TO.N,N8*
G04 #@! TO.P,Q4,1,G*
X82550000Y53975000D03*
D14*
G04 #@! TD.P*
G04 #@! TO.N,N/C*
G04 #@! TO.C,?8*
X20170000Y85535000D03*
X80170000Y85535000D03*
X70170000Y85535000D03*
X50170000Y85535000D03*
X90170000Y85535000D03*
X60170000Y85535000D03*
X30170000Y85535000D03*
X40170000Y85535000D03*
D12*
G04 #@! TO.N,N66*
G04 #@! TO.C,J4*
G04 #@! TO.P,J4,1,1*
X74930000Y73660000D03*
D13*
G04 #@! TO.N,N12*
G04 #@! TO.P,J4,11,11*
X49530000Y73660000D03*
G04 #@! TO.N,N52*
G04 #@! TO.P,J4,8,8*
X57150000Y73660000D03*
G04 #@! TO.N,N111*
G04 #@! TO.P,J4,4,4*
X67310000Y73660000D03*
G04 #@! TO.N,N46*
G04 #@! TO.P,J4,16,16*
X36830000Y73660000D03*
G04 #@! TO.N,N17*
G04 #@! TO.P,J4,7,7*
X59690000Y73660000D03*
G04 #@! TO.N,N110*
G04 #@! TO.P,J4,9,9*
X54610000Y73660000D03*
G04 #@! TO.N,N20*
G04 #@! TO.P,J4,5,5*
X64770000Y73660000D03*
G04 #@! TO.N,N96*
G04 #@! TO.P,J4,10,10*
X52070000Y73660000D03*
G04 #@! TO.N,N53*
G04 #@! TO.P,J4,3,3*
X69850000Y73660000D03*
G04 #@! TO.N,N84*
G04 #@! TO.P,J4,17,17*
X34290000Y73660000D03*
G04 #@! TO.N,N102*
G04 #@! TO.P,J4,6,6*
X62230000Y73660000D03*
G04 #@! TO.N,N48*
G04 #@! TO.P,J4,14,14*
X41910000Y73660000D03*
G04 #@! TO.N,N85*
G04 #@! TO.P,J4,15,15*
X39370000Y73660000D03*
G04 #@! TO.N,N18*
G04 #@! TO.P,J4,13,13*
X44450000Y73660000D03*
G04 #@! TO.N,N10*
G04 #@! TO.P,J4,2,2*
X72390000Y73660000D03*
G04 #@! TO.N,N81*
G04 #@! TO.P,J4,12,12*
X46990000Y73660000D03*
D12*
G04 #@! TO.N,N32*
G04 #@! TO.C,J3*
G04 #@! TO.P,J3,1,1*
X12065000Y76835000D03*
D13*
G04 #@! TO.N,N65*
G04 #@! TO.P,J3,7,7*
X27305000Y76835000D03*
G04 #@! TO.N,N4*
G04 #@! TO.P,J3,5,5*
X22225000Y76835000D03*
G04 #@! TO.N,N30*
G04 #@! TO.P,J3,2,2*
X14605000Y76835000D03*
G04 #@! TO.N,N44*
G04 #@! TO.P,J3,4,4*
X19685000Y76835000D03*
G04 #@! TO.N,N66*
G04 #@! TO.P,J3,6,6*
X24765000Y76835000D03*
G04 #@! TO.N,N59*
G04 #@! TO.P,J3,3,3*
X17145000Y76835000D03*
D17*
G04 #@! TO.N,N66*
G04 #@! TO.C,J7*
G04 #@! TO.P,J7,4,4*
X1905000Y19050000D03*
G04 #@! TO.N,N51*
G04 #@! TO.P,J7,2,2*
X1905000Y24130000D03*
G04 #@! TO.N,N13*
G04 #@! TO.P,J7,3,3*
X1905000Y21590000D03*
D18*
G04 #@! TO.N,N65*
G04 #@! TO.P,J7,1,1*
X1905000Y26670000D03*
D19*
G04 #@! TD.C*
G04 #@! TD.P*
G04 #@! TO.N,N45*
X57785000Y15240000D03*
X54610000Y15240000D03*
D20*
X57785000Y15240000D02*
X54610000Y15240000D01*
D19*
G04 #@! TO.N,N14*
X41275000Y35560000D03*
X5080000Y10795000D03*
D20*
X5080000Y10795000D02*
X5080000Y35560000D01*
X41275000Y35560000D02*
X5080000Y35560000D01*
D19*
G04 #@! TO.N,N51*
X13970000Y34290000D03*
X46355000Y34290000D03*
D20*
X13970000Y34290000D02*
X46355000Y34290000D01*
D19*
G04 #@! TO.N,N65*
X71755000Y17780000D03*
X43815000Y26035000D03*
X78740000Y15875000D03*
X73505000Y15875000D03*
D20*
X43815000Y26035000D02*
X71755000Y26035000D01*
X78740000Y15875000D02*
X73505000Y15875000D01*
X71755000Y17780000D02*
X71755000Y26035000D01*
D19*
G04 #@! TO.N,N25*
X38100000Y38100000D03*
X3810000Y8255000D03*
D20*
X38100000Y38100000D02*
X3810000Y38100000D01*
X3810000Y8255000D02*
X3810000Y38100000D01*
D19*
G04 #@! TO.N,N1*
X67945000Y39370000D03*
X53340000Y39370000D03*
D20*
X67945000Y39370000D02*
X53340000Y39370000D01*
D19*
G04 #@! TO.N,N67*
X53340000Y36830000D03*
X66675000Y29210000D03*
D20*
X53340000Y36830000D02*
X66675000Y36830000D01*
X66675000Y29210000D02*
X66675000Y36830000D01*
D19*
G04 #@! TO.N,N60*
X53975000Y32385000D03*
X9525000Y29210000D03*
D20*
X53975000Y32385000D02*
X53975000Y33020000D01*
X9525000Y33020000D02*
X53975000Y33020000D01*
X9525000Y29210000D02*
X9525000Y33020000D01*
D19*
G04 #@! TO.N,N3*
X41910000Y41910000D03*
X27940000Y41910000D03*
D20*
X41910000Y41910000D02*
X27940000Y41910000D01*
D19*
G04 #@! TO.N,N39*
X26035000Y27940000D03*
X24765000Y24765000D03*
D20*
X24765000Y24765000D02*
X26035000Y24765000D01*
X26035000Y27940000D02*
X26035000Y24765000D01*
D19*
G04 #@! TO.N,N65*
X87630000Y36195000D03*
X85725000Y59055000D03*
X87630000Y24765000D03*
X87630000Y47625000D03*
D21*
X87630000Y47625000D02*
X87630000Y53340000D01*
X87630000Y36195000D02*
X87630000Y47625000D01*
X85725000Y53340000D02*
X87630000Y53340000D01*
X87630000Y36195000D02*
X87630000Y24765000D01*
X85725000Y59055000D02*
X85725000Y53340000D01*
D19*
G04 #@! TO.N,N43*
X28575000Y27940000D03*
X29845000Y20320000D03*
D20*
X28575000Y27940000D02*
X28575000Y20320000D01*
X29845000Y20320000D02*
X28575000Y20320000D01*
D19*
G04 #@! TO.N,N70*
X51435000Y52705000D03*
X61595000Y55245000D03*
D20*
X60960000Y52705000D02*
X60960000Y55245000D01*
X61595000Y55245000D02*
X60960000Y55245000D01*
X51435000Y52705000D02*
X60960000Y52705000D01*
D19*
G04 #@! TO.N,N66*
X33020000Y40005000D03*
X39370000Y25400000D03*
X48895000Y8890000D03*
X24130000Y17145000D03*
X69215000Y15240000D03*
X22225000Y13335000D03*
X34925000Y23495000D03*
X36195000Y26035000D03*
X48895000Y50800000D03*
X54610000Y7620000D03*
X55880000Y2540000D03*
X36195000Y50800000D03*
X43180000Y6985000D03*
X69215000Y19685000D03*
X18415000Y18415000D03*
X22225000Y27940000D03*
D20*
X36195000Y26035000D02*
X36195000Y25400000D01*
X36195000Y50800000D02*
X34925000Y50800000D01*
X33020000Y40005000D02*
X43180000Y40005000D01*
X55880000Y7620000D02*
X55880000Y6985000D01*
X22225000Y27940000D02*
X22225000Y16510000D01*
X24130000Y17145000D02*
X24130000Y16510000D01*
X48895000Y8890000D02*
X48895000Y6985000D01*
X24130000Y16510000D02*
X22225000Y16510000D01*
X22225000Y16510000D02*
X18415000Y16510000D01*
X55880000Y2540000D02*
X55880000Y6985000D01*
X22225000Y13335000D02*
X22225000Y16510000D01*
X39370000Y25400000D02*
X36195000Y25400000D01*
X43180000Y40005000D02*
X43180000Y46990000D01*
X34925000Y46990000D02*
X43180000Y46990000D01*
X48895000Y50800000D02*
X47625000Y50800000D01*
X36195000Y25400000D02*
X34925000Y25400000D01*
X34925000Y23495000D02*
X34925000Y25400000D01*
X47625000Y46990000D02*
X43180000Y46990000D01*
X69215000Y15240000D02*
X69215000Y19685000D01*
X54610000Y7620000D02*
X55880000Y7620000D01*
X34925000Y50800000D02*
X34925000Y46990000D01*
X48895000Y6985000D02*
X55880000Y6985000D01*
X47625000Y46990000D02*
X47625000Y50800000D01*
X18415000Y18415000D02*
X18415000Y16510000D01*
X43180000Y6985000D02*
X48895000Y6985000D01*
D19*
G04 #@! TO.N,N71*
X67945000Y34290000D03*
X53340000Y38100000D03*
D20*
X67945000Y34290000D02*
X67945000Y38100000D01*
X53340000Y38100000D02*
X67945000Y38100000D01*
D19*
G04 #@! TO.N,N57*
X60325000Y10160000D03*
X59690000Y17145000D03*
D20*
X59690000Y17145000D02*
X59690000Y10160000D01*
X60325000Y10160000D02*
X59690000Y10160000D01*
G04 --- BOARD END --- *
G04 #@! TF.MD5,a92b9cb52ef8810019b473cc0756499f*
M02*
