G04 --- HEADER BEGIN --- *
G04 #@! TF.GenerationSoftware,LibrePCB,LibrePCB,2.0.1*
G04 #@! TF.CreationDate,2026-06-02T08:27:26*
G04 #@! TF.ProjectId,PGDI,eecefd22-67af-4534-92f1-4d94143f8d19,v1*
G04 #@! TF.Part,Single*
G04 #@! TF.SameCoordinates*
G04 #@! TF.FileFunction,Soldermask,Bot*
G04 #@! TF.FilePolarity,Negative*
%FSLAX66Y66*%
%MOMM*%
G01*
G75*
G04 --- HEADER END --- *
G04 --- APERTURE LIST BEGIN --- *
%ADD10O,3.7X2.1*%
%AMROUNDEDRECT11*20,1,2.1,-1.75,0.0,1.75,0.0,0.0*20,1,1.9,-1.85,0.0,1.85,0.0,0.0*1,1,0.2,-1.75,0.95*1,1,0.2,1.75,0.95*1,1,0.2,1.75,-0.95*1,1,0.2,-1.75,-0.95*%
%ADD11ROUNDEDRECT11*%
%AMROUNDEDRECT12*20,1,1.787,-1.095,0.0,1.095,0.0,90.0*20,1,1.587,-1.195,0.0,1.195,0.0,90.0*1,1,0.2,-0.7935,-1.095*1,1,0.2,-0.7935,1.095*1,1,0.2,0.7935,1.095*1,1,0.2,0.7935,-1.095*%
%ADD12ROUNDEDRECT12*%
%ADD13O,1.787X2.39*%
%ADD14C,3.2*%
%AMROUNDEDRECT15*20,1,1.9,-0.85,0.0,0.85,0.0,0.0*20,1,1.7,-0.95,0.0,0.95,0.0,0.0*1,1,0.2,-0.85,0.85*1,1,0.2,0.85,0.85*1,1,0.2,0.85,-0.85*1,1,0.2,-0.85,-0.85*%
%ADD15ROUNDEDRECT15*%
%ADD16C,1.9*%
%ADD17O,2.39X1.787*%
%AMROUNDEDRECT18*20,1,1.787,-1.095,0.0,1.095,0.0,0.0*20,1,1.587,-1.195,0.0,1.195,0.0,0.0*1,1,0.2,-1.095,0.7935*1,1,0.2,1.095,0.7935*1,1,0.2,1.095,-0.7935*1,1,0.2,-1.095,-0.7935*%
%ADD18ROUNDEDRECT18*%
G04 --- APERTURE LIST END --- *
G04 --- BOARD BEGIN --- *
D10*
G04 #@! TO.C,Q2*
X82550000Y36195000D03*
X82550000Y33655000D03*
D11*
X82550000Y31115000D03*
D12*
G04 #@! TO.C,J5*
X74930000Y76835000D03*
D13*
X49530000Y76835000D03*
X57150000Y76835000D03*
X67310000Y76835000D03*
X36830000Y76835000D03*
X59690000Y76835000D03*
X54610000Y76835000D03*
X64770000Y76835000D03*
X52070000Y76835000D03*
X69850000Y76835000D03*
X34290000Y76835000D03*
X62230000Y76835000D03*
X41910000Y76835000D03*
X39370000Y76835000D03*
X44450000Y76835000D03*
X72390000Y76835000D03*
X46990000Y76835000D03*
D14*
G04 #@! TO.C,J9*
X12255000Y85250000D03*
X12255000Y95250000D03*
D13*
G04 #@! TO.C,J1*
X19685000Y10160000D03*
X22225000Y10160000D03*
X27305000Y10160000D03*
X17145000Y10160000D03*
X29845000Y10160000D03*
D12*
X14605000Y10160000D03*
D13*
X24765000Y10160000D03*
X32385000Y10160000D03*
D15*
G04 #@! TO.C,U1*
X48895000Y48895000D03*
D16*
X38735000Y48895000D03*
X43815000Y31115000D03*
X46355000Y48895000D03*
D15*
X23495000Y48895000D03*
D16*
X5715000Y31115000D03*
D15*
X23495000Y31115000D03*
X10795000Y48895000D03*
D16*
X26035000Y48895000D03*
X13335000Y48895000D03*
X51435000Y48895000D03*
X28575000Y31115000D03*
X53975000Y31115000D03*
D15*
X48895000Y31115000D03*
D16*
X18415000Y48895000D03*
X46355000Y31115000D03*
D15*
X10795000Y31115000D03*
D16*
X15875000Y31115000D03*
X33655000Y31115000D03*
X18415000Y31115000D03*
X38735000Y31115000D03*
X20955000Y48895000D03*
X35545000Y39421000D03*
D15*
X35545000Y36881000D03*
D16*
X33655000Y48895000D03*
D15*
X36195000Y48895000D03*
X36195000Y31115000D03*
D16*
X51435000Y31115000D03*
X31115000Y31115000D03*
X13335000Y31115000D03*
X8255000Y31115000D03*
X41275000Y48895000D03*
X31115000Y48895000D03*
X35545000Y34340900D03*
X20955000Y31115000D03*
X5715000Y48895000D03*
X53975000Y48895000D03*
X41275000Y31115000D03*
X26035000Y31115000D03*
X15875000Y48895000D03*
X8255000Y48895000D03*
X43815000Y48895000D03*
X28575000Y48895000D03*
D17*
G04 #@! TO.C,J6*
X1905000Y8255000D03*
X1905000Y13335000D03*
X1905000Y10795000D03*
D18*
X1905000Y15875000D03*
D17*
G04 #@! TO.C,J2*
X70485000Y34290000D03*
X70485000Y36830000D03*
X70485000Y39370000D03*
D18*
X70485000Y41910000D03*
D17*
X70485000Y31750000D03*
X70485000Y29210000D03*
D10*
G04 #@! TO.C,Q1*
X82550000Y24765000D03*
X82550000Y22225000D03*
D11*
X82550000Y19685000D03*
D10*
G04 #@! TO.C,Q3*
X82550000Y47625000D03*
X82550000Y45085000D03*
D11*
X82550000Y42545000D03*
D10*
G04 #@! TO.C,Q4*
X82550000Y59055000D03*
X82550000Y56515000D03*
D11*
X82550000Y53975000D03*
D14*
G04 #@! TO.C,?8*
X20170000Y85535000D03*
X80170000Y85535000D03*
X70170000Y85535000D03*
X50170000Y85535000D03*
X90170000Y85535000D03*
X60170000Y85535000D03*
X30170000Y85535000D03*
X40170000Y85535000D03*
D12*
G04 #@! TO.C,J4*
X74930000Y73660000D03*
D13*
X49530000Y73660000D03*
X57150000Y73660000D03*
X67310000Y73660000D03*
X36830000Y73660000D03*
X59690000Y73660000D03*
X54610000Y73660000D03*
X64770000Y73660000D03*
X52070000Y73660000D03*
X69850000Y73660000D03*
X34290000Y73660000D03*
X62230000Y73660000D03*
X41910000Y73660000D03*
X39370000Y73660000D03*
X44450000Y73660000D03*
X72390000Y73660000D03*
X46990000Y73660000D03*
D12*
G04 #@! TO.C,J3*
X12065000Y76835000D03*
D13*
X27305000Y76835000D03*
X22225000Y76835000D03*
X14605000Y76835000D03*
X19685000Y76835000D03*
X24765000Y76835000D03*
X17145000Y76835000D03*
D17*
G04 #@! TO.C,J7*
X1905000Y19050000D03*
X1905000Y24130000D03*
X1905000Y21590000D03*
D18*
X1905000Y26670000D03*
D14*
G04 #@! TD*
X63500000Y50800000D03*
X97155000Y3810000D03*
X4445000Y4445000D03*
X97790000Y97155000D03*
X4445000Y78105000D03*
G04 --- BOARD END --- *
G04 #@! TF.MD5,02e2b7c241294060d444c92ad3f95cba*
M02*
