G04 --- HEADER BEGIN --- *
G04 #@! TF.GenerationSoftware,LibrePCB,LibrePCB,2.0.1*
G04 #@! TF.CreationDate,2026-06-02T08:27:26*
G04 #@! TF.ProjectId,PGDI,eecefd22-67af-4534-92f1-4d94143f8d19,v1*
G04 #@! TF.Part,Single*
G04 #@! TF.SameCoordinates*
G04 #@! TF.FileFunction,Paste,Top*
G04 #@! TF.FilePolarity,Positive*
%FSLAX66Y66*%
%MOMM*%
G01*
G75*
G04 --- HEADER END --- *
G04 --- APERTURE LIST BEGIN --- *
%ADD10R,1.39X0.84*%
%ADD11R,0.84X1.39*%
%AMROUNDEDRECT12*20,1,0.4,-0.225,0.0,0.225,0.0,90.0*20,1,0.25,-0.3,0.0,0.3,0.0,90.0*1,1,0.15,-0.125,-0.225*1,1,0.15,-0.125,0.225*1,1,0.15,0.125,0.225*1,1,0.15,0.125,-0.225*%
%ADD12ROUNDEDRECT12*%
%ADD13R,0.984X1.554*%
%ADD14R,1.896X1.956*%
%ADD15R,0.22352X1.27762*%
%ADD16R,1.1X0.6*%
%ADD17R,2.19964X0.44704*%
%ADD18R,1.40208X0.28448*%
G04 --- APERTURE LIST END --- *
G04 --- BOARD BEGIN --- *
D10*
G04 #@! TO.C,R47*
X41910000Y23975000D03*
X41910000Y26825000D03*
G04 #@! TO.C,R59*
X71755000Y13815000D03*
X71755000Y16665000D03*
D11*
G04 #@! TO.C,C13*
X36040000Y8255000D03*
X38890000Y8255000D03*
G04 #@! TO.C,R45*
X33500000Y20955000D03*
X36350000Y20955000D03*
D12*
G04 #@! TO.C,?12*
X68215000Y12380000D03*
X68215000Y10480000D03*
X70215000Y11430000D03*
D13*
G04 #@! TO.C,C3*
X22860000Y20360000D03*
X22860000Y17740000D03*
D10*
G04 #@! TO.C,R15*
X78105000Y30635000D03*
X78105000Y27785000D03*
D13*
G04 #@! TO.C,C6*
X53340000Y10835000D03*
X53340000Y8215000D03*
D14*
G04 #@! TO.C,C5*
X38045000Y17145000D03*
X31805000Y17145000D03*
D10*
G04 #@! TO.C,R37*
X78105000Y46510000D03*
X78105000Y43660000D03*
G04 #@! TO.C,R58*
X73025000Y9370000D03*
X73025000Y12220000D03*
G04 #@! TO.C,R60*
X69215000Y16665000D03*
X69215000Y13815000D03*
D11*
G04 #@! TO.C,R43*
X19840000Y20955000D03*
X16990000Y20955000D03*
D15*
G04 #@! TO.C,U7*
X59420252Y22536150D03*
X57419748Y22536150D03*
X57919874Y18103850D03*
X58420000Y18103850D03*
X58920126Y18103850D03*
X57419748Y18103850D03*
X58420000Y22536150D03*
X58920126Y22536150D03*
X57919874Y22536150D03*
X59420252Y18103850D03*
D10*
G04 #@! TO.C,R36*
X78105000Y35080000D03*
X78105000Y32230000D03*
G04 #@! TO.C,R35*
X8255000Y28095000D03*
X8255000Y25245000D03*
D12*
G04 #@! TO.C,?9*
X38370000Y22540000D03*
X38370000Y20640000D03*
X40370000Y21590000D03*
D14*
G04 #@! TO.C,C11*
X44505000Y15240000D03*
X50745000Y15240000D03*
D16*
G04 #@! TO.C,R61*
X70485000Y7280000D03*
X70485000Y9230000D03*
D14*
G04 #@! TO.C,C12*
X67890000Y6985000D03*
X61650000Y6985000D03*
D12*
G04 #@! TO.C,?7*
X13700000Y19370000D03*
X13700000Y21270000D03*
X11700000Y20320000D03*
D17*
G04 #@! TO.C,U2*
X50088800Y56515000D03*
X59131200Y65405000D03*
X59131200Y57785000D03*
X59131200Y56515000D03*
X59131200Y69215000D03*
X50088800Y55245000D03*
X50088800Y65405000D03*
X59131200Y59055000D03*
X50088800Y66675000D03*
X50088800Y69215000D03*
X59131200Y66675000D03*
X59131200Y61595000D03*
X50088800Y59055000D03*
X50088800Y60325000D03*
X50088800Y61595000D03*
X50088800Y64135000D03*
X59131200Y67945000D03*
X50088800Y62865000D03*
X59131200Y64135000D03*
X50088800Y67945000D03*
X59131200Y60325000D03*
X59131200Y62865000D03*
X59131200Y55245000D03*
X50088800Y57785000D03*
D10*
G04 #@! TO.C,R34*
X5715000Y25245000D03*
X5715000Y28095000D03*
D11*
G04 #@! TO.C,R54*
X47470000Y8890000D03*
X50320000Y8890000D03*
D10*
G04 #@! TO.C,R46*
X43180000Y19530000D03*
X43180000Y22380000D03*
D11*
G04 #@! TO.C,R56*
X66195000Y13335000D03*
X63345000Y13335000D03*
D10*
G04 #@! TO.C,R52*
X43180000Y5560000D03*
X43180000Y8410000D03*
G04 #@! TO.C,C10*
X45720000Y22380000D03*
X45720000Y19530000D03*
G04 #@! TO.C,C9*
X6350000Y19530000D03*
X6350000Y22380000D03*
G04 #@! TO.C,R13*
X8890000Y22380000D03*
X8890000Y19530000D03*
G04 #@! TO.C,R18*
X10160000Y17935000D03*
X10160000Y15085000D03*
D12*
G04 #@! TO.C,?10*
X44180000Y9845000D03*
X44180000Y11745000D03*
X42180000Y10795000D03*
D11*
G04 #@! TO.C,C7*
X5560000Y17780000D03*
X8410000Y17780000D03*
D10*
G04 #@! TO.C,R48*
X39370000Y26825000D03*
X39370000Y23975000D03*
G04 #@! TO.C,C16*
X75565000Y12220000D03*
X75565000Y9370000D03*
G04 #@! TO.C,R39*
X12700000Y15085000D03*
X12700000Y17935000D03*
D18*
G04 #@! TO.C,U4*
X24384000Y21250001D03*
X24384000Y23199999D03*
X30226000Y21250001D03*
X30226000Y22550001D03*
X24384000Y22550001D03*
X30226000Y23199999D03*
X24384000Y21899999D03*
X30226000Y21899999D03*
G04 #@! TO.C,U6*
X54864000Y11725001D03*
X54864000Y13674999D03*
X60706000Y11725001D03*
X60706000Y13025001D03*
X54864000Y13025001D03*
X60706000Y13674999D03*
X54864000Y12374999D03*
X60706000Y12374999D03*
D10*
G04 #@! TO.C,C17*
X53975000Y18895000D03*
X53975000Y21745000D03*
D16*
G04 #@! TO.C,R49*
X40640000Y17440000D03*
X40640000Y19390000D03*
D10*
G04 #@! TO.C,R51*
X40640000Y8410000D03*
X40640000Y5560000D03*
D11*
G04 #@! TO.C,R55*
X50320000Y11430000D03*
X47470000Y11430000D03*
G04 #@! TO.C,C14*
X76355000Y13970000D03*
X73505000Y13970000D03*
D10*
G04 #@! TO.C,R50*
X39370000Y12855000D03*
X39370000Y10005000D03*
D16*
G04 #@! TO.C,R53*
X41910000Y14945000D03*
X41910000Y12995000D03*
D10*
G04 #@! TO.C,C2*
X31115000Y26825000D03*
X31115000Y23975000D03*
G04 #@! TO.C,R2*
X78105000Y21110000D03*
X78105000Y18260000D03*
G04 #@! TO.C,R16*
X78105000Y42065000D03*
X78105000Y39215000D03*
D11*
G04 #@! TO.C,R42*
X16990000Y18415000D03*
X19840000Y18415000D03*
D10*
G04 #@! TO.C,R17*
X78105000Y53495000D03*
X78105000Y50645000D03*
G04 #@! TO.C,R40*
X78105000Y25555000D03*
X78105000Y22705000D03*
G04 #@! TO.C,C15*
X36830000Y10005000D03*
X36830000Y12855000D03*
G04 #@! TO.C,R38*
X78105000Y57940000D03*
X78105000Y55090000D03*
D16*
G04 #@! TO.C,R41*
X11430000Y24470000D03*
X11430000Y22520000D03*
D11*
G04 #@! TO.C,R57*
X63345000Y10795000D03*
X66195000Y10795000D03*
G04 #@! TO.C,R44*
X36350000Y23495000D03*
X33500000Y23495000D03*
D14*
G04 #@! TO.C,C4*
X14025000Y24765000D03*
X20265000Y24765000D03*
D10*
G04 #@! TO.C,C1*
X61595000Y17300000D03*
X61595000Y14450000D03*
D11*
G04 #@! TO.C,C8*
X46510000Y24130000D03*
X43660000Y24130000D03*
G04 --- BOARD END --- *
G04 #@! TF.MD5,320ded73868d1d975419608fce2fb1c5*
M02*
